<?xml version="1.0" encoding="utf-8" standalone="no"?>
<!DOCTYPE svg PUBLIC "-//W3C//DTD SVG 1.1//EN"
  "http://www.w3.org/Graphics/SVG/1.1/DTD/svg11.dtd">
<svg xmlns:xlink="http://www.w3.org/1999/xlink" width="648pt" height="331.2pt" viewBox="0 0 648 331.2" xmlns="http://www.w3.org/2000/svg" version="1.1">
 <metadata>
  <rdf:RDF xmlns:dc="http://purl.org/dc/elements/1.1/" xmlns:cc="http://creativecommons.org/ns#" xmlns:rdf="http://www.w3.org/1999/02/22-rdf-syntax-ns#">
   <cc:Work>
    <dc:type rdf:resource="http://purl.org/dc/dcmitype/StillImage"/>
    <dc:date>2026-02-24T16:03:23.929917</dc:date>
    <dc:format>image/svg+xml</dc:format>
    <dc:creator>
     <cc:Agent>
      <dc:title>Matplotlib v3.10.8, https://matplotlib.org/</dc:title>
     </cc:Agent>
    </dc:creator>
   </cc:Work>
  </rdf:RDF>
 </metadata>
 <defs>
  <style type="text/css">*{stroke-linejoin: round; stroke-linecap: butt}</style>
 </defs>
 <g id="figure_1">
  <g id="patch_1">
   <path d="M 0 331.2 
L 648 331.2 
L 648 0 
L 0 0 
z
" style="fill: #ffffff"/>
  </g>
  <g id="axes_1">
   <g id="patch_2">
    <path d="M 42.12 299.736 
L 609.12 299.736 
L 609.12 8.28 
L 42.12 8.28 
z
" style="fill: #ffffff"/>
   </g>
   <g id="FillBetweenPolyCollection_1">
    <path d="M -819.72 298.627802 
L -819.72 299.736 
L -797.04 299.736 
L -774.36 299.736 
L -751.68 299.736 
L -729 299.736 
L -706.32 299.736 
L -683.64 299.736 
L -660.96 299.736 
L -638.28 299.736 
L -615.6 299.736 
L -592.92 299.736 
L -570.24 299.736 
L -547.56 299.736 
L -524.88 299.736 
L -502.2 299.736 
L -479.52 299.736 
L -456.84 299.736 
L -434.16 299.736 
L -411.48 299.736 
L -388.8 299.736 
L -366.12 299.736 
L -343.44 299.736 
L -320.76 299.736 
L -298.08 299.736 
L -275.4 299.736 
L -252.72 299.736 
L -230.04 299.736 
L -207.36 299.736 
L -184.68 299.736 
L -162 299.736 
L -139.32 299.736 
L -116.64 299.736 
L -93.96 299.736 
L -71.28 299.736 
L -48.6 299.736 
L -25.92 299.736 
L -3.24 299.736 
L 19.44 299.736 
L 42.12 299.736 
L 64.8 299.736 
L 87.48 299.736 
L 110.16 299.736 
L 132.84 299.736 
L 155.52 299.736 
L 178.2 299.736 
L 200.88 299.736 
L 223.56 299.736 
L 246.24 299.736 
L 268.92 299.736 
L 291.6 299.736 
L 314.28 299.736 
L 336.96 299.736 
L 359.64 299.736 
L 382.32 299.736 
L 405 299.736 
L 427.68 299.736 
L 450.36 299.736 
L 473.04 299.736 
L 495.72 299.736 
L 518.4 299.736 
L 541.08 299.736 
L 563.76 299.736 
L 586.44 299.736 
L 609.12 299.736 
L 609.12 136.830935 
L 609.12 136.830935 
L 586.44 136.830935 
L 563.76 141.263726 
L 541.08 143.480122 
L 518.4 145.696517 
L 495.72 150.129308 
L 473.04 155.670297 
L 450.36 156.778494 
L 427.68 160.103087 
L 405 167.860471 
L 382.32 173.40146 
L 359.64 176.726053 
L 336.96 178.942449 
L 314.28 183.37524 
L 291.6 187.80803 
L 268.92 193.349019 
L 246.24 196.673612 
L 223.56 206.647392 
L 200.88 215.512973 
L 178.2 219.945764 
L 155.52 226.594951 
L 132.84 228.811346 
L 110.16 233.244137 
L 87.48 236.56873 
L 64.8 241.001521 
L 42.12 248.758905 
L 19.44 254.299894 
L -3.24 262.057278 
L -25.92 267.598266 
L -48.6 268.706464 
L -71.28 272.031057 
L -93.96 273.139255 
L -116.64 275.35565 
L -139.32 276.463848 
L -162 276.463848 
L -184.68 279.788441 
L -207.36 283.113034 
L -230.04 284.221232 
L -252.72 284.221232 
L -275.4 287.545825 
L -298.08 287.545825 
L -320.76 289.762221 
L -343.44 290.870418 
L -366.12 290.870418 
L -388.8 293.086814 
L -411.48 294.195011 
L -434.16 295.303209 
L -456.84 295.303209 
L -479.52 295.303209 
L -502.2 296.411407 
L -524.88 296.411407 
L -547.56 297.519605 
L -570.24 297.519605 
L -592.92 297.519605 
L -615.6 297.519605 
L -638.28 297.519605 
L -660.96 297.519605 
L -683.64 297.519605 
L -706.32 297.519605 
L -729 297.519605 
L -751.68 298.627802 
L -774.36 298.627802 
L -797.04 298.627802 
L -819.72 298.627802 
z
" clip-path="url(#p15e650ff22)" style="fill: #dbedf9; stroke: #dbedf9"/>
   </g>
   <g id="FillBetweenPolyCollection_2">
    <path d="M -819.72 298.627802 
L -819.72 298.627802 
L -797.04 298.627802 
L -774.36 298.627802 
L -751.68 298.627802 
L -729 297.519605 
L -706.32 297.519605 
L -683.64 297.519605 
L -660.96 297.519605 
L -638.28 297.519605 
L -615.6 297.519605 
L -592.92 297.519605 
L -570.24 297.519605 
L -547.56 297.519605 
L -524.88 296.411407 
L -502.2 296.411407 
L -479.52 295.303209 
L -456.84 295.303209 
L -434.16 295.303209 
L -411.48 294.195011 
L -388.8 293.086814 
L -366.12 290.870418 
L -343.44 290.870418 
L -320.76 289.762221 
L -298.08 287.545825 
L -275.4 287.545825 
L -252.72 284.221232 
L -230.04 284.221232 
L -207.36 283.113034 
L -184.68 279.788441 
L -162 276.463848 
L -139.32 276.463848 
L -116.64 275.35565 
L -93.96 273.139255 
L -71.28 272.031057 
L -48.6 268.706464 
L -25.92 267.598266 
L -3.24 262.057278 
L 19.44 254.299894 
L 42.12 248.758905 
L 64.8 241.001521 
L 87.48 236.56873 
L 110.16 233.244137 
L 132.84 228.811346 
L 155.52 226.594951 
L 178.2 219.945764 
L 200.88 215.512973 
L 223.56 206.647392 
L 246.24 196.673612 
L 268.92 193.349019 
L 291.6 187.80803 
L 314.28 183.37524 
L 336.96 178.942449 
L 359.64 176.726053 
L 382.32 173.40146 
L 405 167.860471 
L 427.68 160.103087 
L 450.36 156.778494 
L 473.04 155.670297 
L 495.72 150.129308 
L 518.4 145.696517 
L 541.08 143.480122 
L 563.76 141.263726 
L 586.44 136.830935 
L 609.12 136.830935 
L 609.12 84.745643 
L 609.12 84.745643 
L 586.44 89.178433 
L 563.76 95.82762 
L 541.08 101.368608 
L 518.4 108.017795 
L 495.72 117.991574 
L 473.04 126.857156 
L 450.36 129.073551 
L 427.68 133.506342 
L 405 144.588319 
L 382.32 151.237506 
L 359.64 155.670297 
L 336.96 160.103087 
L 314.28 164.535878 
L 291.6 172.293262 
L 268.92 181.158844 
L 246.24 186.699833 
L 223.56 199.998205 
L 200.88 209.971985 
L 178.2 216.621171 
L 155.52 223.270357 
L 132.84 225.486753 
L 110.16 232.135939 
L 87.48 236.56873 
L 64.8 241.001521 
L 42.12 248.758905 
L 19.44 254.299894 
L -3.24 262.057278 
L -25.92 267.598266 
L -48.6 268.706464 
L -71.28 272.031057 
L -93.96 273.139255 
L -116.64 275.35565 
L -139.32 276.463848 
L -162 276.463848 
L -184.68 279.788441 
L -207.36 283.113034 
L -230.04 284.221232 
L -252.72 284.221232 
L -275.4 287.545825 
L -298.08 287.545825 
L -320.76 289.762221 
L -343.44 290.870418 
L -366.12 290.870418 
L -388.8 293.086814 
L -411.48 294.195011 
L -434.16 295.303209 
L -456.84 295.303209 
L -479.52 295.303209 
L -502.2 296.411407 
L -524.88 296.411407 
L -547.56 297.519605 
L -570.24 297.519605 
L -592.92 297.519605 
L -615.6 297.519605 
L -638.28 297.519605 
L -660.96 297.519605 
L -683.64 297.519605 
L -706.32 297.519605 
L -729 297.519605 
L -751.68 298.627802 
L -774.36 298.627802 
L -797.04 298.627802 
L -819.72 298.627802 
z
" clip-path="url(#p15e650ff22)" style="fill: #ffe2c9; stroke: #ffe2c9"/>
   </g>
   <g id="FillBetweenPolyCollection_3">
    <path d="M -819.72 298.627802 
L -819.72 298.627802 
L -797.04 298.627802 
L -774.36 298.627802 
L -751.68 298.627802 
L -729 297.519605 
L -706.32 297.519605 
L -683.64 297.519605 
L -660.96 297.519605 
L -638.28 297.519605 
L -615.6 297.519605 
L -592.92 297.519605 
L -570.24 297.519605 
L -547.56 297.519605 
L -524.88 296.411407 
L -502.2 296.411407 
L -479.52 295.303209 
L -456.84 295.303209 
L -434.16 295.303209 
L -411.48 294.195011 
L -388.8 293.086814 
L -366.12 290.870418 
L -343.44 290.870418 
L -320.76 289.762221 
L -298.08 287.545825 
L -275.4 287.545825 
L -252.72 284.221232 
L -230.04 284.221232 
L -207.36 283.113034 
L -184.68 279.788441 
L -162 276.463848 
L -139.32 276.463848 
L -116.64 275.35565 
L -93.96 273.139255 
L -71.28 272.031057 
L -48.6 268.706464 
L -25.92 267.598266 
L -3.24 262.057278 
L 19.44 254.299894 
L 42.12 248.758905 
L 64.8 241.001521 
L 87.48 236.56873 
L 110.16 232.135939 
L 132.84 225.486753 
L 155.52 223.270357 
L 178.2 216.621171 
L 200.88 209.971985 
L 223.56 199.998205 
L 246.24 186.699833 
L 268.92 181.158844 
L 291.6 172.293262 
L 314.28 164.535878 
L 336.96 160.103087 
L 359.64 155.670297 
L 382.32 151.237506 
L 405 144.588319 
L 427.68 133.506342 
L 450.36 129.073551 
L 473.04 126.857156 
L 495.72 117.991574 
L 518.4 108.017795 
L 541.08 101.368608 
L 563.76 95.82762 
L 586.44 89.178433 
L 609.12 84.745643 
L 609.12 57.0407 
L 609.12 57.0407 
L 586.44 64.798084 
L 563.76 71.44727 
L 541.08 76.988259 
L 518.4 83.637445 
L 495.72 93.611224 
L 473.04 105.801399 
L 450.36 110.23419 
L 427.68 115.775179 
L 405 129.073551 
L 382.32 137.939133 
L 359.64 142.371924 
L 336.96 147.912913 
L 314.28 153.453901 
L 291.6 162.319483 
L 268.92 173.40146 
L 246.24 180.050646 
L 223.56 194.457217 
L 200.88 206.647392 
L 178.2 213.296578 
L 155.52 219.945764 
L 132.84 222.16216 
L 110.16 228.811346 
L 87.48 235.460532 
L 64.8 239.893323 
L 42.12 247.650707 
L 19.44 253.191696 
L -3.24 260.94908 
L -25.92 267.598266 
L -48.6 268.706464 
L -71.28 272.031057 
L -93.96 273.139255 
L -116.64 275.35565 
L -139.32 276.463848 
L -162 276.463848 
L -184.68 279.788441 
L -207.36 283.113034 
L -230.04 284.221232 
L -252.72 284.221232 
L -275.4 287.545825 
L -298.08 287.545825 
L -320.76 289.762221 
L -343.44 290.870418 
L -366.12 290.870418 
L -388.8 293.086814 
L -411.48 294.195011 
L -434.16 295.303209 
L -456.84 295.303209 
L -479.52 295.303209 
L -502.2 296.411407 
L -524.88 296.411407 
L -547.56 297.519605 
L -570.24 297.519605 
L -592.92 297.519605 
L -615.6 297.519605 
L -638.28 297.519605 
L -660.96 297.519605 
L -683.64 297.519605 
L -706.32 297.519605 
L -729 297.519605 
L -751.68 298.627802 
L -774.36 298.627802 
L -797.04 298.627802 
L -819.72 298.627802 
z
" clip-path="url(#p15e650ff22)" style="fill: #dff6df; stroke: #dff6df"/>
   </g>
   <g id="FillBetweenPolyCollection_4">
    <path d="M -819.72 298.627802 
L -819.72 298.627802 
L -797.04 298.627802 
L -774.36 298.627802 
L -751.68 298.627802 
L -729 297.519605 
L -706.32 297.519605 
L -683.64 297.519605 
L -660.96 297.519605 
L -638.28 297.519605 
L -615.6 297.519605 
L -592.92 297.519605 
L -570.24 297.519605 
L -547.56 297.519605 
L -524.88 296.411407 
L -502.2 296.411407 
L -479.52 295.303209 
L -456.84 295.303209 
L -434.16 295.303209 
L -411.48 294.195011 
L -388.8 293.086814 
L -366.12 290.870418 
L -343.44 290.870418 
L -320.76 289.762221 
L -298.08 287.545825 
L -275.4 287.545825 
L -252.72 284.221232 
L -230.04 284.221232 
L -207.36 283.113034 
L -184.68 279.788441 
L -162 276.463848 
L -139.32 276.463848 
L -116.64 275.35565 
L -93.96 273.139255 
L -71.28 272.031057 
L -48.6 268.706464 
L -25.92 267.598266 
L -3.24 260.94908 
L 19.44 253.191696 
L 42.12 247.650707 
L 64.8 239.893323 
L 87.48 235.460532 
L 110.16 228.811346 
L 132.84 222.16216 
L 155.52 219.945764 
L 178.2 213.296578 
L 200.88 206.647392 
L 223.56 194.457217 
L 246.24 180.050646 
L 268.92 173.40146 
L 291.6 162.319483 
L 314.28 153.453901 
L 336.96 147.912913 
L 359.64 142.371924 
L 382.32 137.939133 
L 405 129.073551 
L 427.68 115.775179 
L 450.36 110.23419 
L 473.04 105.801399 
L 495.72 93.611224 
L 518.4 83.637445 
L 541.08 76.988259 
L 563.76 71.44727 
L 586.44 64.798084 
L 609.12 57.0407 
L 609.12 42.634129 
L 609.12 42.634129 
L 586.44 52.607909 
L 563.76 60.365293 
L 541.08 70.339072 
L 518.4 78.096456 
L 495.72 88.070236 
L 473.04 104.693202 
L 450.36 109.125992 
L 427.68 114.666981 
L 405 129.073551 
L 382.32 137.939133 
L 359.64 142.371924 
L 336.96 147.912913 
L 314.28 153.453901 
L 291.6 162.319483 
L 268.92 173.40146 
L 246.24 180.050646 
L 223.56 194.457217 
L 200.88 206.647392 
L 178.2 213.296578 
L 155.52 219.945764 
L 132.84 222.16216 
L 110.16 228.811346 
L 87.48 235.460532 
L 64.8 239.893323 
L 42.12 247.650707 
L 19.44 253.191696 
L -3.24 260.94908 
L -25.92 267.598266 
L -48.6 268.706464 
L -71.28 272.031057 
L -93.96 273.139255 
L -116.64 275.35565 
L -139.32 276.463848 
L -162 276.463848 
L -184.68 279.788441 
L -207.36 283.113034 
L -230.04 284.221232 
L -252.72 284.221232 
L -275.4 287.545825 
L -298.08 287.545825 
L -320.76 289.762221 
L -343.44 290.870418 
L -366.12 290.870418 
L -388.8 293.086814 
L -411.48 294.195011 
L -434.16 295.303209 
L -456.84 295.303209 
L -479.52 295.303209 
L -502.2 296.411407 
L -524.88 296.411407 
L -547.56 297.519605 
L -570.24 297.519605 
L -592.92 297.519605 
L -615.6 297.519605 
L -638.28 297.519605 
L -660.96 297.519605 
L -683.64 297.519605 
L -706.32 297.519605 
L -729 297.519605 
L -751.68 298.627802 
L -774.36 298.627802 
L -797.04 298.627802 
L -819.72 298.627802 
z
" clip-path="url(#p15e650ff22)" style="fill: #f7d4d4; stroke: #f7d4d4"/>
   </g>
   <g id="FillBetweenPolyCollection_5">
    <path d="M -819.72 298.627802 
L -819.72 298.627802 
L -797.04 298.627802 
L -774.36 298.627802 
L -751.68 298.627802 
L -729 297.519605 
L -706.32 297.519605 
L -683.64 297.519605 
L -660.96 297.519605 
L -638.28 297.519605 
L -615.6 297.519605 
L -592.92 297.519605 
L -570.24 297.519605 
L -547.56 297.519605 
L -524.88 296.411407 
L -502.2 296.411407 
L -479.52 295.303209 
L -456.84 295.303209 
L -434.16 295.303209 
L -411.48 294.195011 
L -388.8 293.086814 
L -366.12 290.870418 
L -343.44 290.870418 
L -320.76 289.762221 
L -298.08 287.545825 
L -275.4 287.545825 
L -252.72 284.221232 
L -230.04 284.221232 
L -207.36 283.113034 
L -184.68 279.788441 
L -162 276.463848 
L -139.32 276.463848 
L -116.64 275.35565 
L -93.96 273.139255 
L -71.28 272.031057 
L -48.6 268.706464 
L -25.92 267.598266 
L -3.24 260.94908 
L 19.44 253.191696 
L 42.12 247.650707 
L 64.8 239.893323 
L 87.48 235.460532 
L 110.16 228.811346 
L 132.84 222.16216 
L 155.52 219.945764 
L 178.2 213.296578 
L 200.88 206.647392 
L 223.56 194.457217 
L 246.24 180.050646 
L 268.92 173.40146 
L 291.6 162.319483 
L 314.28 153.453901 
L 336.96 147.912913 
L 359.64 142.371924 
L 382.32 137.939133 
L 405 129.073551 
L 427.68 114.666981 
L 450.36 109.125992 
L 473.04 104.693202 
L 495.72 88.070236 
L 518.4 78.096456 
L 541.08 70.339072 
L 563.76 60.365293 
L 586.44 52.607909 
L 609.12 42.634129 
L 609.12 32.66035 
L 609.12 32.66035 
L 586.44 42.634129 
L 563.76 50.391513 
L 541.08 61.47349 
L 518.4 69.230875 
L 495.72 80.312852 
L 473.04 96.935817 
L 450.36 101.368608 
L 427.68 108.017795 
L 405 122.424365 
L 382.32 131.289947 
L 359.64 135.722738 
L 336.96 141.263726 
L 314.28 146.804715 
L 291.6 155.670297 
L 268.92 168.968669 
L 246.24 175.617856 
L 223.56 191.132624 
L 200.88 204.430996 
L 178.2 212.18838 
L 155.52 218.837567 
L 132.84 221.053962 
L 110.16 227.703148 
L 87.48 234.352335 
L 64.8 238.785125 
L 42.12 246.54251 
L 19.44 253.191696 
L -3.24 260.94908 
L -25.92 267.598266 
L -48.6 268.706464 
L -71.28 272.031057 
L -93.96 273.139255 
L -116.64 275.35565 
L -139.32 276.463848 
L -162 276.463848 
L -184.68 279.788441 
L -207.36 283.113034 
L -230.04 284.221232 
L -252.72 284.221232 
L -275.4 287.545825 
L -298.08 287.545825 
L -320.76 289.762221 
L -343.44 290.870418 
L -366.12 290.870418 
L -388.8 293.086814 
L -411.48 294.195011 
L -434.16 295.303209 
L -456.84 295.303209 
L -479.52 295.303209 
L -502.2 296.411407 
L -524.88 296.411407 
L -547.56 297.519605 
L -570.24 297.519605 
L -592.92 297.519605 
L -615.6 297.519605 
L -638.28 297.519605 
L -660.96 297.519605 
L -683.64 297.519605 
L -706.32 297.519605 
L -729 297.519605 
L -751.68 298.627802 
L -774.36 298.627802 
L -797.04 298.627802 
L -819.72 298.627802 
z
" clip-path="url(#p15e650ff22)" style="fill: #e2d6ed; stroke: #e2d6ed"/>
   </g>
   <g id="FillBetweenPolyCollection_6">
    <path d="M -819.72 298.627802 
L -819.72 298.627802 
L -797.04 298.627802 
L -774.36 298.627802 
L -751.68 298.627802 
L -729 297.519605 
L -706.32 297.519605 
L -683.64 297.519605 
L -660.96 297.519605 
L -638.28 297.519605 
L -615.6 297.519605 
L -592.92 297.519605 
L -570.24 297.519605 
L -547.56 297.519605 
L -524.88 296.411407 
L -502.2 296.411407 
L -479.52 295.303209 
L -456.84 295.303209 
L -434.16 295.303209 
L -411.48 294.195011 
L -388.8 293.086814 
L -366.12 290.870418 
L -343.44 290.870418 
L -320.76 289.762221 
L -298.08 287.545825 
L -275.4 287.545825 
L -252.72 284.221232 
L -230.04 284.221232 
L -207.36 283.113034 
L -184.68 279.788441 
L -162 276.463848 
L -139.32 276.463848 
L -116.64 275.35565 
L -93.96 273.139255 
L -71.28 272.031057 
L -48.6 268.706464 
L -25.92 267.598266 
L -3.24 260.94908 
L 19.44 253.191696 
L 42.12 246.54251 
L 64.8 238.785125 
L 87.48 234.352335 
L 110.16 227.703148 
L 132.84 221.053962 
L 155.52 218.837567 
L 178.2 212.18838 
L 200.88 204.430996 
L 223.56 191.132624 
L 246.24 175.617856 
L 268.92 168.968669 
L 291.6 155.670297 
L 314.28 146.804715 
L 336.96 141.263726 
L 359.64 135.722738 
L 382.32 131.289947 
L 405 122.424365 
L 427.68 108.017795 
L 450.36 101.368608 
L 473.04 96.935817 
L 495.72 80.312852 
L 518.4 69.230875 
L 541.08 61.47349 
L 563.76 50.391513 
L 586.44 42.634129 
L 609.12 32.66035 
L 609.12 7.171802 
L 609.12 7.171802 
L 586.44 18.253779 
L 563.76 26.011163 
L 541.08 37.093141 
L 518.4 44.850525 
L 495.72 57.0407 
L 473.04 75.880061 
L 450.36 80.312852 
L 427.68 86.962038 
L 405 102.476806 
L 382.32 111.342388 
L 359.64 117.991574 
L 336.96 125.748958 
L 314.28 131.289947 
L 291.6 140.155529 
L 268.92 153.453901 
L 246.24 161.211285 
L 223.56 176.726053 
L 200.88 191.132624 
L 178.2 199.998205 
L 155.52 209.971985 
L 132.84 213.296578 
L 110.16 223.270357 
L 87.48 234.352335 
L 64.8 238.785125 
L 42.12 246.54251 
L 19.44 253.191696 
L -3.24 260.94908 
L -25.92 267.598266 
L -48.6 268.706464 
L -71.28 272.031057 
L -93.96 273.139255 
L -116.64 275.35565 
L -139.32 276.463848 
L -162 276.463848 
L -184.68 279.788441 
L -207.36 283.113034 
L -230.04 284.221232 
L -252.72 284.221232 
L -275.4 287.545825 
L -298.08 287.545825 
L -320.76 289.762221 
L -343.44 290.870418 
L -366.12 290.870418 
L -388.8 293.086814 
L -411.48 294.195011 
L -434.16 295.303209 
L -456.84 295.303209 
L -479.52 295.303209 
L -502.2 296.411407 
L -524.88 296.411407 
L -547.56 297.519605 
L -570.24 297.519605 
L -592.92 297.519605 
L -615.6 297.519605 
L -638.28 297.519605 
L -660.96 297.519605 
L -683.64 297.519605 
L -706.32 297.519605 
L -729 297.519605 
L -751.68 298.627802 
L -774.36 298.627802 
L -797.04 298.627802 
L -819.72 298.627802 
z
" clip-path="url(#p15e650ff22)" style="fill: #f0e5e3; stroke: #f0e5e3"/>
   </g>
   <g id="line2d_1">
    <path d="M -1 260.182918 
L 19.44 253.191696 
L 42.12 246.54251 
L 64.8 238.785125 
L 87.48 234.352335 
L 110.16 223.270357 
L 132.84 213.296578 
L 155.52 209.971985 
L 178.2 199.998205 
L 200.88 191.132624 
L 223.56 176.726053 
L 246.24 161.211285 
L 268.92 153.453901 
L 291.6 140.155529 
L 314.28 131.289947 
L 336.96 125.748958 
L 359.64 117.991574 
L 382.32 111.342388 
L 405 102.476806 
L 427.68 86.962038 
L 450.36 80.312852 
L 473.04 75.880061 
L 495.72 57.0407 
L 518.4 44.850525 
L 541.08 37.093141 
L 563.76 26.011163 
L 586.44 18.253779 
L 609.12 7.171802 
" clip-path="url(#p15e650ff22)" style="fill: none; stroke: #8c564b; stroke-width: 1.5; stroke-linecap: square"/>
   </g>
   <g id="matplotlib.axis_1">
    <g id="xtick_1">
     <g id="line2d_2">
      <defs>
       <path id="m80e938ceed" d="M 0 0 
L 0 3.5 
" style="stroke: #000000; stroke-width: 0.8"/>
      </defs>
      <g>
       <use xlink:href="#m80e938ceed" x="42.12" y="299.736" style="stroke: #000000; stroke-width: 0.8"/>
      </g>
     </g>
     <g id="text_1">
      <!-- 2000 -->
      <g transform="translate(29.395 314.334437) scale(0.1 -0.1)">
       <defs>
        <path id="DejaVuSans-32" d="M 1228 531 
L 3431 531 
L 3431 0 
L 469 0 
L 469 531 
Q 828 903 1448 1529 
Q 2069 2156 2228 2338 
Q 2531 2678 2651 2914 
Q 2772 3150 2772 3378 
Q 2772 3750 2511 3984 
Q 2250 4219 1831 4219 
Q 1534 4219 1204 4116 
Q 875 4013 500 3803 
L 500 4441 
Q 881 4594 1212 4672 
Q 1544 4750 1819 4750 
Q 2544 4750 2975 4387 
Q 3406 4025 3406 3419 
Q 3406 3131 3298 2873 
Q 3191 2616 2906 2266 
Q 2828 2175 2409 1742 
Q 1991 1309 1228 531 
z
" transform="scale(0.015625)"/>
        <path id="DejaVuSans-30" d="M 2034 4250 
Q 1547 4250 1301 3770 
Q 1056 3291 1056 2328 
Q 1056 1369 1301 889 
Q 1547 409 2034 409 
Q 2525 409 2770 889 
Q 3016 1369 3016 2328 
Q 3016 3291 2770 3770 
Q 2525 4250 2034 4250 
z
M 2034 4750 
Q 2819 4750 3233 4129 
Q 3647 3509 3647 2328 
Q 3647 1150 3233 529 
Q 2819 -91 2034 -91 
Q 1250 -91 836 529 
Q 422 1150 422 2328 
Q 422 3509 836 4129 
Q 1250 4750 2034 4750 
z
" transform="scale(0.015625)"/>
       </defs>
       <use xlink:href="#DejaVuSans-32"/>
       <use xlink:href="#DejaVuSans-30" transform="translate(63.623047 0)"/>
       <use xlink:href="#DejaVuSans-30" transform="translate(127.246094 0)"/>
       <use xlink:href="#DejaVuSans-30" transform="translate(190.869141 0)"/>
      </g>
     </g>
    </g>
    <g id="xtick_2">
     <g id="line2d_3">
      <g>
       <use xlink:href="#m80e938ceed" x="155.52" y="299.736" style="stroke: #000000; stroke-width: 0.8"/>
      </g>
     </g>
     <g id="text_2">
      <!-- 2005 -->
      <g transform="translate(142.795 314.334437) scale(0.1 -0.1)">
       <defs>
        <path id="DejaVuSans-35" d="M 691 4666 
L 3169 4666 
L 3169 4134 
L 1269 4134 
L 1269 2991 
Q 1406 3038 1543 3061 
Q 1681 3084 1819 3084 
Q 2600 3084 3056 2656 
Q 3513 2228 3513 1497 
Q 3513 744 3044 326 
Q 2575 -91 1722 -91 
Q 1428 -91 1123 -41 
Q 819 9 494 109 
L 494 744 
Q 775 591 1075 516 
Q 1375 441 1709 441 
Q 2250 441 2565 725 
Q 2881 1009 2881 1497 
Q 2881 1984 2565 2268 
Q 2250 2553 1709 2553 
Q 1456 2553 1204 2497 
Q 953 2441 691 2322 
L 691 4666 
z
" transform="scale(0.015625)"/>
       </defs>
       <use xlink:href="#DejaVuSans-32"/>
       <use xlink:href="#DejaVuSans-30" transform="translate(63.623047 0)"/>
       <use xlink:href="#DejaVuSans-30" transform="translate(127.246094 0)"/>
       <use xlink:href="#DejaVuSans-35" transform="translate(190.869141 0)"/>
      </g>
     </g>
    </g>
    <g id="xtick_3">
     <g id="line2d_4">
      <g>
       <use xlink:href="#m80e938ceed" x="268.92" y="299.736" style="stroke: #000000; stroke-width: 0.8"/>
      </g>
     </g>
     <g id="text_3">
      <!-- 2010 -->
      <g transform="translate(256.195 314.334437) scale(0.1 -0.1)">
       <defs>
        <path id="DejaVuSans-31" d="M 794 531 
L 1825 531 
L 1825 4091 
L 703 3866 
L 703 4441 
L 1819 4666 
L 2450 4666 
L 2450 531 
L 3481 531 
L 3481 0 
L 794 0 
L 794 531 
z
" transform="scale(0.015625)"/>
       </defs>
       <use xlink:href="#DejaVuSans-32"/>
       <use xlink:href="#DejaVuSans-30" transform="translate(63.623047 0)"/>
       <use xlink:href="#DejaVuSans-31" transform="translate(127.246094 0)"/>
       <use xlink:href="#DejaVuSans-30" transform="translate(190.869141 0)"/>
      </g>
     </g>
    </g>
    <g id="xtick_4">
     <g id="line2d_5">
      <g>
       <use xlink:href="#m80e938ceed" x="382.32" y="299.736" style="stroke: #000000; stroke-width: 0.8"/>
      </g>
     </g>
     <g id="text_4">
      <!-- 2015 -->
      <g transform="translate(369.595 314.334437) scale(0.1 -0.1)">
       <use xlink:href="#DejaVuSans-32"/>
       <use xlink:href="#DejaVuSans-30" transform="translate(63.623047 0)"/>
       <use xlink:href="#DejaVuSans-31" transform="translate(127.246094 0)"/>
       <use xlink:href="#DejaVuSans-35" transform="translate(190.869141 0)"/>
      </g>
     </g>
    </g>
    <g id="xtick_5">
     <g id="line2d_6">
      <g>
       <use xlink:href="#m80e938ceed" x="495.72" y="299.736" style="stroke: #000000; stroke-width: 0.8"/>
      </g>
     </g>
     <g id="text_5">
      <!-- 2020 -->
      <g transform="translate(482.995 314.334437) scale(0.1 -0.1)">
       <use xlink:href="#DejaVuSans-32"/>
       <use xlink:href="#DejaVuSans-30" transform="translate(63.623047 0)"/>
       <use xlink:href="#DejaVuSans-32" transform="translate(127.246094 0)"/>
       <use xlink:href="#DejaVuSans-30" transform="translate(190.869141 0)"/>
      </g>
     </g>
    </g>
    <g id="xtick_6">
     <g id="line2d_7">
      <g>
       <use xlink:href="#m80e938ceed" x="609.12" y="299.736" style="stroke: #000000; stroke-width: 0.8"/>
      </g>
     </g>
     <g id="text_6">
      <!-- 2025 -->
      <g transform="translate(596.395 314.334437) scale(0.1 -0.1)">
       <use xlink:href="#DejaVuSans-32"/>
       <use xlink:href="#DejaVuSans-30" transform="translate(63.623047 0)"/>
       <use xlink:href="#DejaVuSans-32" transform="translate(127.246094 0)"/>
       <use xlink:href="#DejaVuSans-35" transform="translate(190.869141 0)"/>
      </g>
     </g>
    </g>
    <g id="text_7">
     <!-- Models published to date -->
     <g transform="translate(262.620781 328.012563) scale(0.1 -0.1)">
      <defs>
       <path id="DejaVuSans-4d" d="M 628 4666 
L 1569 4666 
L 2759 1491 
L 3956 4666 
L 4897 4666 
L 4897 0 
L 4281 0 
L 4281 4097 
L 3078 897 
L 2444 897 
L 1241 4097 
L 1241 0 
L 628 0 
L 628 4666 
z
" transform="scale(0.015625)"/>
       <path id="DejaVuSans-6f" d="M 1959 3097 
Q 1497 3097 1228 2736 
Q 959 2375 959 1747 
Q 959 1119 1226 758 
Q 1494 397 1959 397 
Q 2419 397 2687 759 
Q 2956 1122 2956 1747 
Q 2956 2369 2687 2733 
Q 2419 3097 1959 3097 
z
M 1959 3584 
Q 2709 3584 3137 3096 
Q 3566 2609 3566 1747 
Q 3566 888 3137 398 
Q 2709 -91 1959 -91 
Q 1206 -91 779 398 
Q 353 888 353 1747 
Q 353 2609 779 3096 
Q 1206 3584 1959 3584 
z
" transform="scale(0.015625)"/>
       <path id="DejaVuSans-64" d="M 2906 2969 
L 2906 4863 
L 3481 4863 
L 3481 0 
L 2906 0 
L 2906 525 
Q 2725 213 2448 61 
Q 2172 -91 1784 -91 
Q 1150 -91 751 415 
Q 353 922 353 1747 
Q 353 2572 751 3078 
Q 1150 3584 1784 3584 
Q 2172 3584 2448 3432 
Q 2725 3281 2906 2969 
z
M 947 1747 
Q 947 1113 1208 752 
Q 1469 391 1925 391 
Q 2381 391 2643 752 
Q 2906 1113 2906 1747 
Q 2906 2381 2643 2742 
Q 2381 3103 1925 3103 
Q 1469 3103 1208 2742 
Q 947 2381 947 1747 
z
" transform="scale(0.015625)"/>
       <path id="DejaVuSans-65" d="M 3597 1894 
L 3597 1613 
L 953 1613 
Q 991 1019 1311 708 
Q 1631 397 2203 397 
Q 2534 397 2845 478 
Q 3156 559 3463 722 
L 3463 178 
Q 3153 47 2828 -22 
Q 2503 -91 2169 -91 
Q 1331 -91 842 396 
Q 353 884 353 1716 
Q 353 2575 817 3079 
Q 1281 3584 2069 3584 
Q 2775 3584 3186 3129 
Q 3597 2675 3597 1894 
z
M 3022 2063 
Q 3016 2534 2758 2815 
Q 2500 3097 2075 3097 
Q 1594 3097 1305 2825 
Q 1016 2553 972 2059 
L 3022 2063 
z
" transform="scale(0.015625)"/>
       <path id="DejaVuSans-6c" d="M 603 4863 
L 1178 4863 
L 1178 0 
L 603 0 
L 603 4863 
z
" transform="scale(0.015625)"/>
       <path id="DejaVuSans-73" d="M 2834 3397 
L 2834 2853 
Q 2591 2978 2328 3040 
Q 2066 3103 1784 3103 
Q 1356 3103 1142 2972 
Q 928 2841 928 2578 
Q 928 2378 1081 2264 
Q 1234 2150 1697 2047 
L 1894 2003 
Q 2506 1872 2764 1633 
Q 3022 1394 3022 966 
Q 3022 478 2636 193 
Q 2250 -91 1575 -91 
Q 1294 -91 989 -36 
Q 684 19 347 128 
L 347 722 
Q 666 556 975 473 
Q 1284 391 1588 391 
Q 1994 391 2212 530 
Q 2431 669 2431 922 
Q 2431 1156 2273 1281 
Q 2116 1406 1581 1522 
L 1381 1569 
Q 847 1681 609 1914 
Q 372 2147 372 2553 
Q 372 3047 722 3315 
Q 1072 3584 1716 3584 
Q 2034 3584 2315 3537 
Q 2597 3491 2834 3397 
z
" transform="scale(0.015625)"/>
       <path id="DejaVuSans-20" transform="scale(0.015625)"/>
       <path id="DejaVuSans-70" d="M 1159 525 
L 1159 -1331 
L 581 -1331 
L 581 3500 
L 1159 3500 
L 1159 2969 
Q 1341 3281 1617 3432 
Q 1894 3584 2278 3584 
Q 2916 3584 3314 3078 
Q 3713 2572 3713 1747 
Q 3713 922 3314 415 
Q 2916 -91 2278 -91 
Q 1894 -91 1617 61 
Q 1341 213 1159 525 
z
M 3116 1747 
Q 3116 2381 2855 2742 
Q 2594 3103 2138 3103 
Q 1681 3103 1420 2742 
Q 1159 2381 1159 1747 
Q 1159 1113 1420 752 
Q 1681 391 2138 391 
Q 2594 391 2855 752 
Q 3116 1113 3116 1747 
z
" transform="scale(0.015625)"/>
       <path id="DejaVuSans-75" d="M 544 1381 
L 544 3500 
L 1119 3500 
L 1119 1403 
Q 1119 906 1312 657 
Q 1506 409 1894 409 
Q 2359 409 2629 706 
Q 2900 1003 2900 1516 
L 2900 3500 
L 3475 3500 
L 3475 0 
L 2900 0 
L 2900 538 
Q 2691 219 2414 64 
Q 2138 -91 1772 -91 
Q 1169 -91 856 284 
Q 544 659 544 1381 
z
M 1991 3584 
L 1991 3584 
z
" transform="scale(0.015625)"/>
       <path id="DejaVuSans-62" d="M 3116 1747 
Q 3116 2381 2855 2742 
Q 2594 3103 2138 3103 
Q 1681 3103 1420 2742 
Q 1159 2381 1159 1747 
Q 1159 1113 1420 752 
Q 1681 391 2138 391 
Q 2594 391 2855 752 
Q 3116 1113 3116 1747 
z
M 1159 2969 
Q 1341 3281 1617 3432 
Q 1894 3584 2278 3584 
Q 2916 3584 3314 3078 
Q 3713 2572 3713 1747 
Q 3713 922 3314 415 
Q 2916 -91 2278 -91 
Q 1894 -91 1617 61 
Q 1341 213 1159 525 
L 1159 0 
L 581 0 
L 581 4863 
L 1159 4863 
L 1159 2969 
z
" transform="scale(0.015625)"/>
       <path id="DejaVuSans-69" d="M 603 3500 
L 1178 3500 
L 1178 0 
L 603 0 
L 603 3500 
z
M 603 4863 
L 1178 4863 
L 1178 4134 
L 603 4134 
L 603 4863 
z
" transform="scale(0.015625)"/>
       <path id="DejaVuSans-68" d="M 3513 2113 
L 3513 0 
L 2938 0 
L 2938 2094 
Q 2938 2591 2744 2837 
Q 2550 3084 2163 3084 
Q 1697 3084 1428 2787 
Q 1159 2491 1159 1978 
L 1159 0 
L 581 0 
L 581 4863 
L 1159 4863 
L 1159 2956 
Q 1366 3272 1645 3428 
Q 1925 3584 2291 3584 
Q 2894 3584 3203 3211 
Q 3513 2838 3513 2113 
z
" transform="scale(0.015625)"/>
       <path id="DejaVuSans-74" d="M 1172 4494 
L 1172 3500 
L 2356 3500 
L 2356 3053 
L 1172 3053 
L 1172 1153 
Q 1172 725 1289 603 
Q 1406 481 1766 481 
L 2356 481 
L 2356 0 
L 1766 0 
Q 1100 0 847 248 
Q 594 497 594 1153 
L 594 3053 
L 172 3053 
L 172 3500 
L 594 3500 
L 594 4494 
L 1172 4494 
z
" transform="scale(0.015625)"/>
       <path id="DejaVuSans-61" d="M 2194 1759 
Q 1497 1759 1228 1600 
Q 959 1441 959 1056 
Q 959 750 1161 570 
Q 1363 391 1709 391 
Q 2188 391 2477 730 
Q 2766 1069 2766 1631 
L 2766 1759 
L 2194 1759 
z
M 3341 1997 
L 3341 0 
L 2766 0 
L 2766 531 
Q 2569 213 2275 61 
Q 1981 -91 1556 -91 
Q 1019 -91 701 211 
Q 384 513 384 1019 
Q 384 1609 779 1909 
Q 1175 2209 1959 2209 
L 2766 2209 
L 2766 2266 
Q 2766 2663 2505 2880 
Q 2244 3097 1772 3097 
Q 1472 3097 1187 3025 
Q 903 2953 641 2809 
L 641 3341 
Q 956 3463 1253 3523 
Q 1550 3584 1831 3584 
Q 2591 3584 2966 3190 
Q 3341 2797 3341 1997 
z
" transform="scale(0.015625)"/>
      </defs>
      <use xlink:href="#DejaVuSans-4d"/>
      <use xlink:href="#DejaVuSans-6f" transform="translate(86.279297 0)"/>
      <use xlink:href="#DejaVuSans-64" transform="translate(147.460938 0)"/>
      <use xlink:href="#DejaVuSans-65" transform="translate(210.9375 0)"/>
      <use xlink:href="#DejaVuSans-6c" transform="translate(272.460938 0)"/>
      <use xlink:href="#DejaVuSans-73" transform="translate(300.244141 0)"/>
      <use xlink:href="#DejaVuSans-20" transform="translate(352.34375 0)"/>
      <use xlink:href="#DejaVuSans-70" transform="translate(384.130859 0)"/>
      <use xlink:href="#DejaVuSans-75" transform="translate(447.607422 0)"/>
      <use xlink:href="#DejaVuSans-62" transform="translate(510.986328 0)"/>
      <use xlink:href="#DejaVuSans-6c" transform="translate(574.462891 0)"/>
      <use xlink:href="#DejaVuSans-69" transform="translate(602.246094 0)"/>
      <use xlink:href="#DejaVuSans-73" transform="translate(630.029297 0)"/>
      <use xlink:href="#DejaVuSans-68" transform="translate(682.128906 0)"/>
      <use xlink:href="#DejaVuSans-65" transform="translate(745.507812 0)"/>
      <use xlink:href="#DejaVuSans-64" transform="translate(807.03125 0)"/>
      <use xlink:href="#DejaVuSans-20" transform="translate(870.507812 0)"/>
      <use xlink:href="#DejaVuSans-74" transform="translate(902.294922 0)"/>
      <use xlink:href="#DejaVuSans-6f" transform="translate(941.503906 0)"/>
      <use xlink:href="#DejaVuSans-20" transform="translate(1002.685547 0)"/>
      <use xlink:href="#DejaVuSans-64" transform="translate(1034.472656 0)"/>
      <use xlink:href="#DejaVuSans-61" transform="translate(1097.949219 0)"/>
      <use xlink:href="#DejaVuSans-74" transform="translate(1159.228516 0)"/>
      <use xlink:href="#DejaVuSans-65" transform="translate(1198.4375 0)"/>
     </g>
    </g>
   </g>
   <g id="matplotlib.axis_2">
    <g id="ytick_1">
     <g id="line2d_8">
      <defs>
       <path id="mf564d05b6c" d="M 0 0 
L -3.5 0 
" style="stroke: #000000; stroke-width: 0.8"/>
      </defs>
      <g>
       <use xlink:href="#mf564d05b6c" x="42.12" y="299.736" style="stroke: #000000; stroke-width: 0.8"/>
      </g>
     </g>
     <g id="text_8">
      <!-- 0 -->
      <g transform="translate(28.7575 303.535219) scale(0.1 -0.1)">
       <use xlink:href="#DejaVuSans-30"/>
      </g>
     </g>
    </g>
    <g id="ytick_2">
     <g id="line2d_9">
      <g>
       <use xlink:href="#mf564d05b6c" x="42.12" y="244.326114" style="stroke: #000000; stroke-width: 0.8"/>
      </g>
     </g>
     <g id="text_9">
      <!-- 50 -->
      <g transform="translate(22.395 248.125333) scale(0.1 -0.1)">
       <use xlink:href="#DejaVuSans-35"/>
       <use xlink:href="#DejaVuSans-30" transform="translate(63.623047 0)"/>
      </g>
     </g>
    </g>
    <g id="ytick_3">
     <g id="line2d_10">
      <g>
       <use xlink:href="#mf564d05b6c" x="42.12" y="188.916228" style="stroke: #000000; stroke-width: 0.8"/>
      </g>
     </g>
     <g id="text_10">
      <!-- 100 -->
      <g transform="translate(16.0325 192.715447) scale(0.1 -0.1)">
       <use xlink:href="#DejaVuSans-31"/>
       <use xlink:href="#DejaVuSans-30" transform="translate(63.623047 0)"/>
       <use xlink:href="#DejaVuSans-30" transform="translate(127.246094 0)"/>
      </g>
     </g>
    </g>
    <g id="ytick_4">
     <g id="line2d_11">
      <g>
       <use xlink:href="#mf564d05b6c" x="42.12" y="133.506342" style="stroke: #000000; stroke-width: 0.8"/>
      </g>
     </g>
     <g id="text_11">
      <!-- 150 -->
      <g transform="translate(16.0325 137.305561) scale(0.1 -0.1)">
       <use xlink:href="#DejaVuSans-31"/>
       <use xlink:href="#DejaVuSans-35" transform="translate(63.623047 0)"/>
       <use xlink:href="#DejaVuSans-30" transform="translate(127.246094 0)"/>
      </g>
     </g>
    </g>
    <g id="ytick_5">
     <g id="line2d_12">
      <g>
       <use xlink:href="#mf564d05b6c" x="42.12" y="78.096456" style="stroke: #000000; stroke-width: 0.8"/>
      </g>
     </g>
     <g id="text_12">
      <!-- 200 -->
      <g transform="translate(16.0325 81.895675) scale(0.1 -0.1)">
       <use xlink:href="#DejaVuSans-32"/>
       <use xlink:href="#DejaVuSans-30" transform="translate(63.623047 0)"/>
       <use xlink:href="#DejaVuSans-30" transform="translate(127.246094 0)"/>
      </g>
     </g>
    </g>
    <g id="ytick_6">
     <g id="line2d_13">
      <g>
       <use xlink:href="#mf564d05b6c" x="42.12" y="22.68657" style="stroke: #000000; stroke-width: 0.8"/>
      </g>
     </g>
     <g id="text_13">
      <!-- 250 -->
      <g transform="translate(16.0325 26.485789) scale(0.1 -0.1)">
       <use xlink:href="#DejaVuSans-32"/>
       <use xlink:href="#DejaVuSans-35" transform="translate(63.623047 0)"/>
       <use xlink:href="#DejaVuSans-30" transform="translate(127.246094 0)"/>
      </g>
     </g>
    </g>
    <g id="text_14">
     <!-- Number with author-provided code (lower bound) -->
     <g transform="translate(9.952812 277.933781) rotate(-90) scale(0.1 -0.1)">
      <defs>
       <path id="DejaVuSans-4e" d="M 628 4666 
L 1478 4666 
L 3547 763 
L 3547 4666 
L 4159 4666 
L 4159 0 
L 3309 0 
L 1241 3903 
L 1241 0 
L 628 0 
L 628 4666 
z
" transform="scale(0.015625)"/>
       <path id="DejaVuSans-6d" d="M 3328 2828 
Q 3544 3216 3844 3400 
Q 4144 3584 4550 3584 
Q 5097 3584 5394 3201 
Q 5691 2819 5691 2113 
L 5691 0 
L 5113 0 
L 5113 2094 
Q 5113 2597 4934 2840 
Q 4756 3084 4391 3084 
Q 3944 3084 3684 2787 
Q 3425 2491 3425 1978 
L 3425 0 
L 2847 0 
L 2847 2094 
Q 2847 2600 2669 2842 
Q 2491 3084 2119 3084 
Q 1678 3084 1418 2786 
Q 1159 2488 1159 1978 
L 1159 0 
L 581 0 
L 581 3500 
L 1159 3500 
L 1159 2956 
Q 1356 3278 1631 3431 
Q 1906 3584 2284 3584 
Q 2666 3584 2933 3390 
Q 3200 3197 3328 2828 
z
" transform="scale(0.015625)"/>
       <path id="DejaVuSans-72" d="M 2631 2963 
Q 2534 3019 2420 3045 
Q 2306 3072 2169 3072 
Q 1681 3072 1420 2755 
Q 1159 2438 1159 1844 
L 1159 0 
L 581 0 
L 581 3500 
L 1159 3500 
L 1159 2956 
Q 1341 3275 1631 3429 
Q 1922 3584 2338 3584 
Q 2397 3584 2469 3576 
Q 2541 3569 2628 3553 
L 2631 2963 
z
" transform="scale(0.015625)"/>
       <path id="DejaVuSans-77" d="M 269 3500 
L 844 3500 
L 1563 769 
L 2278 3500 
L 2956 3500 
L 3675 769 
L 4391 3500 
L 4966 3500 
L 4050 0 
L 3372 0 
L 2619 2869 
L 1863 0 
L 1184 0 
L 269 3500 
z
" transform="scale(0.015625)"/>
       <path id="DejaVuSans-2d" d="M 313 2009 
L 1997 2009 
L 1997 1497 
L 313 1497 
L 313 2009 
z
" transform="scale(0.015625)"/>
       <path id="DejaVuSans-76" d="M 191 3500 
L 800 3500 
L 1894 563 
L 2988 3500 
L 3597 3500 
L 2284 0 
L 1503 0 
L 191 3500 
z
" transform="scale(0.015625)"/>
       <path id="DejaVuSans-63" d="M 3122 3366 
L 3122 2828 
Q 2878 2963 2633 3030 
Q 2388 3097 2138 3097 
Q 1578 3097 1268 2742 
Q 959 2388 959 1747 
Q 959 1106 1268 751 
Q 1578 397 2138 397 
Q 2388 397 2633 464 
Q 2878 531 3122 666 
L 3122 134 
Q 2881 22 2623 -34 
Q 2366 -91 2075 -91 
Q 1284 -91 818 406 
Q 353 903 353 1747 
Q 353 2603 823 3093 
Q 1294 3584 2113 3584 
Q 2378 3584 2631 3529 
Q 2884 3475 3122 3366 
z
" transform="scale(0.015625)"/>
       <path id="DejaVuSans-28" d="M 1984 4856 
Q 1566 4138 1362 3434 
Q 1159 2731 1159 2009 
Q 1159 1288 1364 580 
Q 1569 -128 1984 -844 
L 1484 -844 
Q 1016 -109 783 600 
Q 550 1309 550 2009 
Q 550 2706 781 3412 
Q 1013 4119 1484 4856 
L 1984 4856 
z
" transform="scale(0.015625)"/>
       <path id="DejaVuSans-6e" d="M 3513 2113 
L 3513 0 
L 2938 0 
L 2938 2094 
Q 2938 2591 2744 2837 
Q 2550 3084 2163 3084 
Q 1697 3084 1428 2787 
Q 1159 2491 1159 1978 
L 1159 0 
L 581 0 
L 581 3500 
L 1159 3500 
L 1159 2956 
Q 1366 3272 1645 3428 
Q 1925 3584 2291 3584 
Q 2894 3584 3203 3211 
Q 3513 2838 3513 2113 
z
" transform="scale(0.015625)"/>
       <path id="DejaVuSans-29" d="M 513 4856 
L 1013 4856 
Q 1481 4119 1714 3412 
Q 1947 2706 1947 2009 
Q 1947 1309 1714 600 
Q 1481 -109 1013 -844 
L 513 -844 
Q 928 -128 1133 580 
Q 1338 1288 1338 2009 
Q 1338 2731 1133 3434 
Q 928 4138 513 4856 
z
" transform="scale(0.015625)"/>
      </defs>
      <use xlink:href="#DejaVuSans-4e"/>
      <use xlink:href="#DejaVuSans-75" transform="translate(74.804688 0)"/>
      <use xlink:href="#DejaVuSans-6d" transform="translate(138.183594 0)"/>
      <use xlink:href="#DejaVuSans-62" transform="translate(235.595703 0)"/>
      <use xlink:href="#DejaVuSans-65" transform="translate(299.072266 0)"/>
      <use xlink:href="#DejaVuSans-72" transform="translate(360.595703 0)"/>
      <use xlink:href="#DejaVuSans-20" transform="translate(401.708984 0)"/>
      <use xlink:href="#DejaVuSans-77" transform="translate(433.496094 0)"/>
      <use xlink:href="#DejaVuSans-69" transform="translate(515.283203 0)"/>
      <use xlink:href="#DejaVuSans-74" transform="translate(543.066406 0)"/>
      <use xlink:href="#DejaVuSans-68" transform="translate(582.275391 0)"/>
      <use xlink:href="#DejaVuSans-20" transform="translate(645.654297 0)"/>
      <use xlink:href="#DejaVuSans-61" transform="translate(677.441406 0)"/>
      <use xlink:href="#DejaVuSans-75" transform="translate(738.720703 0)"/>
      <use xlink:href="#DejaVuSans-74" transform="translate(802.099609 0)"/>
      <use xlink:href="#DejaVuSans-68" transform="translate(841.308594 0)"/>
      <use xlink:href="#DejaVuSans-6f" transform="translate(904.6875 0)"/>
      <use xlink:href="#DejaVuSans-72" transform="translate(965.869141 0)"/>
      <use xlink:href="#DejaVuSans-2d" transform="translate(1000.607422 0)"/>
      <use xlink:href="#DejaVuSans-70" transform="translate(1036.691406 0)"/>
      <use xlink:href="#DejaVuSans-72" transform="translate(1100.167969 0)"/>
      <use xlink:href="#DejaVuSans-6f" transform="translate(1139.03125 0)"/>
      <use xlink:href="#DejaVuSans-76" transform="translate(1200.212891 0)"/>
      <use xlink:href="#DejaVuSans-69" transform="translate(1259.392578 0)"/>
      <use xlink:href="#DejaVuSans-64" transform="translate(1287.175781 0)"/>
      <use xlink:href="#DejaVuSans-65" transform="translate(1350.652344 0)"/>
      <use xlink:href="#DejaVuSans-64" transform="translate(1412.175781 0)"/>
      <use xlink:href="#DejaVuSans-20" transform="translate(1475.652344 0)"/>
      <use xlink:href="#DejaVuSans-63" transform="translate(1507.439453 0)"/>
      <use xlink:href="#DejaVuSans-6f" transform="translate(1562.419922 0)"/>
      <use xlink:href="#DejaVuSans-64" transform="translate(1623.601562 0)"/>
      <use xlink:href="#DejaVuSans-65" transform="translate(1687.078125 0)"/>
      <use xlink:href="#DejaVuSans-20" transform="translate(1748.601562 0)"/>
      <use xlink:href="#DejaVuSans-28" transform="translate(1780.388672 0)"/>
      <use xlink:href="#DejaVuSans-6c" transform="translate(1819.402344 0)"/>
      <use xlink:href="#DejaVuSans-6f" transform="translate(1847.185547 0)"/>
      <use xlink:href="#DejaVuSans-77" transform="translate(1908.367188 0)"/>
      <use xlink:href="#DejaVuSans-65" transform="translate(1990.154297 0)"/>
      <use xlink:href="#DejaVuSans-72" transform="translate(2051.677734 0)"/>
      <use xlink:href="#DejaVuSans-20" transform="translate(2092.791016 0)"/>
      <use xlink:href="#DejaVuSans-62" transform="translate(2124.578125 0)"/>
      <use xlink:href="#DejaVuSans-6f" transform="translate(2188.054688 0)"/>
      <use xlink:href="#DejaVuSans-75" transform="translate(2249.236328 0)"/>
      <use xlink:href="#DejaVuSans-6e" transform="translate(2312.615234 0)"/>
      <use xlink:href="#DejaVuSans-64" transform="translate(2375.994141 0)"/>
      <use xlink:href="#DejaVuSans-29" transform="translate(2439.470703 0)"/>
     </g>
    </g>
   </g>
   <g id="line2d_14">
    <path d="M -1 260.182918 
L 19.44 253.191696 
L 42.12 246.54251 
L 64.8 238.785125 
L 87.48 234.352335 
L 110.16 227.703148 
L 132.84 221.053962 
L 155.52 218.837567 
L 178.2 212.18838 
L 200.88 204.430996 
L 223.56 191.132624 
L 246.24 175.617856 
L 268.92 168.968669 
L 291.6 155.670297 
L 314.28 146.804715 
L 336.96 141.263726 
L 359.64 135.722738 
L 382.32 131.289947 
L 405 122.424365 
L 427.68 108.017795 
L 450.36 101.368608 
L 473.04 96.935817 
L 495.72 80.312852 
L 518.4 69.230875 
L 541.08 61.47349 
L 563.76 50.391513 
L 586.44 42.634129 
L 609.12 32.66035 
" clip-path="url(#p15e650ff22)" style="fill: none; stroke: #9467bd; stroke-width: 1.5; stroke-linecap: square"/>
   </g>
   <g id="patch_3">
    <path d="M 42.12 299.736 
L 42.12 8.28 
" style="fill: none; stroke: #000000; stroke-width: 0.8; stroke-linejoin: miter; stroke-linecap: square"/>
   </g>
   <g id="patch_4">
    <path d="M 42.12 299.736 
L 609.12 299.736 
" style="fill: none; stroke: #000000; stroke-width: 0.8; stroke-linejoin: miter; stroke-linecap: square"/>
   </g>
   <g id="line2d_15">
    <path d="M -1 260.182918 
L 19.44 253.191696 
L 42.12 247.650707 
L 64.8 239.893323 
L 87.48 235.460532 
L 110.16 228.811346 
L 132.84 222.16216 
L 155.52 219.945764 
L 178.2 213.296578 
L 200.88 206.647392 
L 223.56 194.457217 
L 246.24 180.050646 
L 268.92 173.40146 
L 291.6 162.319483 
L 314.28 153.453901 
L 336.96 147.912913 
L 359.64 142.371924 
L 382.32 137.939133 
L 405 129.073551 
L 427.68 114.666981 
L 450.36 109.125992 
L 473.04 104.693202 
L 495.72 88.070236 
L 518.4 78.096456 
L 541.08 70.339072 
L 563.76 60.365293 
L 586.44 52.607909 
L 609.12 42.634129 
" clip-path="url(#p15e650ff22)" style="fill: none; stroke: #d62728; stroke-width: 1.5; stroke-linecap: square"/>
   </g>
   <g id="text_15">
    <!-- 55.7% -->
    <g transform="translate(612.522 139.59031) scale(0.1 -0.1)">
     <defs>
      <path id="DejaVuSans-2e" d="M 684 794 
L 1344 794 
L 1344 0 
L 684 0 
L 684 794 
z
" transform="scale(0.015625)"/>
      <path id="DejaVuSans-37" d="M 525 4666 
L 3525 4666 
L 3525 4397 
L 1831 0 
L 1172 0 
L 2766 4134 
L 525 4134 
L 525 4666 
z
" transform="scale(0.015625)"/>
      <path id="DejaVuSans-25" d="M 4653 2053 
Q 4381 2053 4226 1822 
Q 4072 1591 4072 1178 
Q 4072 772 4226 539 
Q 4381 306 4653 306 
Q 4919 306 5073 539 
Q 5228 772 5228 1178 
Q 5228 1588 5073 1820 
Q 4919 2053 4653 2053 
z
M 4653 2450 
Q 5147 2450 5437 2106 
Q 5728 1763 5728 1178 
Q 5728 594 5436 251 
Q 5144 -91 4653 -91 
Q 4153 -91 3862 251 
Q 3572 594 3572 1178 
Q 3572 1766 3864 2108 
Q 4156 2450 4653 2450 
z
M 1428 4353 
Q 1159 4353 1004 4120 
Q 850 3888 850 3481 
Q 850 3069 1003 2837 
Q 1156 2606 1428 2606 
Q 1700 2606 1854 2837 
Q 2009 3069 2009 3481 
Q 2009 3884 1853 4118 
Q 1697 4353 1428 4353 
z
M 4250 4750 
L 4750 4750 
L 1831 -91 
L 1331 -91 
L 4250 4750 
z
M 1428 4750 
Q 1922 4750 2215 4408 
Q 2509 4066 2509 3481 
Q 2509 2891 2217 2550 
Q 1925 2209 1428 2209 
Q 931 2209 642 2551 
Q 353 2894 353 3481 
Q 353 4063 643 4406 
Q 934 4750 1428 4750 
z
" transform="scale(0.015625)"/>
     </defs>
     <use xlink:href="#DejaVuSans-35"/>
     <use xlink:href="#DejaVuSans-35" transform="translate(63.623047 0)"/>
     <use xlink:href="#DejaVuSans-2e" transform="translate(127.246094 0)"/>
     <use xlink:href="#DejaVuSans-37" transform="translate(159.033203 0)"/>
     <use xlink:href="#DejaVuSans-25" transform="translate(222.65625 0)"/>
    </g>
   </g>
   <g id="text_16">
    <!-- 17.8% -->
    <g transform="translate(612.522 87.505018) scale(0.1 -0.1)">
     <defs>
      <path id="DejaVuSans-38" d="M 2034 2216 
Q 1584 2216 1326 1975 
Q 1069 1734 1069 1313 
Q 1069 891 1326 650 
Q 1584 409 2034 409 
Q 2484 409 2743 651 
Q 3003 894 3003 1313 
Q 3003 1734 2745 1975 
Q 2488 2216 2034 2216 
z
M 1403 2484 
Q 997 2584 770 2862 
Q 544 3141 544 3541 
Q 544 4100 942 4425 
Q 1341 4750 2034 4750 
Q 2731 4750 3128 4425 
Q 3525 4100 3525 3541 
Q 3525 3141 3298 2862 
Q 3072 2584 2669 2484 
Q 3125 2378 3379 2068 
Q 3634 1759 3634 1313 
Q 3634 634 3220 271 
Q 2806 -91 2034 -91 
Q 1263 -91 848 271 
Q 434 634 434 1313 
Q 434 1759 690 2068 
Q 947 2378 1403 2484 
z
M 1172 3481 
Q 1172 3119 1398 2916 
Q 1625 2713 2034 2713 
Q 2441 2713 2670 2916 
Q 2900 3119 2900 3481 
Q 2900 3844 2670 4047 
Q 2441 4250 2034 4250 
Q 1625 4250 1398 4047 
Q 1172 3844 1172 3481 
z
" transform="scale(0.015625)"/>
     </defs>
     <use xlink:href="#DejaVuSans-31"/>
     <use xlink:href="#DejaVuSans-37" transform="translate(63.623047 0)"/>
     <use xlink:href="#DejaVuSans-2e" transform="translate(127.246094 0)"/>
     <use xlink:href="#DejaVuSans-38" transform="translate(159.033203 0)"/>
     <use xlink:href="#DejaVuSans-25" transform="translate(222.65625 0)"/>
    </g>
   </g>
   <g id="text_17">
    <!-- 9.5% -->
    <g transform="translate(612.522 59.800075) scale(0.1 -0.1)">
     <defs>
      <path id="DejaVuSans-39" d="M 703 97 
L 703 672 
Q 941 559 1184 500 
Q 1428 441 1663 441 
Q 2288 441 2617 861 
Q 2947 1281 2994 2138 
Q 2813 1869 2534 1725 
Q 2256 1581 1919 1581 
Q 1219 1581 811 2004 
Q 403 2428 403 3163 
Q 403 3881 828 4315 
Q 1253 4750 1959 4750 
Q 2769 4750 3195 4129 
Q 3622 3509 3622 2328 
Q 3622 1225 3098 567 
Q 2575 -91 1691 -91 
Q 1453 -91 1209 -44 
Q 966 3 703 97 
z
M 1959 2075 
Q 2384 2075 2632 2365 
Q 2881 2656 2881 3163 
Q 2881 3666 2632 3958 
Q 2384 4250 1959 4250 
Q 1534 4250 1286 3958 
Q 1038 3666 1038 3163 
Q 1038 2656 1286 2365 
Q 1534 2075 1959 2075 
z
" transform="scale(0.015625)"/>
     </defs>
     <use xlink:href="#DejaVuSans-39"/>
     <use xlink:href="#DejaVuSans-2e" transform="translate(63.623047 0)"/>
     <use xlink:href="#DejaVuSans-35" transform="translate(95.410156 0)"/>
     <use xlink:href="#DejaVuSans-25" transform="translate(159.033203 0)"/>
    </g>
   </g>
   <g id="text_18">
    <!-- 4.9% -->
    <g transform="translate(612.522 45.393504) scale(0.1 -0.1)">
     <defs>
      <path id="DejaVuSans-34" d="M 2419 4116 
L 825 1625 
L 2419 1625 
L 2419 4116 
z
M 2253 4666 
L 3047 4666 
L 3047 1625 
L 3713 1625 
L 3713 1100 
L 3047 1100 
L 3047 0 
L 2419 0 
L 2419 1100 
L 313 1100 
L 313 1709 
L 2253 4666 
z
" transform="scale(0.015625)"/>
     </defs>
     <use xlink:href="#DejaVuSans-34"/>
     <use xlink:href="#DejaVuSans-2e" transform="translate(63.623047 0)"/>
     <use xlink:href="#DejaVuSans-39" transform="translate(95.410156 0)"/>
     <use xlink:href="#DejaVuSans-25" transform="translate(159.033203 0)"/>
    </g>
   </g>
   <g id="text_19">
    <!-- 3.4% -->
    <g transform="translate(612.522 35.419725) scale(0.1 -0.1)">
     <defs>
      <path id="DejaVuSans-33" d="M 2597 2516 
Q 3050 2419 3304 2112 
Q 3559 1806 3559 1356 
Q 3559 666 3084 287 
Q 2609 -91 1734 -91 
Q 1441 -91 1130 -33 
Q 819 25 488 141 
L 488 750 
Q 750 597 1062 519 
Q 1375 441 1716 441 
Q 2309 441 2620 675 
Q 2931 909 2931 1356 
Q 2931 1769 2642 2001 
Q 2353 2234 1838 2234 
L 1294 2234 
L 1294 2753 
L 1863 2753 
Q 2328 2753 2575 2939 
Q 2822 3125 2822 3475 
Q 2822 3834 2567 4026 
Q 2313 4219 1838 4219 
Q 1578 4219 1281 4162 
Q 984 4106 628 3988 
L 628 4550 
Q 988 4650 1302 4700 
Q 1616 4750 1894 4750 
Q 2613 4750 3031 4423 
Q 3450 4097 3450 3541 
Q 3450 3153 3228 2886 
Q 3006 2619 2597 2516 
z
" transform="scale(0.015625)"/>
     </defs>
     <use xlink:href="#DejaVuSans-33"/>
     <use xlink:href="#DejaVuSans-2e" transform="translate(63.623047 0)"/>
     <use xlink:href="#DejaVuSans-34" transform="translate(95.410156 0)"/>
     <use xlink:href="#DejaVuSans-25" transform="translate(159.033203 0)"/>
    </g>
   </g>
   <g id="text_20">
    <!-- 8.7% -->
    <g transform="translate(612.522 9.931177) scale(0.1 -0.1)">
     <use xlink:href="#DejaVuSans-38"/>
     <use xlink:href="#DejaVuSans-2e" transform="translate(63.623047 0)"/>
     <use xlink:href="#DejaVuSans-37" transform="translate(95.410156 0)"/>
     <use xlink:href="#DejaVuSans-25" transform="translate(159.033203 0)"/>
    </g>
   </g>
   <g id="line2d_16">
    <path d="M -1 260.182918 
L 19.44 253.191696 
L 42.12 247.650707 
L 64.8 239.893323 
L 87.48 235.460532 
L 110.16 228.811346 
L 132.84 222.16216 
L 155.52 219.945764 
L 178.2 213.296578 
L 200.88 206.647392 
L 223.56 194.457217 
L 246.24 180.050646 
L 268.92 173.40146 
L 291.6 162.319483 
L 314.28 153.453901 
L 336.96 147.912913 
L 359.64 142.371924 
L 382.32 137.939133 
L 405 129.073551 
L 427.68 115.775179 
L 450.36 110.23419 
L 473.04 105.801399 
L 495.72 93.611224 
L 518.4 83.637445 
L 541.08 76.988259 
L 563.76 71.44727 
L 586.44 64.798084 
L 609.12 57.0407 
" clip-path="url(#p15e650ff22)" style="fill: none; stroke: #2ca02c; stroke-width: 1.5; stroke-linecap: square"/>
   </g>
   <g id="line2d_17">
    <path d="M -1 261.291116 
L 19.44 254.299894 
L 42.12 248.758905 
L 64.8 241.001521 
L 87.48 236.56873 
L 110.16 232.135939 
L 132.84 225.486753 
L 155.52 223.270357 
L 178.2 216.621171 
L 200.88 209.971985 
L 223.56 199.998205 
L 246.24 186.699833 
L 268.92 181.158844 
L 291.6 172.293262 
L 314.28 164.535878 
L 336.96 160.103087 
L 359.64 155.670297 
L 382.32 151.237506 
L 405 144.588319 
L 427.68 133.506342 
L 450.36 129.073551 
L 473.04 126.857156 
L 495.72 117.991574 
L 518.4 108.017795 
L 541.08 101.368608 
L 563.76 95.82762 
L 586.44 89.178433 
L 609.12 84.745643 
" clip-path="url(#p15e650ff22)" style="fill: none; stroke: #ff7f0e; stroke-width: 1.5; stroke-linecap: square"/>
   </g>
   <g id="legend_1">
    <g id="line2d_18">
     <path d="M 60.295 100.183288 
L 70.295 100.183288 
L 80.295 100.183288 
" style="fill: none; stroke: #8c564b; stroke-width: 1.5; stroke-linecap: square"/>
    </g>
    <g id="text_21">
     <!-- Other -->
     <g transform="translate(88.295 103.683288) scale(0.1 -0.1)">
      <defs>
       <path id="DejaVuSans-4f" d="M 2522 4238 
Q 1834 4238 1429 3725 
Q 1025 3213 1025 2328 
Q 1025 1447 1429 934 
Q 1834 422 2522 422 
Q 3209 422 3611 934 
Q 4013 1447 4013 2328 
Q 4013 3213 3611 3725 
Q 3209 4238 2522 4238 
z
M 2522 4750 
Q 3503 4750 4090 4092 
Q 4678 3434 4678 2328 
Q 4678 1225 4090 567 
Q 3503 -91 2522 -91 
Q 1538 -91 948 565 
Q 359 1222 359 2328 
Q 359 3434 948 4092 
Q 1538 4750 2522 4750 
z
" transform="scale(0.015625)"/>
      </defs>
      <use xlink:href="#DejaVuSans-4f"/>
      <use xlink:href="#DejaVuSans-74" transform="translate(78.710938 0)"/>
      <use xlink:href="#DejaVuSans-68" transform="translate(117.919922 0)"/>
      <use xlink:href="#DejaVuSans-65" transform="translate(181.298828 0)"/>
      <use xlink:href="#DejaVuSans-72" transform="translate(242.822266 0)"/>
     </g>
    </g>
    <g id="line2d_19">
     <path d="M 60.295 114.861413 
L 70.295 114.861413 
L 80.295 114.861413 
" style="fill: none; stroke: #9467bd; stroke-width: 1.5; stroke-linecap: square"/>
    </g>
    <g id="text_22">
     <!-- C++ -->
     <g transform="translate(88.295 118.361413) scale(0.1 -0.1)">
      <defs>
       <path id="DejaVuSans-43" d="M 4122 4306 
L 4122 3641 
Q 3803 3938 3442 4084 
Q 3081 4231 2675 4231 
Q 1875 4231 1450 3742 
Q 1025 3253 1025 2328 
Q 1025 1406 1450 917 
Q 1875 428 2675 428 
Q 3081 428 3442 575 
Q 3803 722 4122 1019 
L 4122 359 
Q 3791 134 3420 21 
Q 3050 -91 2638 -91 
Q 1578 -91 968 557 
Q 359 1206 359 2328 
Q 359 3453 968 4101 
Q 1578 4750 2638 4750 
Q 3056 4750 3426 4639 
Q 3797 4528 4122 4306 
z
" transform="scale(0.015625)"/>
       <path id="DejaVuSans-2b" d="M 2944 4013 
L 2944 2272 
L 4684 2272 
L 4684 1741 
L 2944 1741 
L 2944 0 
L 2419 0 
L 2419 1741 
L 678 1741 
L 678 2272 
L 2419 2272 
L 2419 4013 
L 2944 4013 
z
" transform="scale(0.015625)"/>
      </defs>
      <use xlink:href="#DejaVuSans-43"/>
      <use xlink:href="#DejaVuSans-2b" transform="translate(69.824219 0)"/>
      <use xlink:href="#DejaVuSans-2b" transform="translate(153.613281 0)"/>
     </g>
    </g>
    <g id="line2d_20">
     <path d="M 60.295 129.539537 
L 70.295 129.539537 
L 80.295 129.539537 
" style="fill: none; stroke: #d62728; stroke-width: 1.5; stroke-linecap: square"/>
    </g>
    <g id="text_23">
     <!-- Myokit -->
     <g transform="translate(88.295 133.039537) scale(0.1 -0.1)">
      <defs>
       <path id="DejaVuSans-79" d="M 2059 -325 
Q 1816 -950 1584 -1140 
Q 1353 -1331 966 -1331 
L 506 -1331 
L 506 -850 
L 844 -850 
Q 1081 -850 1212 -737 
Q 1344 -625 1503 -206 
L 1606 56 
L 191 3500 
L 800 3500 
L 1894 763 
L 2988 3500 
L 3597 3500 
L 2059 -325 
z
" transform="scale(0.015625)"/>
       <path id="DejaVuSans-6b" d="M 581 4863 
L 1159 4863 
L 1159 1991 
L 2875 3500 
L 3609 3500 
L 1753 1863 
L 3688 0 
L 2938 0 
L 1159 1709 
L 1159 0 
L 581 0 
L 581 4863 
z
" transform="scale(0.015625)"/>
      </defs>
      <use xlink:href="#DejaVuSans-4d"/>
      <use xlink:href="#DejaVuSans-79" transform="translate(86.279297 0)"/>
      <use xlink:href="#DejaVuSans-6f" transform="translate(145.458984 0)"/>
      <use xlink:href="#DejaVuSans-6b" transform="translate(206.640625 0)"/>
      <use xlink:href="#DejaVuSans-69" transform="translate(264.550781 0)"/>
      <use xlink:href="#DejaVuSans-74" transform="translate(292.333984 0)"/>
     </g>
    </g>
    <g id="line2d_21">
     <path d="M 60.295 144.217663 
L 70.295 144.217663 
L 80.295 144.217663 
" style="fill: none; stroke: #2ca02c; stroke-width: 1.5; stroke-linecap: square"/>
    </g>
    <g id="text_24">
     <!-- CellML -->
     <g transform="translate(88.295 147.717663) scale(0.1 -0.1)">
      <defs>
       <path id="DejaVuSans-4c" d="M 628 4666 
L 1259 4666 
L 1259 531 
L 3531 531 
L 3531 0 
L 628 0 
L 628 4666 
z
" transform="scale(0.015625)"/>
      </defs>
      <use xlink:href="#DejaVuSans-43"/>
      <use xlink:href="#DejaVuSans-65" transform="translate(69.824219 0)"/>
      <use xlink:href="#DejaVuSans-6c" transform="translate(131.347656 0)"/>
      <use xlink:href="#DejaVuSans-6c" transform="translate(159.130859 0)"/>
      <use xlink:href="#DejaVuSans-4d" transform="translate(186.914062 0)"/>
      <use xlink:href="#DejaVuSans-4c" transform="translate(273.193359 0)"/>
     </g>
    </g>
    <g id="line2d_22">
     <path d="M 60.295 158.895788 
L 70.295 158.895788 
L 80.295 158.895788 
" style="fill: none; stroke: #ff7f0e; stroke-width: 1.5; stroke-linecap: square"/>
    </g>
    <g id="text_25">
     <!-- Matlab -->
     <g transform="translate(88.295 162.395788) scale(0.1 -0.1)">
      <use xlink:href="#DejaVuSans-4d"/>
      <use xlink:href="#DejaVuSans-61" transform="translate(86.279297 0)"/>
      <use xlink:href="#DejaVuSans-74" transform="translate(147.558594 0)"/>
      <use xlink:href="#DejaVuSans-6c" transform="translate(186.767578 0)"/>
      <use xlink:href="#DejaVuSans-61" transform="translate(214.550781 0)"/>
      <use xlink:href="#DejaVuSans-62" transform="translate(275.830078 0)"/>
     </g>
    </g>
    <g id="line2d_23">
     <path d="M 60.295 173.573913 
L 70.295 173.573913 
L 80.295 173.573913 
" style="fill: none; stroke: #1f77b4; stroke-width: 1.5; stroke-linecap: square"/>
    </g>
    <g id="text_26">
     <!-- None -->
     <g transform="translate(88.295 177.073913) scale(0.1 -0.1)">
      <use xlink:href="#DejaVuSans-4e"/>
      <use xlink:href="#DejaVuSans-6f" transform="translate(74.804688 0)"/>
      <use xlink:href="#DejaVuSans-6e" transform="translate(135.986328 0)"/>
      <use xlink:href="#DejaVuSans-65" transform="translate(199.365234 0)"/>
     </g>
    </g>
   </g>
   <g id="line2d_24">
    <path d="M -1 261.291116 
L 19.44 254.299894 
L 42.12 248.758905 
L 64.8 241.001521 
L 87.48 236.56873 
L 110.16 233.244137 
L 132.84 228.811346 
L 155.52 226.594951 
L 178.2 219.945764 
L 200.88 215.512973 
L 223.56 206.647392 
L 246.24 196.673612 
L 268.92 193.349019 
L 291.6 187.80803 
L 314.28 183.37524 
L 336.96 178.942449 
L 359.64 176.726053 
L 382.32 173.40146 
L 405 167.860471 
L 427.68 160.103087 
L 450.36 156.778494 
L 473.04 155.670297 
L 495.72 150.129308 
L 518.4 145.696517 
L 541.08 143.480122 
L 563.76 141.263726 
L 586.44 136.830935 
L 609.12 136.830935 
" clip-path="url(#p15e650ff22)" style="fill: none; stroke: #1f77b4; stroke-width: 1.5; stroke-linecap: square"/>
   </g>
  </g>
 </g>
 <defs>
  <clipPath id="p15e650ff22">
   <rect x="42.12" y="8.28" width="567" height="291.456"/>
  </clipPath>
 </defs>
</svg>
