<?xml version="1.0" encoding="utf-8" standalone="no"?>
<!DOCTYPE svg PUBLIC "-//W3C//DTD SVG 1.1//EN"
  "http://www.w3.org/Graphics/SVG/1.1/DTD/svg11.dtd">
<svg xmlns:xlink="http://www.w3.org/1999/xlink" width="648pt" height="165.6pt" viewBox="0 0 648 165.6" xmlns="http://www.w3.org/2000/svg" version="1.1">
 <metadata>
  <rdf:RDF xmlns:dc="http://purl.org/dc/elements/1.1/" xmlns:cc="http://creativecommons.org/ns#" xmlns:rdf="http://www.w3.org/1999/02/22-rdf-syntax-ns#">
   <cc:Work>
    <dc:type rdf:resource="http://purl.org/dc/dcmitype/StillImage"/>
    <dc:date>2026-02-24T16:03:24.522892</dc:date>
    <dc:format>image/svg+xml</dc:format>
    <dc:creator>
     <cc:Agent>
      <dc:title>Matplotlib v3.10.8, https://matplotlib.org/</dc:title>
     </cc:Agent>
    </dc:creator>
   </cc:Work>
  </rdf:RDF>
 </metadata>
 <defs>
  <style type="text/css">*{stroke-linejoin: round; stroke-linecap: butt}</style>
 </defs>
 <g id="figure_1">
  <g id="patch_1">
   <path d="M 0 165.6 
L 648 165.6 
L 648 0 
L 0 0 
z
" style="fill: #ffffff"/>
  </g>
  <g id="axes_1">
   <g id="patch_2">
    <path d="M -891.742829 80.820878 
C -891.742829 73.135385 -893.256704 65.524623 -896.197815 58.424153 
C -899.138926 51.323683 -903.450076 44.871591 -908.884541 39.437126 
C -914.319005 34.002661 -920.771097 29.691511 -927.871567 26.7504 
C -934.972038 23.809289 -942.582799 22.295415 -950.268293 22.295415 
C -957.953786 22.295415 -965.564548 23.809289 -972.665018 26.7504 
C -979.765488 29.691511 -986.21758 34.002661 -991.652045 39.437126 
C -997.086509 44.871591 -1001.397659 51.323683 -1004.33877 58.424153 
C -1007.279881 65.524623 -1008.793756 73.135385 -1008.793756 80.820878 
C -1008.793756 88.506371 -1007.279881 96.117133 -1004.33877 103.217603 
C -1001.397659 110.318073 -997.086509 116.770166 -991.652045 122.20463 
C -986.21758 127.639095 -979.765488 131.950245 -972.665018 134.891356 
C -965.564548 137.832467 -957.953786 139.346341 -950.268293 139.346341 
C -942.582799 139.346341 -934.972038 137.832467 -927.871567 134.891356 
C -920.771097 131.950245 -914.319005 127.639095 -908.884541 122.20463 
C -903.450076 116.770166 -899.138926 110.318073 -896.197815 103.217603 
C -893.256704 96.117133 -891.742829 88.506371 -891.742829 80.820878 
M -950.268293 80.820878 
z
" style="fill: #1f77b4"/>
   </g>
   <g id="patch_3">
    <path d="M -891.742829 80.820868 
C -891.742829 80.820868 -891.742829 80.820868 -891.742829 80.820868 
L -950.268293 80.820878 
z
" style="fill: #ff7f0e"/>
   </g>
   <g id="patch_4">
    <path d="M -891.742829 80.820868 
C -891.742829 80.820868 -891.742829 80.820868 -891.742829 80.820868 
L -950.268293 80.820878 
z
" style="fill: #2ca02c"/>
   </g>
   <g id="patch_5">
    <path d="M -891.742829 80.820868 
C -891.742829 80.820868 -891.742829 80.820868 -891.742829 80.820868 
L -950.268293 80.820878 
z
" style="fill: #d62728"/>
   </g>
   <g id="patch_6">
    <path d="M -891.742829 80.820868 
C -891.742829 80.820868 -891.742829 80.820868 -891.742829 80.820868 
L -950.268293 80.820878 
z
" style="fill: #9467bd"/>
   </g>
   <g id="patch_7">
    <path d="M -891.742829 80.820868 
C -891.742829 80.820868 -891.742829 80.820868 -891.742829 80.820868 
L -950.268293 80.820878 
z
" style="fill: #8c564b"/>
   </g>
   <g id="patch_8">
    <path d="M -764.513561 80.820878 
C -764.513561 73.135385 -766.027436 65.524623 -768.968547 58.424153 
C -771.909658 51.323683 -776.220808 44.871591 -781.655272 39.437126 
C -787.089737 34.002661 -793.541829 29.691511 -800.642299 26.7504 
C -807.742769 23.809289 -815.353531 22.295415 -823.039024 22.295415 
C -830.724518 22.295415 -838.33528 23.809289 -845.43575 26.7504 
C -852.53622 29.691511 -858.988312 34.002661 -864.422776 39.437126 
C -869.857241 44.871591 -874.168391 51.323683 -877.109502 58.424153 
C -880.050613 65.524623 -881.564488 73.135385 -881.564488 80.820878 
C -881.564488 88.506371 -880.050613 96.117133 -877.109502 103.217603 
C -874.168391 110.318073 -869.857241 116.770166 -864.422776 122.20463 
C -858.988312 127.639095 -852.53622 131.950245 -845.43575 134.891356 
C -838.33528 137.832467 -830.724518 139.346341 -823.039024 139.346341 
C -815.353531 139.346341 -807.742769 137.832467 -800.642299 134.891356 
C -793.541829 131.950245 -787.089737 127.639095 -781.655272 122.20463 
C -776.220808 116.770166 -771.909658 110.318073 -768.968547 103.217603 
C -766.027436 96.117133 -764.513561 88.506371 -764.513561 80.820878 
M -823.039024 80.820878 
z
" style="fill: #1f77b4"/>
   </g>
   <g id="patch_9">
    <path d="M -764.513561 80.820868 
C -764.513561 80.820868 -764.513561 80.820868 -764.513561 80.820868 
L -823.039024 80.820878 
z
" style="fill: #ff7f0e"/>
   </g>
   <g id="patch_10">
    <path d="M -764.513561 80.820868 
C -764.513561 80.820868 -764.513561 80.820868 -764.513561 80.820868 
L -823.039024 80.820878 
z
" style="fill: #2ca02c"/>
   </g>
   <g id="patch_11">
    <path d="M -764.513561 80.820868 
C -764.513561 80.820868 -764.513561 80.820868 -764.513561 80.820868 
L -823.039024 80.820878 
z
" style="fill: #d62728"/>
   </g>
   <g id="patch_12">
    <path d="M -764.513561 80.820868 
C -764.513561 80.820868 -764.513561 80.820868 -764.513561 80.820868 
L -823.039024 80.820878 
z
" style="fill: #9467bd"/>
   </g>
   <g id="patch_13">
    <path d="M -764.513561 80.820868 
C -764.513561 80.820868 -764.513561 80.820868 -764.513561 80.820868 
L -823.039024 80.820878 
z
" style="fill: #8c564b"/>
   </g>
   <g id="patch_14">
    <path d="M -510.055024 80.820878 
C -510.055024 73.135385 -511.568899 65.524623 -514.51001 58.424153 
C -517.451121 51.323683 -521.762271 44.871591 -527.196736 39.437126 
C -532.6312 34.002661 -539.083292 29.691511 -546.183763 26.7504 
C -553.284233 23.809289 -560.894994 22.295415 -568.580488 22.295415 
C -576.265981 22.295415 -583.876743 23.809289 -590.977213 26.7504 
C -598.077683 29.691511 -604.529775 34.002661 -609.96424 39.437126 
C -615.398704 44.871591 -619.709855 51.323683 -622.650966 58.424153 
C -625.592077 65.524623 -627.105951 73.135385 -627.105951 80.820878 
C -627.105951 88.506371 -625.592077 96.117133 -622.650966 103.217603 
C -619.709855 110.318073 -615.398704 116.770166 -609.96424 122.20463 
C -604.529775 127.639095 -598.077683 131.950245 -590.977213 134.891356 
C -583.876743 137.832467 -576.265981 139.346341 -568.580488 139.346341 
C -560.894994 139.346341 -553.284233 137.832467 -546.183763 134.891356 
C -539.083292 131.950245 -532.6312 127.639095 -527.196736 122.20463 
C -521.762271 116.770166 -517.451121 110.318073 -514.51001 103.217603 
C -511.568899 96.117133 -510.055024 88.506371 -510.055024 80.820878 
M -568.580488 80.820878 
z
" style="fill: #1f77b4"/>
   </g>
   <g id="patch_15">
    <path d="M -510.055024 80.820868 
C -510.055024 80.820868 -510.055024 80.820868 -510.055024 80.820868 
L -568.580488 80.820878 
z
" style="fill: #ff7f0e"/>
   </g>
   <g id="patch_16">
    <path d="M -510.055024 80.820868 
C -510.055024 80.820868 -510.055024 80.820868 -510.055024 80.820868 
L -568.580488 80.820878 
z
" style="fill: #2ca02c"/>
   </g>
   <g id="patch_17">
    <path d="M -510.055024 80.820868 
C -510.055024 80.820868 -510.055024 80.820868 -510.055024 80.820868 
L -568.580488 80.820878 
z
" style="fill: #d62728"/>
   </g>
   <g id="patch_18">
    <path d="M -510.055024 80.820868 
C -510.055024 80.820868 -510.055024 80.820868 -510.055024 80.820868 
L -568.580488 80.820878 
z
" style="fill: #9467bd"/>
   </g>
   <g id="patch_19">
    <path d="M -510.055024 80.820868 
C -510.055024 80.820868 -510.055024 80.820868 -510.055024 80.820868 
L -568.580488 80.820878 
z
" style="fill: #8c564b"/>
   </g>
   <g id="patch_20">
    <path d="M -382.825756 80.820878 
C -382.825756 73.135385 -384.339631 65.524623 -387.280742 58.424153 
C -390.221853 51.323683 -394.533003 44.871591 -399.967467 39.437126 
C -405.401932 34.002661 -411.854024 29.691511 -418.954494 26.7504 
C -426.054964 23.809289 -433.665726 22.295415 -441.35122 22.295415 
C -449.036713 22.295415 -456.647475 23.809289 -463.747945 26.7504 
C -470.848415 29.691511 -477.300507 34.002661 -482.734972 39.437126 
C -488.169436 44.871591 -492.480586 51.323683 -495.421697 58.424153 
C -498.362808 65.524623 -499.876683 73.135385 -499.876683 80.820878 
C -499.876683 88.506371 -498.362808 96.117133 -495.421697 103.217603 
C -492.480586 110.318073 -488.169436 116.770166 -482.734972 122.20463 
C -477.300507 127.639095 -470.848415 131.950245 -463.747945 134.891356 
C -456.647475 137.832467 -449.036713 139.346341 -441.35122 139.346341 
C -433.665726 139.346341 -426.054964 137.832467 -418.954494 134.891356 
C -411.854024 131.950245 -405.401932 127.639095 -399.967467 122.20463 
C -394.533003 116.770166 -390.221853 110.318073 -387.280742 103.217603 
C -384.339631 96.117133 -382.825756 88.506371 -382.825756 80.820878 
M -441.35122 80.820878 
z
" style="fill: #1f77b4"/>
   </g>
   <g id="patch_21">
    <path d="M -382.825756 80.820868 
C -382.825756 80.820868 -382.825756 80.820868 -382.825756 80.820868 
L -441.35122 80.820878 
z
" style="fill: #ff7f0e"/>
   </g>
   <g id="patch_22">
    <path d="M -382.825756 80.820868 
C -382.825756 80.820868 -382.825756 80.820868 -382.825756 80.820868 
L -441.35122 80.820878 
z
" style="fill: #2ca02c"/>
   </g>
   <g id="patch_23">
    <path d="M -382.825756 80.820868 
C -382.825756 80.820868 -382.825756 80.820868 -382.825756 80.820868 
L -441.35122 80.820878 
z
" style="fill: #d62728"/>
   </g>
   <g id="patch_24">
    <path d="M -382.825756 80.820868 
C -382.825756 80.820868 -382.825756 80.820868 -382.825756 80.820868 
L -441.35122 80.820878 
z
" style="fill: #9467bd"/>
   </g>
   <g id="patch_25">
    <path d="M -382.825756 80.820868 
C -382.825756 80.820868 -382.825756 80.820868 -382.825756 80.820868 
L -441.35122 80.820878 
z
" style="fill: #8c564b"/>
   </g>
   <g id="patch_26">
    <path d="M -255.596488 80.820878 
C -255.596488 73.135385 -257.110362 65.524623 -260.051473 58.424153 
C -262.992584 51.323683 -267.303735 44.871591 -272.738199 39.437126 
C -278.172664 34.002661 -284.624756 29.691511 -291.725226 26.7504 
C -298.825696 23.809289 -306.436458 22.295415 -314.121951 22.295415 
C -321.807445 22.295415 -329.418206 23.809289 -336.518676 26.7504 
C -343.619147 29.691511 -350.071239 34.002661 -355.505703 39.437126 
C -360.940168 44.871591 -365.251318 51.323683 -368.192429 58.424153 
C -371.13354 65.524623 -372.647415 73.135385 -372.647415 80.820878 
C -372.647415 88.506371 -371.13354 96.117133 -368.192429 103.217603 
C -365.251318 110.318073 -360.940168 116.770166 -355.505703 122.20463 
C -350.071239 127.639095 -343.619147 131.950245 -336.518676 134.891356 
C -329.418206 137.832467 -321.807445 139.346341 -314.121951 139.346341 
C -306.436458 139.346341 -298.825696 137.832467 -291.725226 134.891356 
C -284.624756 131.950245 -278.172664 127.639095 -272.738199 122.20463 
C -267.303735 116.770166 -262.992584 110.318073 -260.051473 103.217603 
C -257.110362 96.117133 -255.596488 88.506371 -255.596488 80.820878 
M -314.121951 80.820878 
z
" style="fill: #1f77b4"/>
   </g>
   <g id="patch_27">
    <path d="M -255.596488 80.820868 
C -255.596488 80.820868 -255.596488 80.820868 -255.596488 80.820868 
L -314.121951 80.820878 
z
" style="fill: #ff7f0e"/>
   </g>
   <g id="patch_28">
    <path d="M -255.596488 80.820868 
C -255.596488 80.820868 -255.596488 80.820868 -255.596488 80.820868 
L -314.121951 80.820878 
z
" style="fill: #2ca02c"/>
   </g>
   <g id="patch_29">
    <path d="M -255.596488 80.820868 
C -255.596488 80.820868 -255.596488 80.820868 -255.596488 80.820868 
L -314.121951 80.820878 
z
" style="fill: #d62728"/>
   </g>
   <g id="patch_30">
    <path d="M -255.596488 80.820868 
C -255.596488 80.820868 -255.596488 80.820868 -255.596488 80.820868 
L -314.121951 80.820878 
z
" style="fill: #9467bd"/>
   </g>
   <g id="patch_31">
    <path d="M -255.596488 80.820868 
C -255.596488 80.820868 -255.596488 80.820868 -255.596488 80.820868 
L -314.121951 80.820878 
z
" style="fill: #8c564b"/>
   </g>
   <g id="patch_32">
    <path d="M -128.36722 80.820878 
C -128.36722 73.135385 -129.881094 65.524623 -132.822205 58.424153 
C -135.763316 51.323683 -140.074466 44.871591 -145.508931 39.437126 
C -150.943395 34.002661 -157.395488 29.691511 -164.495958 26.7504 
C -171.596428 23.809289 -179.207189 22.295415 -186.892683 22.295415 
C -194.578176 22.295415 -202.188938 23.809289 -209.289408 26.7504 
C -216.389878 29.691511 -222.84197 34.002661 -228.276435 39.437126 
C -233.7109 44.871591 -238.02205 51.323683 -240.963161 58.424153 
C -243.904272 65.524623 -245.418146 73.135385 -245.418146 80.820878 
C -245.418146 88.506371 -243.904272 96.117133 -240.963161 103.217603 
C -238.02205 110.318073 -233.7109 116.770166 -228.276435 122.20463 
C -222.84197 127.639095 -216.389878 131.950245 -209.289408 134.891356 
C -202.188938 137.832467 -194.578176 139.346341 -186.892683 139.346341 
C -179.207189 139.346341 -171.596428 137.832467 -164.495958 134.891356 
C -157.395488 131.950245 -150.943395 127.639095 -145.508931 122.20463 
C -140.074466 116.770166 -135.763316 110.318073 -132.822205 103.217603 
C -129.881094 96.117133 -128.36722 88.506371 -128.36722 80.820878 
M -186.892683 80.820878 
z
" style="fill: #1f77b4"/>
   </g>
   <g id="patch_33">
    <path d="M -128.36722 80.820868 
C -128.36722 80.820868 -128.36722 80.820868 -128.36722 80.820868 
L -186.892683 80.820878 
z
" style="fill: #ff7f0e"/>
   </g>
   <g id="patch_34">
    <path d="M -128.36722 80.820868 
C -128.36722 80.820868 -128.36722 80.820868 -128.36722 80.820868 
L -186.892683 80.820878 
z
" style="fill: #2ca02c"/>
   </g>
   <g id="patch_35">
    <path d="M -128.36722 80.820868 
C -128.36722 80.820868 -128.36722 80.820868 -128.36722 80.820868 
L -186.892683 80.820878 
z
" style="fill: #d62728"/>
   </g>
   <g id="patch_36">
    <path d="M -128.36722 80.820868 
C -128.36722 80.820868 -128.36722 80.820868 -128.36722 80.820868 
L -186.892683 80.820878 
z
" style="fill: #9467bd"/>
   </g>
   <g id="patch_37">
    <path d="M -128.36722 80.820868 
C -128.36722 80.820868 -128.36722 80.820868 -128.36722 80.820868 
L -186.892683 80.820878 
z
" style="fill: #8c564b"/>
   </g>
   <g id="patch_38">
    <path d="M -1.137951 80.820878 
C -1.137951 73.564851 -2.487362 66.371698 -5.117222 59.609024 
C -7.747082 52.84635 -11.611816 46.631352 -16.513917 41.281648 
C -21.416018 35.931944 -27.270531 31.540244 -33.778264 28.330985 
C -40.285997 25.121727 -47.334169 23.150526 -54.562584 22.518122 
C -61.791 21.885717 -69.07439 22.603069 -76.040537 24.633515 
C -83.006685 26.663962 -89.534866 29.972317 -95.291459 34.389506 
C -101.048053 38.806696 -105.933295 44.256169 -109.697528 50.459433 
C -113.461761 56.662696 -116.039749 63.512246 -117.299745 70.658038 
C -118.559741 77.80383 -118.479908 85.122025 -117.064328 92.23863 
C -115.648747 99.355234 -112.92195 106.146916 -109.02329 112.266587 
C -105.124629 118.386258 -100.12167 123.727863 -94.270086 128.018422 
C -88.418502 132.308981 -81.819703 135.474137 -74.810919 137.352135 
C -67.802135 139.230133 -60.50483 139.788427 -53.29193 138.998486 
C -46.079031 138.208545 -39.075538 136.084059 -32.639363 132.733598 
C -26.203189 129.383138 -20.445873 124.864767 -15.661641 119.409397 
C -10.87741 113.954028 -7.149176 107.6562 -4.667469 100.837765 
L -59.663415 80.820878 
z
" style="fill: #1f77b4"/>
   </g>
   <g id="patch_39">
    <path d="M -4.667472 100.837778 
C -4.667472 100.837778 -4.667472 100.837778 -4.667472 100.837778 
L -59.663415 80.820878 
z
" style="fill: #ff7f0e"/>
   </g>
   <g id="patch_40">
    <path d="M -4.667472 100.837778 
C -3.502197 97.636211 -2.618713 94.339009 -2.027086 90.983733 
C -1.435459 87.628457 -1.137951 84.227905 -1.137951 80.820868 
L -59.663415 80.820878 
z
" style="fill: #2ca02c"/>
   </g>
   <g id="patch_41">
    <path d="M -1.137951 80.820868 
C -1.137951 80.820868 -1.137951 80.820868 -1.137951 80.820868 
L -59.663415 80.820878 
z
" style="fill: #d62728"/>
   </g>
   <g id="patch_42">
    <path d="M -1.137951 80.820868 
C -1.137951 80.820868 -1.137951 80.820868 -1.137951 80.820868 
L -59.663415 80.820878 
z
" style="fill: #9467bd"/>
   </g>
   <g id="patch_43">
    <path d="M -1.137951 80.820868 
C -1.137951 80.820868 -1.137951 80.820868 -1.137951 80.820868 
L -59.663415 80.820878 
z
" style="fill: #8c564b"/>
   </g>
   <g id="patch_44">
    <path d="M 126.091317 80.820878 
C 126.091317 70.98081 123.609655 61.297838 118.876693 52.670787 
C 114.143731 44.043737 107.310591 36.748067 99.011562 31.461003 
C 90.712533 26.173938 81.212602 23.064293 71.393602 22.420722 
C 61.574603 21.777151 51.750054 23.620202 42.831924 27.778795 
C 33.913794 31.937387 26.186836 38.278737 20.368309 46.214207 
C 14.549782 54.149676 10.82547 63.425888 9.541084 73.181772 
C 8.256697 82.937657 9.453246 92.861712 13.019661 102.032732 
C 16.586076 111.203753 22.408482 119.32891 29.946411 125.653984 
L 67.565854 80.820878 
z
" style="fill: #1f77b4"/>
   </g>
   <g id="patch_45">
    <path d="M 29.946416 125.653991 
C 33.864422 128.941585 38.196534 131.701445 42.831929 133.862963 
C 47.467323 136.024481 52.366128 137.56907 57.403016 138.45721 
L 67.565854 80.820878 
z
" style="fill: #ff7f0e"/>
   </g>
   <g id="patch_46">
    <path d="M 57.403016 138.45721 
C 60.758288 139.048834 64.158822 139.346341 67.565854 139.346341 
C 70.972887 139.346341 74.373421 139.048831 77.728693 138.457207 
L 67.565854 80.820878 
z
" style="fill: #2ca02c"/>
   </g>
   <g id="patch_47">
    <path d="M 77.728693 138.457207 
C 77.728693 138.457207 77.728693 138.457207 77.728693 138.457207 
L 67.565854 80.820878 
z
" style="fill: #d62728"/>
   </g>
   <g id="patch_48">
    <path d="M 77.728693 138.457207 
C 79.405531 138.161534 81.068667 137.792826 82.713355 137.352134 
C 84.358043 136.911442 85.982717 136.399183 87.582736 135.816824 
L 67.565854 80.820878 
z
" style="fill: #9467bd"/>
   </g>
   <g id="patch_49">
    <path d="M 87.582736 135.816824 
C 98.86742 131.709535 108.619091 124.226817 115.507118 114.389692 
C 122.395145 104.552566 126.091317 92.829778 126.091317 80.820868 
L 67.565854 80.820878 
z
" style="fill: #8c564b"/>
   </g>
   <g id="patch_50">
    <path d="M 253.320585 80.820878 
C 253.320585 71.320912 251.007506 61.962269 246.581842 53.556149 
C 242.156179 45.150028 235.749606 37.946533 227.917439 32.570054 
C 220.085272 27.193576 211.060538 23.804078 201.625491 22.695359 
C 192.190444 21.586641 182.625802 22.791688 173.760618 26.20605 
C 164.895433 29.620411 156.993468 35.1425 150.739657 42.293669 
C 144.485846 49.444837 140.066255 58.012318 137.863971 67.253493 
C 135.661687 76.494668 135.742233 86.134586 138.098627 95.337671 
C 140.45502 104.540756 145.017154 113.033191 151.389586 120.078862 
L 194.795122 80.820878 
z
" style="fill: #1f77b4"/>
   </g>
   <g id="patch_51">
    <path d="M 151.389584 120.078861 
C 156.655301 125.900895 163.038963 130.60441 170.159702 133.908786 
C 177.280442 137.213163 184.993775 139.051346 192.839477 139.313659 
L 194.795122 80.820878 
z
" style="fill: #ff7f0e"/>
   </g>
   <g id="patch_52">
    <path d="M 192.839477 139.313659 
C 196.752547 139.444491 200.668889 139.182317 204.529607 138.531098 
C 208.390325 137.879878 212.17597 136.842885 215.829612 135.435714 
L 194.795122 80.820878 
z
" style="fill: #2ca02c"/>
   </g>
   <g id="patch_53">
    <path d="M 215.829612 135.435714 
C 215.829612 135.435714 215.829612 135.435714 215.829612 135.435714 
L 194.795122 80.820878 
z
" style="fill: #d62728"/>
   </g>
   <g id="patch_54">
    <path d="M 215.829612 135.435714 
C 219.483253 134.028543 222.986484 132.258279 226.286624 130.15155 
C 229.586763 128.044821 232.667188 125.612235 235.481569 122.89038 
L 194.795122 80.820878 
z
" style="fill: #9467bd"/>
   </g>
   <g id="patch_55">
    <path d="M 235.481569 122.89038 
C 241.124398 117.433064 245.611984 110.895787 248.676576 103.668608 
C 251.741168 96.441429 253.320578 88.671008 253.320585 80.820924 
L 194.795122 80.820878 
z
" style="fill: #8c564b"/>
   </g>
   <g id="patch_56">
    <path d="M 380.549854 80.820878 
C 380.549854 66.524589 375.311521 52.712242 365.831327 42.011316 
C 356.351133 31.31039 343.270905 24.445357 329.078851 22.722131 
C 314.886798 20.998904 300.543747 24.53415 288.778133 32.655369 
C 277.012518 40.776589 268.620892 52.93396 265.199568 66.814826 
L 322.02439 80.820878 
z
" style="fill: #1f77b4"/>
   </g>
   <g id="patch_57">
    <path d="M 265.199566 66.814831 
C 263.312835 74.469601 262.992155 82.427262 264.256818 90.209027 
C 265.521478 97.990792 268.345601 105.437385 272.559254 112.100743 
C 276.772908 118.764101 282.289859 124.507856 288.778148 128.986397 
C 295.266437 133.464938 302.593267 136.586607 310.317799 138.163582 
L 322.02439 80.820878 
z
" style="fill: #ff7f0e"/>
   </g>
   <g id="patch_58">
    <path d="M 310.317799 138.163582 
C 319.60085 140.058726 329.206731 139.671627 338.307184 137.03565 
C 347.407637 134.399673 355.733353 129.592818 362.566404 123.029585 
L 322.02439 80.820878 
z
" style="fill: #2ca02c"/>
   </g>
   <g id="patch_59">
    <path d="M 362.566404 123.029585 
C 362.566404 123.029585 362.566404 123.029585 362.566404 123.029585 
L 322.02439 80.820878 
z
" style="fill: #d62728"/>
   </g>
   <g id="patch_60">
    <path d="M 362.566404 123.029585 
C 364.834342 120.851201 366.923025 118.493566 368.812156 115.979588 
C 370.701286 113.46561 372.38473 110.803453 373.846128 108.018993 
L 322.02439 80.820878 
z
" style="fill: #9467bd"/>
   </g>
   <g id="patch_61">
    <path d="M 373.846128 108.018993 
C 376.039697 103.839492 377.719612 99.409914 378.849218 94.826906 
C 379.978825 90.243899 380.549854 85.541034 380.549854 80.820868 
L 322.02439 80.820878 
z
" style="fill: #8c564b"/>
   </g>
   <g id="patch_62">
    <path d="M 507.779122 80.820878 
C 507.779122 65.304913 501.608855 50.40857 490.637411 39.437126 
C 479.665967 28.465682 464.769624 22.295415 449.253659 22.295415 
C 433.737694 22.295415 418.841351 28.465682 407.869906 39.437126 
C 396.898462 50.40857 390.728195 65.304913 390.728195 80.820878 
L 449.253659 80.820878 
z
" style="fill: #1f77b4"/>
   </g>
   <g id="patch_63">
    <path d="M 390.728195 80.820883 
C 390.728195 92.188897 394.040393 103.314366 400.258109 112.831285 
C 406.475825 122.348205 415.333732 129.850464 425.744258 134.41694 
L 449.253659 80.820878 
z
" style="fill: #ff7f0e"/>
   </g>
   <g id="patch_64">
    <path d="M 425.744258 134.41694 
C 436.154781 138.983416 447.673675 140.419244 458.886641 138.548128 
C 470.099608 136.677012 480.528162 131.578804 488.891879 123.879457 
L 449.253659 80.820878 
z
" style="fill: #2ca02c"/>
   </g>
   <g id="patch_65">
    <path d="M 488.891879 123.879457 
C 490.07865 122.786957 491.219744 121.645863 492.312245 120.459092 
C 493.404746 119.272321 494.447715 118.040888 495.43848 116.767953 
L 449.253659 80.820878 
z
" style="fill: #d62728"/>
   </g>
   <g id="patch_66">
    <path d="M 495.43848 116.767953 
C 496.429246 115.495019 497.36696 114.181665 498.249222 112.831261 
C 499.131485 111.480856 499.957539 110.094553 500.725274 108.675903 
L 449.253659 80.820878 
z
" style="fill: #9467bd"/>
   </g>
   <g id="patch_67">
    <path d="M 500.725274 108.675903 
C 503.031093 104.41512 504.798956 99.884478 505.98826 95.18803 
C 507.177563 90.491581 507.779122 85.665563 507.779122 80.820868 
L 449.253659 80.820878 
z
" style="fill: #8c564b"/>
   </g>
   <g id="patch_68">
    <path d="M 635.00839 80.820878 
C 635.00839 70.747981 632.4079 60.843629 627.459543 52.069975 
C 622.511186 43.29632 615.380559 35.946973 606.760363 30.735883 
C 598.140166 25.524792 588.318876 22.626347 578.250574 22.322115 
C 568.182272 22.017883 558.203896 24.318045 549.284789 28.999153 
L 576.482927 80.820878 
z
" style="fill: #1f77b4"/>
   </g>
   <g id="patch_69">
    <path d="M 549.284795 28.99915 
C 540.365688 33.680259 532.804325 40.585655 527.335255 49.044528 
C 521.866186 57.5034 518.672426 67.23267 518.06424 77.287188 
C 517.456049 87.341707 519.453787 97.385004 523.863373 106.441426 
C 528.272959 115.497848 534.946834 123.264322 543.236664 128.986383 
L 576.482927 80.820878 
z
" style="fill: #ff7f0e"/>
   </g>
   <g id="patch_70">
    <path d="M 543.236664 128.986383 
C 546.148586 130.996337 549.236788 132.738093 552.463318 134.190237 
C 555.689848 135.64238 559.041428 136.798938 562.476862 137.645696 
L 576.482927 80.820878 
z
" style="fill: #2ca02c"/>
   </g>
   <g id="patch_71">
    <path d="M 562.476862 137.645696 
C 574.00677 140.487561 586.133057 139.754057 597.23635 135.543135 
C 608.339642 131.33221 617.902682 123.840046 624.648435 114.067134 
L 576.482927 80.820878 
z
" style="fill: #d62728"/>
   </g>
   <g id="patch_72">
    <path d="M 624.648435 114.067134 
C 625.987897 112.126589 627.208864 110.10687 628.304651 108.019019 
C 629.400438 105.931169 630.369052 103.779003 631.205188 101.574292 
L 576.482927 80.820878 
z
" style="fill: #9467bd"/>
   </g>
   <g id="patch_73">
    <path d="M 631.205188 101.574292 
C 632.459867 98.265972 633.411953 94.850675 634.049739 91.370382 
C 634.687525 87.890089 635.00839 84.359117 635.00839 80.820868 
L 576.482927 80.820878 
z
" style="fill: #8c564b"/>
   </g>
   <g id="matplotlib.axis_1"/>
   <g id="matplotlib.axis_2"/>
   <g id="text_1">
    <!-- 100.0 % -->
    <g transform="translate(-1006.037477 83.580256) scale(0.1 -0.1)">
     <defs>
      <path id="DejaVuSans-31" d="M 794 531 
L 1825 531 
L 1825 4091 
L 703 3866 
L 703 4441 
L 1819 4666 
L 2450 4666 
L 2450 531 
L 3481 531 
L 3481 0 
L 794 0 
L 794 531 
z
" transform="scale(0.015625)"/>
      <path id="DejaVuSans-30" d="M 2034 4250 
Q 1547 4250 1301 3770 
Q 1056 3291 1056 2328 
Q 1056 1369 1301 889 
Q 1547 409 2034 409 
Q 2525 409 2770 889 
Q 3016 1369 3016 2328 
Q 3016 3291 2770 3770 
Q 2525 4250 2034 4250 
z
M 2034 4750 
Q 2819 4750 3233 4129 
Q 3647 3509 3647 2328 
Q 3647 1150 3233 529 
Q 2819 -91 2034 -91 
Q 1250 -91 836 529 
Q 422 1150 422 2328 
Q 422 3509 836 4129 
Q 1250 4750 2034 4750 
z
" transform="scale(0.015625)"/>
      <path id="DejaVuSans-2e" d="M 684 794 
L 1344 794 
L 1344 0 
L 684 0 
L 684 794 
z
" transform="scale(0.015625)"/>
      <path id="DejaVuSans-20" transform="scale(0.015625)"/>
      <path id="DejaVuSans-25" d="M 4653 2053 
Q 4381 2053 4226 1822 
Q 4072 1591 4072 1178 
Q 4072 772 4226 539 
Q 4381 306 4653 306 
Q 4919 306 5073 539 
Q 5228 772 5228 1178 
Q 5228 1588 5073 1820 
Q 4919 2053 4653 2053 
z
M 4653 2450 
Q 5147 2450 5437 2106 
Q 5728 1763 5728 1178 
Q 5728 594 5436 251 
Q 5144 -91 4653 -91 
Q 4153 -91 3862 251 
Q 3572 594 3572 1178 
Q 3572 1766 3864 2108 
Q 4156 2450 4653 2450 
z
M 1428 4353 
Q 1159 4353 1004 4120 
Q 850 3888 850 3481 
Q 850 3069 1003 2837 
Q 1156 2606 1428 2606 
Q 1700 2606 1854 2837 
Q 2009 3069 2009 3481 
Q 2009 3884 1853 4118 
Q 1697 4353 1428 4353 
z
M 4250 4750 
L 4750 4750 
L 1831 -91 
L 1331 -91 
L 4250 4750 
z
M 1428 4750 
Q 1922 4750 2215 4408 
Q 2509 4066 2509 3481 
Q 2509 2891 2217 2550 
Q 1925 2209 1428 2209 
Q 931 2209 642 2551 
Q 353 2894 353 3481 
Q 353 4063 643 4406 
Q 934 4750 1428 4750 
z
" transform="scale(0.015625)"/>
     </defs>
     <use xlink:href="#DejaVuSans-31"/>
     <use xlink:href="#DejaVuSans-30" transform="translate(63.623047 0)"/>
     <use xlink:href="#DejaVuSans-30" transform="translate(127.246094 0)"/>
     <use xlink:href="#DejaVuSans-2e" transform="translate(190.869141 0)"/>
     <use xlink:href="#DejaVuSans-30" transform="translate(222.65625 0)"/>
     <use xlink:href="#DejaVuSans-20" transform="translate(286.279297 0)"/>
     <use xlink:href="#DejaVuSans-25" transform="translate(318.066406 0)"/>
    </g>
   </g>
   <g id="text_2">
    <!-- 1960-1965 -->
    <g transform="translate(-977.522199 157.158439) scale(0.1 -0.1)">
     <defs>
      <path id="DejaVuSans-39" d="M 703 97 
L 703 672 
Q 941 559 1184 500 
Q 1428 441 1663 441 
Q 2288 441 2617 861 
Q 2947 1281 2994 2138 
Q 2813 1869 2534 1725 
Q 2256 1581 1919 1581 
Q 1219 1581 811 2004 
Q 403 2428 403 3163 
Q 403 3881 828 4315 
Q 1253 4750 1959 4750 
Q 2769 4750 3195 4129 
Q 3622 3509 3622 2328 
Q 3622 1225 3098 567 
Q 2575 -91 1691 -91 
Q 1453 -91 1209 -44 
Q 966 3 703 97 
z
M 1959 2075 
Q 2384 2075 2632 2365 
Q 2881 2656 2881 3163 
Q 2881 3666 2632 3958 
Q 2384 4250 1959 4250 
Q 1534 4250 1286 3958 
Q 1038 3666 1038 3163 
Q 1038 2656 1286 2365 
Q 1534 2075 1959 2075 
z
" transform="scale(0.015625)"/>
      <path id="DejaVuSans-36" d="M 2113 2584 
Q 1688 2584 1439 2293 
Q 1191 2003 1191 1497 
Q 1191 994 1439 701 
Q 1688 409 2113 409 
Q 2538 409 2786 701 
Q 3034 994 3034 1497 
Q 3034 2003 2786 2293 
Q 2538 2584 2113 2584 
z
M 3366 4563 
L 3366 3988 
Q 3128 4100 2886 4159 
Q 2644 4219 2406 4219 
Q 1781 4219 1451 3797 
Q 1122 3375 1075 2522 
Q 1259 2794 1537 2939 
Q 1816 3084 2150 3084 
Q 2853 3084 3261 2657 
Q 3669 2231 3669 1497 
Q 3669 778 3244 343 
Q 2819 -91 2113 -91 
Q 1303 -91 875 529 
Q 447 1150 447 2328 
Q 447 3434 972 4092 
Q 1497 4750 2381 4750 
Q 2619 4750 2861 4703 
Q 3103 4656 3366 4563 
z
" transform="scale(0.015625)"/>
      <path id="DejaVuSans-2d" d="M 313 2009 
L 1997 2009 
L 1997 1497 
L 313 1497 
L 313 2009 
z
" transform="scale(0.015625)"/>
      <path id="DejaVuSans-35" d="M 691 4666 
L 3169 4666 
L 3169 4134 
L 1269 4134 
L 1269 2991 
Q 1406 3038 1543 3061 
Q 1681 3084 1819 3084 
Q 2600 3084 3056 2656 
Q 3513 2228 3513 1497 
Q 3513 744 3044 326 
Q 2575 -91 1722 -91 
Q 1428 -91 1123 -41 
Q 819 9 494 109 
L 494 744 
Q 775 591 1075 516 
Q 1375 441 1709 441 
Q 2250 441 2565 725 
Q 2881 1009 2881 1497 
Q 2881 1984 2565 2268 
Q 2250 2553 1709 2553 
Q 1456 2553 1204 2497 
Q 953 2441 691 2322 
L 691 4666 
z
" transform="scale(0.015625)"/>
     </defs>
     <use xlink:href="#DejaVuSans-31"/>
     <use xlink:href="#DejaVuSans-39" transform="translate(63.623047 0)"/>
     <use xlink:href="#DejaVuSans-36" transform="translate(127.246094 0)"/>
     <use xlink:href="#DejaVuSans-30" transform="translate(190.869141 0)"/>
     <use xlink:href="#DejaVuSans-2d" transform="translate(254.492188 0)"/>
     <use xlink:href="#DejaVuSans-31" transform="translate(290.576172 0)"/>
     <use xlink:href="#DejaVuSans-39" transform="translate(354.199219 0)"/>
     <use xlink:href="#DejaVuSans-36" transform="translate(417.822266 0)"/>
     <use xlink:href="#DejaVuSans-35" transform="translate(481.445312 0)"/>
    </g>
   </g>
   <g id="text_3">
    <!-- 100.0 % -->
    <g transform="translate(-878.808209 83.580256) scale(0.1 -0.1)">
     <use xlink:href="#DejaVuSans-31"/>
     <use xlink:href="#DejaVuSans-30" transform="translate(63.623047 0)"/>
     <use xlink:href="#DejaVuSans-30" transform="translate(127.246094 0)"/>
     <use xlink:href="#DejaVuSans-2e" transform="translate(190.869141 0)"/>
     <use xlink:href="#DejaVuSans-30" transform="translate(222.65625 0)"/>
     <use xlink:href="#DejaVuSans-20" transform="translate(286.279297 0)"/>
     <use xlink:href="#DejaVuSans-25" transform="translate(318.066406 0)"/>
    </g>
   </g>
   <g id="text_4">
    <!-- 1965-1970 -->
    <g transform="translate(-850.292931 157.158439) scale(0.1 -0.1)">
     <defs>
      <path id="DejaVuSans-37" d="M 525 4666 
L 3525 4666 
L 3525 4397 
L 1831 0 
L 1172 0 
L 2766 4134 
L 525 4134 
L 525 4666 
z
" transform="scale(0.015625)"/>
     </defs>
     <use xlink:href="#DejaVuSans-31"/>
     <use xlink:href="#DejaVuSans-39" transform="translate(63.623047 0)"/>
     <use xlink:href="#DejaVuSans-36" transform="translate(127.246094 0)"/>
     <use xlink:href="#DejaVuSans-35" transform="translate(190.869141 0)"/>
     <use xlink:href="#DejaVuSans-2d" transform="translate(254.492188 0)"/>
     <use xlink:href="#DejaVuSans-31" transform="translate(290.576172 0)"/>
     <use xlink:href="#DejaVuSans-39" transform="translate(354.199219 0)"/>
     <use xlink:href="#DejaVuSans-37" transform="translate(417.822266 0)"/>
     <use xlink:href="#DejaVuSans-30" transform="translate(481.445312 0)"/>
    </g>
   </g>
   <g id="text_5">
    <!-- 1970-1975 -->
    <g transform="translate(-723.063662 157.158439) scale(0.1 -0.1)">
     <use xlink:href="#DejaVuSans-31"/>
     <use xlink:href="#DejaVuSans-39" transform="translate(63.623047 0)"/>
     <use xlink:href="#DejaVuSans-37" transform="translate(127.246094 0)"/>
     <use xlink:href="#DejaVuSans-30" transform="translate(190.869141 0)"/>
     <use xlink:href="#DejaVuSans-2d" transform="translate(254.492188 0)"/>
     <use xlink:href="#DejaVuSans-31" transform="translate(290.576172 0)"/>
     <use xlink:href="#DejaVuSans-39" transform="translate(354.199219 0)"/>
     <use xlink:href="#DejaVuSans-37" transform="translate(417.822266 0)"/>
     <use xlink:href="#DejaVuSans-35" transform="translate(481.445312 0)"/>
    </g>
   </g>
   <g id="text_6">
    <!-- 100.0 % -->
    <g transform="translate(-624.349672 83.580256) scale(0.1 -0.1)">
     <use xlink:href="#DejaVuSans-31"/>
     <use xlink:href="#DejaVuSans-30" transform="translate(63.623047 0)"/>
     <use xlink:href="#DejaVuSans-30" transform="translate(127.246094 0)"/>
     <use xlink:href="#DejaVuSans-2e" transform="translate(190.869141 0)"/>
     <use xlink:href="#DejaVuSans-30" transform="translate(222.65625 0)"/>
     <use xlink:href="#DejaVuSans-20" transform="translate(286.279297 0)"/>
     <use xlink:href="#DejaVuSans-25" transform="translate(318.066406 0)"/>
    </g>
   </g>
   <g id="text_7">
    <!-- 1975-1980 -->
    <g transform="translate(-595.834394 157.158439) scale(0.1 -0.1)">
     <defs>
      <path id="DejaVuSans-38" d="M 2034 2216 
Q 1584 2216 1326 1975 
Q 1069 1734 1069 1313 
Q 1069 891 1326 650 
Q 1584 409 2034 409 
Q 2484 409 2743 651 
Q 3003 894 3003 1313 
Q 3003 1734 2745 1975 
Q 2488 2216 2034 2216 
z
M 1403 2484 
Q 997 2584 770 2862 
Q 544 3141 544 3541 
Q 544 4100 942 4425 
Q 1341 4750 2034 4750 
Q 2731 4750 3128 4425 
Q 3525 4100 3525 3541 
Q 3525 3141 3298 2862 
Q 3072 2584 2669 2484 
Q 3125 2378 3379 2068 
Q 3634 1759 3634 1313 
Q 3634 634 3220 271 
Q 2806 -91 2034 -91 
Q 1263 -91 848 271 
Q 434 634 434 1313 
Q 434 1759 690 2068 
Q 947 2378 1403 2484 
z
M 1172 3481 
Q 1172 3119 1398 2916 
Q 1625 2713 2034 2713 
Q 2441 2713 2670 2916 
Q 2900 3119 2900 3481 
Q 2900 3844 2670 4047 
Q 2441 4250 2034 4250 
Q 1625 4250 1398 4047 
Q 1172 3844 1172 3481 
z
" transform="scale(0.015625)"/>
     </defs>
     <use xlink:href="#DejaVuSans-31"/>
     <use xlink:href="#DejaVuSans-39" transform="translate(63.623047 0)"/>
     <use xlink:href="#DejaVuSans-37" transform="translate(127.246094 0)"/>
     <use xlink:href="#DejaVuSans-35" transform="translate(190.869141 0)"/>
     <use xlink:href="#DejaVuSans-2d" transform="translate(254.492188 0)"/>
     <use xlink:href="#DejaVuSans-31" transform="translate(290.576172 0)"/>
     <use xlink:href="#DejaVuSans-39" transform="translate(354.199219 0)"/>
     <use xlink:href="#DejaVuSans-38" transform="translate(417.822266 0)"/>
     <use xlink:href="#DejaVuSans-30" transform="translate(481.445312 0)"/>
    </g>
   </g>
   <g id="text_8">
    <!-- 100.0 % -->
    <g transform="translate(-497.120404 83.580256) scale(0.1 -0.1)">
     <use xlink:href="#DejaVuSans-31"/>
     <use xlink:href="#DejaVuSans-30" transform="translate(63.623047 0)"/>
     <use xlink:href="#DejaVuSans-30" transform="translate(127.246094 0)"/>
     <use xlink:href="#DejaVuSans-2e" transform="translate(190.869141 0)"/>
     <use xlink:href="#DejaVuSans-30" transform="translate(222.65625 0)"/>
     <use xlink:href="#DejaVuSans-20" transform="translate(286.279297 0)"/>
     <use xlink:href="#DejaVuSans-25" transform="translate(318.066406 0)"/>
    </g>
   </g>
   <g id="text_9">
    <!-- 1980-1985 -->
    <g transform="translate(-468.605126 157.158439) scale(0.1 -0.1)">
     <use xlink:href="#DejaVuSans-31"/>
     <use xlink:href="#DejaVuSans-39" transform="translate(63.623047 0)"/>
     <use xlink:href="#DejaVuSans-38" transform="translate(127.246094 0)"/>
     <use xlink:href="#DejaVuSans-30" transform="translate(190.869141 0)"/>
     <use xlink:href="#DejaVuSans-2d" transform="translate(254.492188 0)"/>
     <use xlink:href="#DejaVuSans-31" transform="translate(290.576172 0)"/>
     <use xlink:href="#DejaVuSans-39" transform="translate(354.199219 0)"/>
     <use xlink:href="#DejaVuSans-38" transform="translate(417.822266 0)"/>
     <use xlink:href="#DejaVuSans-35" transform="translate(481.445312 0)"/>
    </g>
   </g>
   <g id="text_10">
    <!-- 100.0 % -->
    <g transform="translate(-369.891136 83.580256) scale(0.1 -0.1)">
     <use xlink:href="#DejaVuSans-31"/>
     <use xlink:href="#DejaVuSans-30" transform="translate(63.623047 0)"/>
     <use xlink:href="#DejaVuSans-30" transform="translate(127.246094 0)"/>
     <use xlink:href="#DejaVuSans-2e" transform="translate(190.869141 0)"/>
     <use xlink:href="#DejaVuSans-30" transform="translate(222.65625 0)"/>
     <use xlink:href="#DejaVuSans-20" transform="translate(286.279297 0)"/>
     <use xlink:href="#DejaVuSans-25" transform="translate(318.066406 0)"/>
    </g>
   </g>
   <g id="text_11">
    <!-- 1985-1990 -->
    <g transform="translate(-341.375857 157.158439) scale(0.1 -0.1)">
     <use xlink:href="#DejaVuSans-31"/>
     <use xlink:href="#DejaVuSans-39" transform="translate(63.623047 0)"/>
     <use xlink:href="#DejaVuSans-38" transform="translate(127.246094 0)"/>
     <use xlink:href="#DejaVuSans-35" transform="translate(190.869141 0)"/>
     <use xlink:href="#DejaVuSans-2d" transform="translate(254.492188 0)"/>
     <use xlink:href="#DejaVuSans-31" transform="translate(290.576172 0)"/>
     <use xlink:href="#DejaVuSans-39" transform="translate(354.199219 0)"/>
     <use xlink:href="#DejaVuSans-39" transform="translate(417.822266 0)"/>
     <use xlink:href="#DejaVuSans-30" transform="translate(481.445312 0)"/>
    </g>
   </g>
   <g id="text_12">
    <!-- 100.0 % -->
    <g transform="translate(-242.661867 83.580256) scale(0.1 -0.1)">
     <use xlink:href="#DejaVuSans-31"/>
     <use xlink:href="#DejaVuSans-30" transform="translate(63.623047 0)"/>
     <use xlink:href="#DejaVuSans-30" transform="translate(127.246094 0)"/>
     <use xlink:href="#DejaVuSans-2e" transform="translate(190.869141 0)"/>
     <use xlink:href="#DejaVuSans-30" transform="translate(222.65625 0)"/>
     <use xlink:href="#DejaVuSans-20" transform="translate(286.279297 0)"/>
     <use xlink:href="#DejaVuSans-25" transform="translate(318.066406 0)"/>
    </g>
   </g>
   <g id="text_13">
    <!-- 1990-1995 -->
    <g transform="translate(-214.146589 157.158439) scale(0.1 -0.1)">
     <use xlink:href="#DejaVuSans-31"/>
     <use xlink:href="#DejaVuSans-39" transform="translate(63.623047 0)"/>
     <use xlink:href="#DejaVuSans-39" transform="translate(127.246094 0)"/>
     <use xlink:href="#DejaVuSans-30" transform="translate(190.869141 0)"/>
     <use xlink:href="#DejaVuSans-2d" transform="translate(254.492188 0)"/>
     <use xlink:href="#DejaVuSans-31" transform="translate(290.576172 0)"/>
     <use xlink:href="#DejaVuSans-39" transform="translate(354.199219 0)"/>
     <use xlink:href="#DejaVuSans-39" transform="translate(417.822266 0)"/>
     <use xlink:href="#DejaVuSans-35" transform="translate(481.445312 0)"/>
    </g>
   </g>
   <g id="text_14">
    <!-- 94.4 % -->
    <g transform="translate(-111.717868 77.482545) scale(0.1 -0.1)">
     <defs>
      <path id="DejaVuSans-34" d="M 2419 4116 
L 825 1625 
L 2419 1625 
L 2419 4116 
z
M 2253 4666 
L 3047 4666 
L 3047 1625 
L 3713 1625 
L 3713 1100 
L 3047 1100 
L 3047 0 
L 2419 0 
L 2419 1100 
L 313 1100 
L 313 1709 
L 2253 4666 
z
" transform="scale(0.015625)"/>
     </defs>
     <use xlink:href="#DejaVuSans-39"/>
     <use xlink:href="#DejaVuSans-34" transform="translate(63.623047 0)"/>
     <use xlink:href="#DejaVuSans-2e" transform="translate(127.246094 0)"/>
     <use xlink:href="#DejaVuSans-34" transform="translate(159.033203 0)"/>
     <use xlink:href="#DejaVuSans-20" transform="translate(222.65625 0)"/>
     <use xlink:href="#DejaVuSans-25" transform="translate(254.443359 0)"/>
    </g>
   </g>
   <g id="text_15">
    <!-- 1995-2000 -->
    <g transform="translate(-86.917321 157.158439) scale(0.1 -0.1)">
     <defs>
      <path id="DejaVuSans-32" d="M 1228 531 
L 3431 531 
L 3431 0 
L 469 0 
L 469 531 
Q 828 903 1448 1529 
Q 2069 2156 2228 2338 
Q 2531 2678 2651 2914 
Q 2772 3150 2772 3378 
Q 2772 3750 2511 3984 
Q 2250 4219 1831 4219 
Q 1534 4219 1204 4116 
Q 875 4013 500 3803 
L 500 4441 
Q 881 4594 1212 4672 
Q 1544 4750 1819 4750 
Q 2544 4750 2975 4387 
Q 3406 4025 3406 3419 
Q 3406 3131 3298 2873 
Q 3191 2616 2906 2266 
Q 2828 2175 2409 1742 
Q 1991 1309 1228 531 
z
" transform="scale(0.015625)"/>
     </defs>
     <use xlink:href="#DejaVuSans-31"/>
     <use xlink:href="#DejaVuSans-39" transform="translate(63.623047 0)"/>
     <use xlink:href="#DejaVuSans-39" transform="translate(127.246094 0)"/>
     <use xlink:href="#DejaVuSans-35" transform="translate(190.869141 0)"/>
     <use xlink:href="#DejaVuSans-2d" transform="translate(254.492188 0)"/>
     <use xlink:href="#DejaVuSans-32" transform="translate(290.576172 0)"/>
     <use xlink:href="#DejaVuSans-30" transform="translate(354.199219 0)"/>
     <use xlink:href="#DejaVuSans-30" transform="translate(417.822266 0)"/>
     <use xlink:href="#DejaVuSans-30" transform="translate(481.445312 0)"/>
    </g>
   </g>
   <g id="text_16">
    <!-- 63.9 % -->
    <g transform="translate(35.252837 51.755004) scale(0.1 -0.1)">
     <defs>
      <path id="DejaVuSans-33" d="M 2597 2516 
Q 3050 2419 3304 2112 
Q 3559 1806 3559 1356 
Q 3559 666 3084 287 
Q 2609 -91 1734 -91 
Q 1441 -91 1130 -33 
Q 819 25 488 141 
L 488 750 
Q 750 597 1062 519 
Q 1375 441 1716 441 
Q 2309 441 2620 675 
Q 2931 909 2931 1356 
Q 2931 1769 2642 2001 
Q 2353 2234 1838 2234 
L 1294 2234 
L 1294 2753 
L 1863 2753 
Q 2328 2753 2575 2939 
Q 2822 3125 2822 3475 
Q 2822 3834 2567 4026 
Q 2313 4219 1838 4219 
Q 1578 4219 1281 4162 
Q 984 4106 628 3988 
L 628 4550 
Q 988 4650 1302 4700 
Q 1616 4750 1894 4750 
Q 2613 4750 3031 4423 
Q 3450 4097 3450 3541 
Q 3450 3153 3228 2886 
Q 3006 2619 2597 2516 
z
" transform="scale(0.015625)"/>
     </defs>
     <use xlink:href="#DejaVuSans-36"/>
     <use xlink:href="#DejaVuSans-33" transform="translate(63.623047 0)"/>
     <use xlink:href="#DejaVuSans-2e" transform="translate(127.246094 0)"/>
     <use xlink:href="#DejaVuSans-39" transform="translate(159.033203 0)"/>
     <use xlink:href="#DejaVuSans-20" transform="translate(222.65625 0)"/>
     <use xlink:href="#DejaVuSans-25" transform="translate(254.443359 0)"/>
    </g>
   </g>
   <g id="text_17">
    <!-- 19.4 % -->
    <g transform="translate(78.857955 103.721541) scale(0.1 -0.1)">
     <use xlink:href="#DejaVuSans-31"/>
     <use xlink:href="#DejaVuSans-39" transform="translate(63.623047 0)"/>
     <use xlink:href="#DejaVuSans-2e" transform="translate(127.246094 0)"/>
     <use xlink:href="#DejaVuSans-34" transform="translate(159.033203 0)"/>
     <use xlink:href="#DejaVuSans-20" transform="translate(222.65625 0)"/>
     <use xlink:href="#DejaVuSans-25" transform="translate(254.443359 0)"/>
    </g>
   </g>
   <g id="text_18">
    <!-- 2000-2005 -->
    <g transform="translate(40.311947 157.158439) scale(0.1 -0.1)">
     <use xlink:href="#DejaVuSans-32"/>
     <use xlink:href="#DejaVuSans-30" transform="translate(63.623047 0)"/>
     <use xlink:href="#DejaVuSans-30" transform="translate(127.246094 0)"/>
     <use xlink:href="#DejaVuSans-30" transform="translate(190.869141 0)"/>
     <use xlink:href="#DejaVuSans-2d" transform="translate(254.492188 0)"/>
     <use xlink:href="#DejaVuSans-32" transform="translate(290.576172 0)"/>
     <use xlink:href="#DejaVuSans-30" transform="translate(354.199219 0)"/>
     <use xlink:href="#DejaVuSans-30" transform="translate(417.822266 0)"/>
     <use xlink:href="#DejaVuSans-35" transform="translate(481.445312 0)"/>
    </g>
   </g>
   <g id="text_19">
    <!-- 61.7 % -->
    <g transform="translate(164.701763 50.811356) scale(0.1 -0.1)">
     <use xlink:href="#DejaVuSans-36"/>
     <use xlink:href="#DejaVuSans-31" transform="translate(63.623047 0)"/>
     <use xlink:href="#DejaVuSans-2e" transform="translate(127.246094 0)"/>
     <use xlink:href="#DejaVuSans-37" transform="translate(159.033203 0)"/>
     <use xlink:href="#DejaVuSans-20" transform="translate(222.65625 0)"/>
     <use xlink:href="#DejaVuSans-25" transform="translate(254.443359 0)"/>
    </g>
   </g>
   <g id="text_20">
    <!-- 12.8 % -->
    <g transform="translate(162.54123 115.433005) scale(0.1 -0.1)">
     <use xlink:href="#DejaVuSans-31"/>
     <use xlink:href="#DejaVuSans-32" transform="translate(63.623047 0)"/>
     <use xlink:href="#DejaVuSans-2e" transform="translate(127.246094 0)"/>
     <use xlink:href="#DejaVuSans-38" transform="translate(159.033203 0)"/>
     <use xlink:href="#DejaVuSans-20" transform="translate(222.65625 0)"/>
     <use xlink:href="#DejaVuSans-25" transform="translate(254.443359 0)"/>
    </g>
   </g>
   <g id="text_21">
    <!-- 12.8 % -->
    <g transform="translate(209.651338 97.288891) scale(0.1 -0.1)">
     <use xlink:href="#DejaVuSans-31"/>
     <use xlink:href="#DejaVuSans-32" transform="translate(63.623047 0)"/>
     <use xlink:href="#DejaVuSans-2e" transform="translate(127.246094 0)"/>
     <use xlink:href="#DejaVuSans-38" transform="translate(159.033203 0)"/>
     <use xlink:href="#DejaVuSans-20" transform="translate(222.65625 0)"/>
     <use xlink:href="#DejaVuSans-25" transform="translate(254.443359 0)"/>
    </g>
   </g>
   <g id="text_22">
    <!-- 2005-2010 -->
    <g transform="translate(167.541216 157.158439) scale(0.1 -0.1)">
     <use xlink:href="#DejaVuSans-32"/>
     <use xlink:href="#DejaVuSans-30" transform="translate(63.623047 0)"/>
     <use xlink:href="#DejaVuSans-30" transform="translate(127.246094 0)"/>
     <use xlink:href="#DejaVuSans-35" transform="translate(190.869141 0)"/>
     <use xlink:href="#DejaVuSans-2d" transform="translate(254.492188 0)"/>
     <use xlink:href="#DejaVuSans-32" transform="translate(290.576172 0)"/>
     <use xlink:href="#DejaVuSans-30" transform="translate(354.199219 0)"/>
     <use xlink:href="#DejaVuSans-31" transform="translate(417.822266 0)"/>
     <use xlink:href="#DejaVuSans-30" transform="translate(481.445312 0)"/>
    </g>
   </g>
   <g id="text_23">
    <!-- 46.2 % -->
    <g transform="translate(308.784413 48.721005) scale(0.1 -0.1)">
     <use xlink:href="#DejaVuSans-34"/>
     <use xlink:href="#DejaVuSans-36" transform="translate(63.623047 0)"/>
     <use xlink:href="#DejaVuSans-2e" transform="translate(127.246094 0)"/>
     <use xlink:href="#DejaVuSans-32" transform="translate(159.033203 0)"/>
     <use xlink:href="#DejaVuSans-20" transform="translate(222.65625 0)"/>
     <use xlink:href="#DejaVuSans-25" transform="translate(254.443359 0)"/>
    </g>
   </g>
   <g id="text_24">
    <!-- 25.6 % -->
    <g transform="translate(274.872652 102.348174) scale(0.1 -0.1)">
     <use xlink:href="#DejaVuSans-32"/>
     <use xlink:href="#DejaVuSans-35" transform="translate(63.623047 0)"/>
     <use xlink:href="#DejaVuSans-2e" transform="translate(127.246094 0)"/>
     <use xlink:href="#DejaVuSans-36" transform="translate(159.033203 0)"/>
     <use xlink:href="#DejaVuSans-20" transform="translate(222.65625 0)"/>
     <use xlink:href="#DejaVuSans-25" transform="translate(254.443359 0)"/>
    </g>
   </g>
   <g id="text_25">
    <!-- 15.4 % -->
    <g transform="translate(314.321427 117.309111) scale(0.1 -0.1)">
     <use xlink:href="#DejaVuSans-31"/>
     <use xlink:href="#DejaVuSans-35" transform="translate(63.623047 0)"/>
     <use xlink:href="#DejaVuSans-2e" transform="translate(127.246094 0)"/>
     <use xlink:href="#DejaVuSans-34" transform="translate(159.033203 0)"/>
     <use xlink:href="#DejaVuSans-20" transform="translate(222.65625 0)"/>
     <use xlink:href="#DejaVuSans-25" transform="translate(254.443359 0)"/>
    </g>
   </g>
   <g id="text_26">
    <!-- 2010-2015 -->
    <g transform="translate(294.770484 157.158439) scale(0.1 -0.1)">
     <use xlink:href="#DejaVuSans-32"/>
     <use xlink:href="#DejaVuSans-30" transform="translate(63.623047 0)"/>
     <use xlink:href="#DejaVuSans-31" transform="translate(127.246094 0)"/>
     <use xlink:href="#DejaVuSans-30" transform="translate(190.869141 0)"/>
     <use xlink:href="#DejaVuSans-2d" transform="translate(254.492188 0)"/>
     <use xlink:href="#DejaVuSans-32" transform="translate(290.576172 0)"/>
     <use xlink:href="#DejaVuSans-30" transform="translate(354.199219 0)"/>
     <use xlink:href="#DejaVuSans-31" transform="translate(417.822266 0)"/>
     <use xlink:href="#DejaVuSans-35" transform="translate(481.445312 0)"/>
    </g>
   </g>
   <g id="text_27">
    <!-- 50.0 % -->
    <g transform="translate(431.781001 48.464975) scale(0.1 -0.1)">
     <use xlink:href="#DejaVuSans-35"/>
     <use xlink:href="#DejaVuSans-30" transform="translate(63.623047 0)"/>
     <use xlink:href="#DejaVuSans-2e" transform="translate(127.246094 0)"/>
     <use xlink:href="#DejaVuSans-30" transform="translate(159.033203 0)"/>
     <use xlink:href="#DejaVuSans-20" transform="translate(222.65625 0)"/>
     <use xlink:href="#DejaVuSans-25" transform="translate(254.443359 0)"/>
    </g>
   </g>
   <g id="text_28">
    <!-- 18.4 % -->
    <g transform="translate(402.383674 102.786497) scale(0.1 -0.1)">
     <use xlink:href="#DejaVuSans-31"/>
     <use xlink:href="#DejaVuSans-38" transform="translate(63.623047 0)"/>
     <use xlink:href="#DejaVuSans-2e" transform="translate(127.246094 0)"/>
     <use xlink:href="#DejaVuSans-34" transform="translate(159.033203 0)"/>
     <use xlink:href="#DejaVuSans-20" transform="translate(222.65625 0)"/>
     <use xlink:href="#DejaVuSans-25" transform="translate(254.443359 0)"/>
    </g>
   </g>
   <g id="text_29">
    <!-- 18.4 % -->
    <g transform="translate(437.560792 118.216604) scale(0.1 -0.1)">
     <use xlink:href="#DejaVuSans-31"/>
     <use xlink:href="#DejaVuSans-38" transform="translate(63.623047 0)"/>
     <use xlink:href="#DejaVuSans-2e" transform="translate(127.246094 0)"/>
     <use xlink:href="#DejaVuSans-34" transform="translate(159.033203 0)"/>
     <use xlink:href="#DejaVuSans-20" transform="translate(222.65625 0)"/>
     <use xlink:href="#DejaVuSans-25" transform="translate(254.443359 0)"/>
    </g>
   </g>
   <g id="text_30">
    <!-- 2015-2020 -->
    <g transform="translate(421.999752 157.158439) scale(0.1 -0.1)">
     <use xlink:href="#DejaVuSans-32"/>
     <use xlink:href="#DejaVuSans-30" transform="translate(63.623047 0)"/>
     <use xlink:href="#DejaVuSans-31" transform="translate(127.246094 0)"/>
     <use xlink:href="#DejaVuSans-35" transform="translate(190.869141 0)"/>
     <use xlink:href="#DejaVuSans-2d" transform="translate(254.492188 0)"/>
     <use xlink:href="#DejaVuSans-32" transform="translate(290.576172 0)"/>
     <use xlink:href="#DejaVuSans-30" transform="translate(354.199219 0)"/>
     <use xlink:href="#DejaVuSans-32" transform="translate(417.822266 0)"/>
     <use xlink:href="#DejaVuSans-30" transform="translate(481.445312 0)"/>
    </g>
   </g>
   <g id="text_31">
    <!-- 32.7 % -->
    <g transform="translate(577.17673 53.529255) scale(0.1 -0.1)">
     <use xlink:href="#DejaVuSans-33"/>
     <use xlink:href="#DejaVuSans-32" transform="translate(63.623047 0)"/>
     <use xlink:href="#DejaVuSans-2e" transform="translate(127.246094 0)"/>
     <use xlink:href="#DejaVuSans-37" transform="translate(159.033203 0)"/>
     <use xlink:href="#DejaVuSans-20" transform="translate(222.65625 0)"/>
     <use xlink:href="#DejaVuSans-25" transform="translate(254.443359 0)"/>
    </g>
   </g>
   <g id="text_32">
    <!-- 32.7 % -->
    <g transform="translate(523.959058 81.460048) scale(0.1 -0.1)">
     <use xlink:href="#DejaVuSans-33"/>
     <use xlink:href="#DejaVuSans-32" transform="translate(63.623047 0)"/>
     <use xlink:href="#DejaVuSans-2e" transform="translate(127.246094 0)"/>
     <use xlink:href="#DejaVuSans-37" transform="translate(159.033203 0)"/>
     <use xlink:href="#DejaVuSans-20" transform="translate(222.65625 0)"/>
     <use xlink:href="#DejaVuSans-25" transform="translate(254.443359 0)"/>
    </g>
   </g>
   <g id="text_33">
    <!-- 19.2 % -->
    <g transform="translate(571.462325 116.413606) scale(0.1 -0.1)">
     <use xlink:href="#DejaVuSans-31"/>
     <use xlink:href="#DejaVuSans-39" transform="translate(63.623047 0)"/>
     <use xlink:href="#DejaVuSans-2e" transform="translate(127.246094 0)"/>
     <use xlink:href="#DejaVuSans-32" transform="translate(159.033203 0)"/>
     <use xlink:href="#DejaVuSans-20" transform="translate(222.65625 0)"/>
     <use xlink:href="#DejaVuSans-25" transform="translate(254.443359 0)"/>
    </g>
   </g>
   <g id="text_34">
    <!-- 2020-2025 -->
    <g transform="translate(549.229021 157.158439) scale(0.1 -0.1)">
     <use xlink:href="#DejaVuSans-32"/>
     <use xlink:href="#DejaVuSans-30" transform="translate(63.623047 0)"/>
     <use xlink:href="#DejaVuSans-32" transform="translate(127.246094 0)"/>
     <use xlink:href="#DejaVuSans-30" transform="translate(190.869141 0)"/>
     <use xlink:href="#DejaVuSans-2d" transform="translate(254.492188 0)"/>
     <use xlink:href="#DejaVuSans-32" transform="translate(290.576172 0)"/>
     <use xlink:href="#DejaVuSans-30" transform="translate(354.199219 0)"/>
     <use xlink:href="#DejaVuSans-32" transform="translate(417.822266 0)"/>
     <use xlink:href="#DejaVuSans-35" transform="translate(481.445312 0)"/>
    </g>
   </g>
   <g id="legend_1">
    <g id="patch_74">
     <path d="M 96.284 18.605766 
L 546.488687 18.605766 
Q 548.488687 18.605766 548.488687 16.605766 
L 548.488687 2.927641 
Q 548.488687 0.927641 546.488687 0.927641 
L 96.284 0.927641 
Q 94.284 0.927641 94.284 2.927641 
L 94.284 16.605766 
Q 94.284 18.605766 96.284 18.605766 
L 96.284 18.605766 
z
" style="fill: none; opacity: 0"/>
    </g>
    <g id="line2d_1">
     <path d="M 98.284 9.026078 
L 108.284 9.026078 
L 118.284 9.026078 
" style="fill: none; stroke: #1f77b4; stroke-width: 5; stroke-linecap: square"/>
    </g>
    <g id="text_35">
     <!-- None -->
     <g transform="translate(126.284 12.526078) scale(0.1 -0.1)">
      <defs>
       <path id="DejaVuSans-4e" d="M 628 4666 
L 1478 4666 
L 3547 763 
L 3547 4666 
L 4159 4666 
L 4159 0 
L 3309 0 
L 1241 3903 
L 1241 0 
L 628 0 
L 628 4666 
z
" transform="scale(0.015625)"/>
       <path id="DejaVuSans-6f" d="M 1959 3097 
Q 1497 3097 1228 2736 
Q 959 2375 959 1747 
Q 959 1119 1226 758 
Q 1494 397 1959 397 
Q 2419 397 2687 759 
Q 2956 1122 2956 1747 
Q 2956 2369 2687 2733 
Q 2419 3097 1959 3097 
z
M 1959 3584 
Q 2709 3584 3137 3096 
Q 3566 2609 3566 1747 
Q 3566 888 3137 398 
Q 2709 -91 1959 -91 
Q 1206 -91 779 398 
Q 353 888 353 1747 
Q 353 2609 779 3096 
Q 1206 3584 1959 3584 
z
" transform="scale(0.015625)"/>
       <path id="DejaVuSans-6e" d="M 3513 2113 
L 3513 0 
L 2938 0 
L 2938 2094 
Q 2938 2591 2744 2837 
Q 2550 3084 2163 3084 
Q 1697 3084 1428 2787 
Q 1159 2491 1159 1978 
L 1159 0 
L 581 0 
L 581 3500 
L 1159 3500 
L 1159 2956 
Q 1366 3272 1645 3428 
Q 1925 3584 2291 3584 
Q 2894 3584 3203 3211 
Q 3513 2838 3513 2113 
z
" transform="scale(0.015625)"/>
       <path id="DejaVuSans-65" d="M 3597 1894 
L 3597 1613 
L 953 1613 
Q 991 1019 1311 708 
Q 1631 397 2203 397 
Q 2534 397 2845 478 
Q 3156 559 3463 722 
L 3463 178 
Q 3153 47 2828 -22 
Q 2503 -91 2169 -91 
Q 1331 -91 842 396 
Q 353 884 353 1716 
Q 353 2575 817 3079 
Q 1281 3584 2069 3584 
Q 2775 3584 3186 3129 
Q 3597 2675 3597 1894 
z
M 3022 2063 
Q 3016 2534 2758 2815 
Q 2500 3097 2075 3097 
Q 1594 3097 1305 2825 
Q 1016 2553 972 2059 
L 3022 2063 
z
" transform="scale(0.015625)"/>
      </defs>
      <use xlink:href="#DejaVuSans-4e"/>
      <use xlink:href="#DejaVuSans-6f" transform="translate(74.804688 0)"/>
      <use xlink:href="#DejaVuSans-6e" transform="translate(135.986328 0)"/>
      <use xlink:href="#DejaVuSans-65" transform="translate(199.365234 0)"/>
     </g>
    </g>
    <g id="line2d_2">
     <path d="M 172.374625 9.026078 
L 182.374625 9.026078 
L 192.374625 9.026078 
" style="fill: none; stroke: #ff7f0e; stroke-width: 5; stroke-linecap: square"/>
    </g>
    <g id="text_36">
     <!-- Matlab -->
     <g transform="translate(200.374625 12.526078) scale(0.1 -0.1)">
      <defs>
       <path id="DejaVuSans-4d" d="M 628 4666 
L 1569 4666 
L 2759 1491 
L 3956 4666 
L 4897 4666 
L 4897 0 
L 4281 0 
L 4281 4097 
L 3078 897 
L 2444 897 
L 1241 4097 
L 1241 0 
L 628 0 
L 628 4666 
z
" transform="scale(0.015625)"/>
       <path id="DejaVuSans-61" d="M 2194 1759 
Q 1497 1759 1228 1600 
Q 959 1441 959 1056 
Q 959 750 1161 570 
Q 1363 391 1709 391 
Q 2188 391 2477 730 
Q 2766 1069 2766 1631 
L 2766 1759 
L 2194 1759 
z
M 3341 1997 
L 3341 0 
L 2766 0 
L 2766 531 
Q 2569 213 2275 61 
Q 1981 -91 1556 -91 
Q 1019 -91 701 211 
Q 384 513 384 1019 
Q 384 1609 779 1909 
Q 1175 2209 1959 2209 
L 2766 2209 
L 2766 2266 
Q 2766 2663 2505 2880 
Q 2244 3097 1772 3097 
Q 1472 3097 1187 3025 
Q 903 2953 641 2809 
L 641 3341 
Q 956 3463 1253 3523 
Q 1550 3584 1831 3584 
Q 2591 3584 2966 3190 
Q 3341 2797 3341 1997 
z
" transform="scale(0.015625)"/>
       <path id="DejaVuSans-74" d="M 1172 4494 
L 1172 3500 
L 2356 3500 
L 2356 3053 
L 1172 3053 
L 1172 1153 
Q 1172 725 1289 603 
Q 1406 481 1766 481 
L 2356 481 
L 2356 0 
L 1766 0 
Q 1100 0 847 248 
Q 594 497 594 1153 
L 594 3053 
L 172 3053 
L 172 3500 
L 594 3500 
L 594 4494 
L 1172 4494 
z
" transform="scale(0.015625)"/>
       <path id="DejaVuSans-6c" d="M 603 4863 
L 1178 4863 
L 1178 0 
L 603 0 
L 603 4863 
z
" transform="scale(0.015625)"/>
       <path id="DejaVuSans-62" d="M 3116 1747 
Q 3116 2381 2855 2742 
Q 2594 3103 2138 3103 
Q 1681 3103 1420 2742 
Q 1159 2381 1159 1747 
Q 1159 1113 1420 752 
Q 1681 391 2138 391 
Q 2594 391 2855 752 
Q 3116 1113 3116 1747 
z
M 1159 2969 
Q 1341 3281 1617 3432 
Q 1894 3584 2278 3584 
Q 2916 3584 3314 3078 
Q 3713 2572 3713 1747 
Q 3713 922 3314 415 
Q 2916 -91 2278 -91 
Q 1894 -91 1617 61 
Q 1341 213 1159 525 
L 1159 0 
L 581 0 
L 581 4863 
L 1159 4863 
L 1159 2969 
z
" transform="scale(0.015625)"/>
      </defs>
      <use xlink:href="#DejaVuSans-4d"/>
      <use xlink:href="#DejaVuSans-61" transform="translate(86.279297 0)"/>
      <use xlink:href="#DejaVuSans-74" transform="translate(147.558594 0)"/>
      <use xlink:href="#DejaVuSans-6c" transform="translate(186.767578 0)"/>
      <use xlink:href="#DejaVuSans-61" transform="translate(214.550781 0)"/>
      <use xlink:href="#DejaVuSans-62" transform="translate(275.830078 0)"/>
     </g>
    </g>
    <g id="line2d_3">
     <path d="M 254.305875 9.026078 
L 264.305875 9.026078 
L 274.305875 9.026078 
" style="fill: none; stroke: #2ca02c; stroke-width: 5; stroke-linecap: square"/>
    </g>
    <g id="text_37">
     <!-- CellML -->
     <g transform="translate(282.305875 12.526078) scale(0.1 -0.1)">
      <defs>
       <path id="DejaVuSans-43" d="M 4122 4306 
L 4122 3641 
Q 3803 3938 3442 4084 
Q 3081 4231 2675 4231 
Q 1875 4231 1450 3742 
Q 1025 3253 1025 2328 
Q 1025 1406 1450 917 
Q 1875 428 2675 428 
Q 3081 428 3442 575 
Q 3803 722 4122 1019 
L 4122 359 
Q 3791 134 3420 21 
Q 3050 -91 2638 -91 
Q 1578 -91 968 557 
Q 359 1206 359 2328 
Q 359 3453 968 4101 
Q 1578 4750 2638 4750 
Q 3056 4750 3426 4639 
Q 3797 4528 4122 4306 
z
" transform="scale(0.015625)"/>
       <path id="DejaVuSans-4c" d="M 628 4666 
L 1259 4666 
L 1259 531 
L 3531 531 
L 3531 0 
L 628 0 
L 628 4666 
z
" transform="scale(0.015625)"/>
      </defs>
      <use xlink:href="#DejaVuSans-43"/>
      <use xlink:href="#DejaVuSans-65" transform="translate(69.824219 0)"/>
      <use xlink:href="#DejaVuSans-6c" transform="translate(131.347656 0)"/>
      <use xlink:href="#DejaVuSans-6c" transform="translate(159.130859 0)"/>
      <use xlink:href="#DejaVuSans-4d" transform="translate(186.914062 0)"/>
      <use xlink:href="#DejaVuSans-4c" transform="translate(273.193359 0)"/>
     </g>
    </g>
    <g id="line2d_4">
     <path d="M 335.198062 9.026078 
L 345.198062 9.026078 
L 355.198062 9.026078 
" style="fill: none; stroke: #d62728; stroke-width: 5; stroke-linecap: square"/>
    </g>
    <g id="text_38">
     <!-- Myokit -->
     <g transform="translate(363.198062 12.526078) scale(0.1 -0.1)">
      <defs>
       <path id="DejaVuSans-79" d="M 2059 -325 
Q 1816 -950 1584 -1140 
Q 1353 -1331 966 -1331 
L 506 -1331 
L 506 -850 
L 844 -850 
Q 1081 -850 1212 -737 
Q 1344 -625 1503 -206 
L 1606 56 
L 191 3500 
L 800 3500 
L 1894 763 
L 2988 3500 
L 3597 3500 
L 2059 -325 
z
" transform="scale(0.015625)"/>
       <path id="DejaVuSans-6b" d="M 581 4863 
L 1159 4863 
L 1159 1991 
L 2875 3500 
L 3609 3500 
L 1753 1863 
L 3688 0 
L 2938 0 
L 1159 1709 
L 1159 0 
L 581 0 
L 581 4863 
z
" transform="scale(0.015625)"/>
       <path id="DejaVuSans-69" d="M 603 3500 
L 1178 3500 
L 1178 0 
L 603 0 
L 603 3500 
z
M 603 4863 
L 1178 4863 
L 1178 4134 
L 603 4134 
L 603 4863 
z
" transform="scale(0.015625)"/>
      </defs>
      <use xlink:href="#DejaVuSans-4d"/>
      <use xlink:href="#DejaVuSans-79" transform="translate(86.279297 0)"/>
      <use xlink:href="#DejaVuSans-6f" transform="translate(145.458984 0)"/>
      <use xlink:href="#DejaVuSans-6b" transform="translate(206.640625 0)"/>
      <use xlink:href="#DejaVuSans-69" transform="translate(264.550781 0)"/>
      <use xlink:href="#DejaVuSans-74" transform="translate(292.333984 0)"/>
     </g>
    </g>
    <g id="line2d_5">
     <path d="M 416.35275 9.026078 
L 426.35275 9.026078 
L 436.35275 9.026078 
" style="fill: none; stroke: #9467bd; stroke-width: 5; stroke-linecap: square"/>
    </g>
    <g id="text_39">
     <!-- C++ -->
     <g transform="translate(444.35275 12.526078) scale(0.1 -0.1)">
      <defs>
       <path id="DejaVuSans-2b" d="M 2944 4013 
L 2944 2272 
L 4684 2272 
L 4684 1741 
L 2944 1741 
L 2944 0 
L 2419 0 
L 2419 1741 
L 678 1741 
L 678 2272 
L 2419 2272 
L 2419 4013 
L 2944 4013 
z
" transform="scale(0.015625)"/>
      </defs>
      <use xlink:href="#DejaVuSans-43"/>
      <use xlink:href="#DejaVuSans-2b" transform="translate(69.824219 0)"/>
      <use xlink:href="#DejaVuSans-2b" transform="translate(153.613281 0)"/>
     </g>
    </g>
    <g id="line2d_6">
     <path d="M 488.094938 9.026078 
L 498.094938 9.026078 
L 508.094938 9.026078 
" style="fill: none; stroke: #8c564b; stroke-width: 5; stroke-linecap: square"/>
    </g>
    <g id="text_40">
     <!-- Other -->
     <g transform="translate(516.094938 12.526078) scale(0.1 -0.1)">
      <defs>
       <path id="DejaVuSans-4f" d="M 2522 4238 
Q 1834 4238 1429 3725 
Q 1025 3213 1025 2328 
Q 1025 1447 1429 934 
Q 1834 422 2522 422 
Q 3209 422 3611 934 
Q 4013 1447 4013 2328 
Q 4013 3213 3611 3725 
Q 3209 4238 2522 4238 
z
M 2522 4750 
Q 3503 4750 4090 4092 
Q 4678 3434 4678 2328 
Q 4678 1225 4090 567 
Q 3503 -91 2522 -91 
Q 1538 -91 948 565 
Q 359 1222 359 2328 
Q 359 3434 948 4092 
Q 1538 4750 2522 4750 
z
" transform="scale(0.015625)"/>
       <path id="DejaVuSans-68" d="M 3513 2113 
L 3513 0 
L 2938 0 
L 2938 2094 
Q 2938 2591 2744 2837 
Q 2550 3084 2163 3084 
Q 1697 3084 1428 2787 
Q 1159 2491 1159 1978 
L 1159 0 
L 581 0 
L 581 4863 
L 1159 4863 
L 1159 2956 
Q 1366 3272 1645 3428 
Q 1925 3584 2291 3584 
Q 2894 3584 3203 3211 
Q 3513 2838 3513 2113 
z
" transform="scale(0.015625)"/>
       <path id="DejaVuSans-72" d="M 2631 2963 
Q 2534 3019 2420 3045 
Q 2306 3072 2169 3072 
Q 1681 3072 1420 2755 
Q 1159 2438 1159 1844 
L 1159 0 
L 581 0 
L 581 3500 
L 1159 3500 
L 1159 2956 
Q 1341 3275 1631 3429 
Q 1922 3584 2338 3584 
Q 2397 3584 2469 3576 
Q 2541 3569 2628 3553 
L 2631 2963 
z
" transform="scale(0.015625)"/>
      </defs>
      <use xlink:href="#DejaVuSans-4f"/>
      <use xlink:href="#DejaVuSans-74" transform="translate(78.710938 0)"/>
      <use xlink:href="#DejaVuSans-68" transform="translate(117.919922 0)"/>
      <use xlink:href="#DejaVuSans-65" transform="translate(181.298828 0)"/>
      <use xlink:href="#DejaVuSans-72" transform="translate(242.822266 0)"/>
     </g>
    </g>
   </g>
  </g>
 </g>
</svg>
