<?xml version="1.0" encoding="utf-8" standalone="no"?>
<!DOCTYPE svg PUBLIC "-//W3C//DTD SVG 1.1//EN"
  "http://www.w3.org/Graphics/SVG/1.1/DTD/svg11.dtd">
<svg xmlns:xlink="http://www.w3.org/1999/xlink" width="648pt" height="331.2pt" viewBox="0 0 648 331.2" xmlns="http://www.w3.org/2000/svg" version="1.1">
 <metadata>
  <rdf:RDF xmlns:dc="http://purl.org/dc/elements/1.1/" xmlns:cc="http://creativecommons.org/ns#" xmlns:rdf="http://www.w3.org/1999/02/22-rdf-syntax-ns#">
   <cc:Work>
    <dc:type rdf:resource="http://purl.org/dc/dcmitype/StillImage"/>
    <dc:date>2026-02-24T16:03:24.313517</dc:date>
    <dc:format>image/svg+xml</dc:format>
    <dc:creator>
     <cc:Agent>
      <dc:title>Matplotlib v3.10.8, https://matplotlib.org/</dc:title>
     </cc:Agent>
    </dc:creator>
   </cc:Work>
  </rdf:RDF>
 </metadata>
 <defs>
  <style type="text/css">*{stroke-linejoin: round; stroke-linecap: butt}</style>
 </defs>
 <g id="figure_1">
  <g id="patch_1">
   <path d="M 0 331.2 
L 648 331.2 
L 648 0 
L 0 0 
z
" style="fill: #ffffff"/>
  </g>
  <g id="axes_1">
   <g id="patch_2">
    <path d="M 42.12 299.736 
L 563.76 299.736 
L 563.76 8.28 
L 42.12 8.28 
z
" style="fill: #ffffff"/>
   </g>
   <g id="FillBetweenPolyCollection_1">
    <path d="M -750.7728 11.165703 
L -750.7728 299.736 
L -729.9072 299.736 
L -709.0416 299.736 
L -688.176 299.736 
L -667.3104 299.736 
L -646.4448 299.736 
L -625.5792 299.736 
L -604.7136 299.736 
L -583.848 299.736 
L -562.9824 299.736 
L -542.1168 299.736 
L -521.2512 299.736 
L -500.3856 299.736 
L -479.52 299.736 
L -458.6544 299.736 
L -437.7888 299.736 
L -416.9232 299.736 
L -396.0576 299.736 
L -375.192 299.736 
L -354.3264 299.736 
L -333.4608 299.736 
L -312.5952 299.736 
L -291.7296 299.736 
L -270.864 299.736 
L -249.9984 299.736 
L -229.1328 299.736 
L -208.2672 299.736 
L -187.4016 299.736 
L -166.536 299.736 
L -145.6704 299.736 
L -124.8048 299.736 
L -103.9392 299.736 
L -83.0736 299.736 
L -62.208 299.736 
L -41.3424 299.736 
L -20.4768 299.736 
L 0.3888 299.736 
L 21.2544 299.736 
L 42.12 299.736 
L 62.9856 299.736 
L 83.8512 299.736 
L 104.7168 299.736 
L 125.5824 299.736 
L 146.448 299.736 
L 167.3136 299.736 
L 188.1792 299.736 
L 209.0448 299.736 
L 229.9104 299.736 
L 250.776 299.736 
L 271.6416 299.736 
L 292.5072 299.736 
L 313.3728 299.736 
L 334.2384 299.736 
L 355.104 299.736 
L 375.9696 299.736 
L 396.8352 299.736 
L 417.7008 299.736 
L 438.5664 299.736 
L 459.432 299.736 
L 480.2976 299.736 
L 501.1632 299.736 
L 522.0288 299.736 
L 542.8944 299.736 
L 563.76 299.736 
L 563.76 299.736 
L 563.76 299.736 
L 542.8944 134.838687 
L 522.0288 242.021941 
L 501.1632 217.287344 
L 480.2976 194.801347 
L 459.432 214.862383 
L 438.5664 227.593426 
L 417.7008 155.450851 
L 396.8352 155.450851 
L 375.9696 119.379564 
L 355.104 155.450851 
L 334.2384 217.287344 
L 313.3728 68.879762 
L 292.5072 155.450851 
L 271.6416 179.498376 
L 250.776 176.063016 
L 229.9104 114.226523 
L 209.0448 122.154279 
L 188.1792 155.450851 
L 167.3136 107.355802 
L 146.448 107.355802 
L 125.5824 171.482535 
L 104.7168 213.164911 
L 83.8512 11.165703 
L 62.9856 11.165703 
L 42.12 59.260752 
L 21.2544 11.165703 
L 0.3888 59.260752 
L -20.4768 11.165703 
L -41.3424 11.165703 
L -62.208 11.165703 
L -83.0736 11.165703 
L -103.9392 11.165703 
L -124.8048 299.736 
L -145.6704 11.165703 
L -166.536 11.165703 
L -187.4016 11.165703 
L -208.2672 299.736 
L -229.1328 11.165703 
L -249.9984 299.736 
L -270.864 11.165703 
L -291.7296 11.165703 
L -312.5952 299.736 
L -333.4608 11.165703 
L -354.3264 11.165703 
L -375.192 11.165703 
L -396.0576 299.736 
L -416.9232 299.736 
L -437.7888 11.165703 
L -458.6544 299.736 
L -479.52 11.165703 
L -500.3856 299.736 
L -521.2512 299.736 
L -542.1168 299.736 
L -562.9824 299.736 
L -583.848 299.736 
L -604.7136 299.736 
L -625.5792 299.736 
L -646.4448 299.736 
L -667.3104 11.165703 
L -688.176 299.736 
L -709.0416 299.736 
L -729.9072 299.736 
L -750.7728 11.165703 
z
" clip-path="url(#pccf424cf44)" style="fill: #dbedf9; stroke: #dbedf9"/>
   </g>
   <g id="FillBetweenPolyCollection_2">
    <path d="M -750.7728 11.165703 
L -750.7728 11.165703 
L -729.9072 299.736 
L -709.0416 299.736 
L -688.176 299.736 
L -667.3104 11.165703 
L -646.4448 299.736 
L -625.5792 299.736 
L -604.7136 299.736 
L -583.848 299.736 
L -562.9824 299.736 
L -542.1168 299.736 
L -521.2512 299.736 
L -500.3856 299.736 
L -479.52 11.165703 
L -458.6544 299.736 
L -437.7888 11.165703 
L -416.9232 299.736 
L -396.0576 299.736 
L -375.192 11.165703 
L -354.3264 11.165703 
L -333.4608 11.165703 
L -312.5952 299.736 
L -291.7296 11.165703 
L -270.864 11.165703 
L -249.9984 299.736 
L -229.1328 11.165703 
L -208.2672 299.736 
L -187.4016 11.165703 
L -166.536 11.165703 
L -145.6704 11.165703 
L -124.8048 299.736 
L -103.9392 11.165703 
L -83.0736 11.165703 
L -62.208 11.165703 
L -41.3424 11.165703 
L -20.4768 11.165703 
L 0.3888 59.260752 
L 21.2544 11.165703 
L 42.12 59.260752 
L 62.9856 11.165703 
L 83.8512 11.165703 
L 104.7168 213.164911 
L 125.5824 171.482535 
L 146.448 107.355802 
L 167.3136 107.355802 
L 188.1792 155.450851 
L 209.0448 122.154279 
L 229.9104 114.226523 
L 250.776 176.063016 
L 271.6416 179.498376 
L 292.5072 155.450851 
L 313.3728 68.879762 
L 334.2384 217.287344 
L 355.104 155.450851 
L 375.9696 119.379564 
L 396.8352 155.450851 
L 417.7008 155.450851 
L 438.5664 227.593426 
L 459.432 214.862383 
L 480.2976 194.801347 
L 501.1632 217.287344 
L 522.0288 242.021941 
L 542.8944 134.838687 
L 563.76 299.736 
L 563.76 184.307881 
L 563.76 184.307881 
L 542.8944 52.390031 
L 522.0288 155.450851 
L 501.1632 52.390031 
L 480.2976 63.63303 
L 459.432 163.938213 
L 438.5664 155.450851 
L 417.7008 107.355802 
L 396.8352 93.614359 
L 375.9696 83.308277 
L 355.104 107.355802 
L 334.2384 134.838687 
L 313.3728 68.879762 
L 292.5072 47.23699 
L 271.6416 107.355802 
L 250.776 93.614359 
L 229.9104 52.390031 
L 209.0448 99.956564 
L 188.1792 83.308277 
L 167.3136 107.355802 
L 146.448 107.355802 
L 125.5824 107.355802 
L 104.7168 184.307881 
L 83.8512 11.165703 
L 62.9856 11.165703 
L 42.12 59.260752 
L 21.2544 11.165703 
L 0.3888 59.260752 
L -20.4768 11.165703 
L -41.3424 11.165703 
L -62.208 11.165703 
L -83.0736 11.165703 
L -103.9392 11.165703 
L -124.8048 299.736 
L -145.6704 11.165703 
L -166.536 11.165703 
L -187.4016 11.165703 
L -208.2672 299.736 
L -229.1328 11.165703 
L -249.9984 299.736 
L -270.864 11.165703 
L -291.7296 11.165703 
L -312.5952 299.736 
L -333.4608 11.165703 
L -354.3264 11.165703 
L -375.192 11.165703 
L -396.0576 299.736 
L -416.9232 299.736 
L -437.7888 11.165703 
L -458.6544 299.736 
L -479.52 11.165703 
L -500.3856 299.736 
L -521.2512 299.736 
L -542.1168 299.736 
L -562.9824 299.736 
L -583.848 299.736 
L -604.7136 299.736 
L -625.5792 299.736 
L -646.4448 299.736 
L -667.3104 11.165703 
L -688.176 299.736 
L -709.0416 299.736 
L -729.9072 299.736 
L -750.7728 11.165703 
z
" clip-path="url(#pccf424cf44)" style="fill: #ffe2c9; stroke: #ffe2c9"/>
   </g>
   <g id="FillBetweenPolyCollection_3">
    <path d="M -750.7728 11.165703 
L -750.7728 11.165703 
L -729.9072 299.736 
L -709.0416 299.736 
L -688.176 299.736 
L -667.3104 11.165703 
L -646.4448 299.736 
L -625.5792 299.736 
L -604.7136 299.736 
L -583.848 299.736 
L -562.9824 299.736 
L -542.1168 299.736 
L -521.2512 299.736 
L -500.3856 299.736 
L -479.52 11.165703 
L -458.6544 299.736 
L -437.7888 11.165703 
L -416.9232 299.736 
L -396.0576 299.736 
L -375.192 11.165703 
L -354.3264 11.165703 
L -333.4608 11.165703 
L -312.5952 299.736 
L -291.7296 11.165703 
L -270.864 11.165703 
L -249.9984 299.736 
L -229.1328 11.165703 
L -208.2672 299.736 
L -187.4016 11.165703 
L -166.536 11.165703 
L -145.6704 11.165703 
L -124.8048 299.736 
L -103.9392 11.165703 
L -83.0736 11.165703 
L -62.208 11.165703 
L -41.3424 11.165703 
L -20.4768 11.165703 
L 0.3888 59.260752 
L 21.2544 11.165703 
L 42.12 59.260752 
L 62.9856 11.165703 
L 83.8512 11.165703 
L 104.7168 184.307881 
L 125.5824 107.355802 
L 146.448 107.355802 
L 167.3136 107.355802 
L 188.1792 83.308277 
L 209.0448 99.956564 
L 229.9104 52.390031 
L 250.776 93.614359 
L 271.6416 107.355802 
L 292.5072 47.23699 
L 313.3728 68.879762 
L 334.2384 134.838687 
L 355.104 107.355802 
L 375.9696 83.308277 
L 396.8352 93.614359 
L 417.7008 107.355802 
L 438.5664 155.450851 
L 459.432 163.938213 
L 480.2976 63.63303 
L 501.1632 52.390031 
L 522.0288 155.450851 
L 542.8944 52.390031 
L 563.76 184.307881 
L 563.76 97.736792 
L 563.76 97.736792 
L 542.8944 52.390031 
L 522.0288 155.450851 
L 501.1632 52.390031 
L 480.2976 63.63303 
L 459.432 113.014043 
L 438.5664 11.165703 
L 417.7008 59.260752 
L 396.8352 52.390031 
L 375.9696 11.165703 
L 355.104 107.355802 
L 334.2384 93.614359 
L 313.3728 11.165703 
L 292.5072 11.165703 
L 271.6416 59.260752 
L 250.776 52.390031 
L 229.9104 31.777867 
L 209.0448 55.561133 
L 188.1792 83.308277 
L 167.3136 107.355802 
L 146.448 107.355802 
L 125.5824 107.355802 
L 104.7168 126.593822 
L 83.8512 11.165703 
L 62.9856 11.165703 
L 42.12 59.260752 
L 21.2544 11.165703 
L 0.3888 11.165703 
L -20.4768 11.165703 
L -41.3424 11.165703 
L -62.208 11.165703 
L -83.0736 11.165703 
L -103.9392 11.165703 
L -124.8048 299.736 
L -145.6704 11.165703 
L -166.536 11.165703 
L -187.4016 11.165703 
L -208.2672 299.736 
L -229.1328 11.165703 
L -249.9984 299.736 
L -270.864 11.165703 
L -291.7296 11.165703 
L -312.5952 299.736 
L -333.4608 11.165703 
L -354.3264 11.165703 
L -375.192 11.165703 
L -396.0576 299.736 
L -416.9232 299.736 
L -437.7888 11.165703 
L -458.6544 299.736 
L -479.52 11.165703 
L -500.3856 299.736 
L -521.2512 299.736 
L -542.1168 299.736 
L -562.9824 299.736 
L -583.848 299.736 
L -604.7136 299.736 
L -625.5792 299.736 
L -646.4448 299.736 
L -667.3104 11.165703 
L -688.176 299.736 
L -709.0416 299.736 
L -729.9072 299.736 
L -750.7728 11.165703 
z
" clip-path="url(#pccf424cf44)" style="fill: #dff6df; stroke: #dff6df"/>
   </g>
   <g id="FillBetweenPolyCollection_4">
    <path d="M -750.7728 11.165703 
L -750.7728 11.165703 
L -729.9072 299.736 
L -709.0416 299.736 
L -688.176 299.736 
L -667.3104 11.165703 
L -646.4448 299.736 
L -625.5792 299.736 
L -604.7136 299.736 
L -583.848 299.736 
L -562.9824 299.736 
L -542.1168 299.736 
L -521.2512 299.736 
L -500.3856 299.736 
L -479.52 11.165703 
L -458.6544 299.736 
L -437.7888 11.165703 
L -416.9232 299.736 
L -396.0576 299.736 
L -375.192 11.165703 
L -354.3264 11.165703 
L -333.4608 11.165703 
L -312.5952 299.736 
L -291.7296 11.165703 
L -270.864 11.165703 
L -249.9984 299.736 
L -229.1328 11.165703 
L -208.2672 299.736 
L -187.4016 11.165703 
L -166.536 11.165703 
L -145.6704 11.165703 
L -124.8048 299.736 
L -103.9392 11.165703 
L -83.0736 11.165703 
L -62.208 11.165703 
L -41.3424 11.165703 
L -20.4768 11.165703 
L 0.3888 11.165703 
L 21.2544 11.165703 
L 42.12 59.260752 
L 62.9856 11.165703 
L 83.8512 11.165703 
L 104.7168 126.593822 
L 125.5824 107.355802 
L 146.448 107.355802 
L 167.3136 107.355802 
L 188.1792 83.308277 
L 209.0448 55.561133 
L 229.9104 31.777867 
L 250.776 52.390031 
L 271.6416 59.260752 
L 292.5072 11.165703 
L 313.3728 11.165703 
L 334.2384 93.614359 
L 355.104 107.355802 
L 375.9696 11.165703 
L 396.8352 52.390031 
L 417.7008 59.260752 
L 438.5664 11.165703 
L 459.432 113.014043 
L 480.2976 63.63303 
L 501.1632 52.390031 
L 522.0288 155.450851 
L 542.8944 52.390031 
L 563.76 97.736792 
L 563.76 40.022733 
L 563.76 40.022733 
L 542.8944 11.165703 
L 522.0288 40.022733 
L 501.1632 11.165703 
L 480.2976 63.63303 
L 459.432 45.11515 
L 438.5664 11.165703 
L 417.7008 59.260752 
L 396.8352 31.777867 
L 375.9696 11.165703 
L 355.104 107.355802 
L 334.2384 93.614359 
L 313.3728 11.165703 
L 292.5072 11.165703 
L 271.6416 59.260752 
L 250.776 52.390031 
L 229.9104 31.777867 
L 209.0448 55.561133 
L 188.1792 83.308277 
L 167.3136 107.355802 
L 146.448 107.355802 
L 125.5824 107.355802 
L 104.7168 126.593822 
L 83.8512 11.165703 
L 62.9856 11.165703 
L 42.12 59.260752 
L 21.2544 11.165703 
L 0.3888 11.165703 
L -20.4768 11.165703 
L -41.3424 11.165703 
L -62.208 11.165703 
L -83.0736 11.165703 
L -103.9392 11.165703 
L -124.8048 299.736 
L -145.6704 11.165703 
L -166.536 11.165703 
L -187.4016 11.165703 
L -208.2672 299.736 
L -229.1328 11.165703 
L -249.9984 299.736 
L -270.864 11.165703 
L -291.7296 11.165703 
L -312.5952 299.736 
L -333.4608 11.165703 
L -354.3264 11.165703 
L -375.192 11.165703 
L -396.0576 299.736 
L -416.9232 299.736 
L -437.7888 11.165703 
L -458.6544 299.736 
L -479.52 11.165703 
L -500.3856 299.736 
L -521.2512 299.736 
L -542.1168 299.736 
L -562.9824 299.736 
L -583.848 299.736 
L -604.7136 299.736 
L -625.5792 299.736 
L -646.4448 299.736 
L -667.3104 11.165703 
L -688.176 299.736 
L -709.0416 299.736 
L -729.9072 299.736 
L -750.7728 11.165703 
z
" clip-path="url(#pccf424cf44)" style="fill: #f7d4d4; stroke: #f7d4d4"/>
   </g>
   <g id="FillBetweenPolyCollection_5">
    <path d="M -750.7728 11.165703 
L -750.7728 11.165703 
L -729.9072 299.736 
L -709.0416 299.736 
L -688.176 299.736 
L -667.3104 11.165703 
L -646.4448 299.736 
L -625.5792 299.736 
L -604.7136 299.736 
L -583.848 299.736 
L -562.9824 299.736 
L -542.1168 299.736 
L -521.2512 299.736 
L -500.3856 299.736 
L -479.52 11.165703 
L -458.6544 299.736 
L -437.7888 11.165703 
L -416.9232 299.736 
L -396.0576 299.736 
L -375.192 11.165703 
L -354.3264 11.165703 
L -333.4608 11.165703 
L -312.5952 299.736 
L -291.7296 11.165703 
L -270.864 11.165703 
L -249.9984 299.736 
L -229.1328 11.165703 
L -208.2672 299.736 
L -187.4016 11.165703 
L -166.536 11.165703 
L -145.6704 11.165703 
L -124.8048 299.736 
L -103.9392 11.165703 
L -83.0736 11.165703 
L -62.208 11.165703 
L -41.3424 11.165703 
L -20.4768 11.165703 
L 0.3888 11.165703 
L 21.2544 11.165703 
L 42.12 59.260752 
L 62.9856 11.165703 
L 83.8512 11.165703 
L 104.7168 126.593822 
L 125.5824 107.355802 
L 146.448 107.355802 
L 167.3136 107.355802 
L 188.1792 83.308277 
L 209.0448 55.561133 
L 229.9104 31.777867 
L 250.776 52.390031 
L 271.6416 59.260752 
L 292.5072 11.165703 
L 313.3728 11.165703 
L 334.2384 93.614359 
L 355.104 107.355802 
L 375.9696 11.165703 
L 396.8352 31.777867 
L 417.7008 59.260752 
L 438.5664 11.165703 
L 459.432 45.11515 
L 480.2976 63.63303 
L 501.1632 11.165703 
L 522.0288 40.022733 
L 542.8944 11.165703 
L 563.76 40.022733 
L 563.76 40.022733 
L 563.76 40.022733 
L 542.8944 11.165703 
L 522.0288 11.165703 
L 501.1632 11.165703 
L 480.2976 37.399366 
L 459.432 45.11515 
L 438.5664 11.165703 
L 417.7008 11.165703 
L 396.8352 31.777867 
L 375.9696 11.165703 
L 355.104 107.355802 
L 334.2384 93.614359 
L 313.3728 11.165703 
L 292.5072 11.165703 
L 271.6416 11.165703 
L 250.776 52.390031 
L 229.9104 11.165703 
L 209.0448 33.363418 
L 188.1792 47.23699 
L 167.3136 107.355802 
L 146.448 107.355802 
L 125.5824 107.355802 
L 104.7168 126.593822 
L 83.8512 11.165703 
L 62.9856 11.165703 
L 42.12 11.165703 
L 21.2544 11.165703 
L 0.3888 11.165703 
L -20.4768 11.165703 
L -41.3424 11.165703 
L -62.208 11.165703 
L -83.0736 11.165703 
L -103.9392 11.165703 
L -124.8048 299.736 
L -145.6704 11.165703 
L -166.536 11.165703 
L -187.4016 11.165703 
L -208.2672 299.736 
L -229.1328 11.165703 
L -249.9984 299.736 
L -270.864 11.165703 
L -291.7296 11.165703 
L -312.5952 299.736 
L -333.4608 11.165703 
L -354.3264 11.165703 
L -375.192 11.165703 
L -396.0576 299.736 
L -416.9232 299.736 
L -437.7888 11.165703 
L -458.6544 299.736 
L -479.52 11.165703 
L -500.3856 299.736 
L -521.2512 299.736 
L -542.1168 299.736 
L -562.9824 299.736 
L -583.848 299.736 
L -604.7136 299.736 
L -625.5792 299.736 
L -646.4448 299.736 
L -667.3104 11.165703 
L -688.176 299.736 
L -709.0416 299.736 
L -729.9072 299.736 
L -750.7728 11.165703 
z
" clip-path="url(#pccf424cf44)" style="fill: #e2d6ed; stroke: #e2d6ed"/>
   </g>
   <g id="FillBetweenPolyCollection_6">
    <path d="M -750.7728 11.165703 
L -750.7728 11.165703 
L -729.9072 299.736 
L -709.0416 299.736 
L -688.176 299.736 
L -667.3104 11.165703 
L -646.4448 299.736 
L -625.5792 299.736 
L -604.7136 299.736 
L -583.848 299.736 
L -562.9824 299.736 
L -542.1168 299.736 
L -521.2512 299.736 
L -500.3856 299.736 
L -479.52 11.165703 
L -458.6544 299.736 
L -437.7888 11.165703 
L -416.9232 299.736 
L -396.0576 299.736 
L -375.192 11.165703 
L -354.3264 11.165703 
L -333.4608 11.165703 
L -312.5952 299.736 
L -291.7296 11.165703 
L -270.864 11.165703 
L -249.9984 299.736 
L -229.1328 11.165703 
L -208.2672 299.736 
L -187.4016 11.165703 
L -166.536 11.165703 
L -145.6704 11.165703 
L -124.8048 299.736 
L -103.9392 11.165703 
L -83.0736 11.165703 
L -62.208 11.165703 
L -41.3424 11.165703 
L -20.4768 11.165703 
L 0.3888 11.165703 
L 21.2544 11.165703 
L 42.12 11.165703 
L 62.9856 11.165703 
L 83.8512 11.165703 
L 104.7168 126.593822 
L 125.5824 107.355802 
L 146.448 107.355802 
L 167.3136 107.355802 
L 188.1792 47.23699 
L 209.0448 33.363418 
L 229.9104 11.165703 
L 250.776 52.390031 
L 271.6416 11.165703 
L 292.5072 11.165703 
L 313.3728 11.165703 
L 334.2384 93.614359 
L 355.104 107.355802 
L 375.9696 11.165703 
L 396.8352 31.777867 
L 417.7008 11.165703 
L 438.5664 11.165703 
L 459.432 45.11515 
L 480.2976 37.399366 
L 501.1632 11.165703 
L 522.0288 11.165703 
L 542.8944 11.165703 
L 563.76 40.022733 
L 563.76 11.165703 
L 563.76 11.165703 
L 542.8944 11.165703 
L 522.0288 11.165703 
L 501.1632 11.165703 
L 480.2976 11.165703 
L 459.432 11.165703 
L 438.5664 11.165703 
L 417.7008 11.165703 
L 396.8352 11.165703 
L 375.9696 11.165703 
L 355.104 11.165703 
L 334.2384 11.165703 
L 313.3728 11.165703 
L 292.5072 11.165703 
L 271.6416 11.165703 
L 250.776 11.165703 
L 229.9104 11.165703 
L 209.0448 11.165703 
L 188.1792 11.165703 
L 167.3136 11.165703 
L 146.448 11.165703 
L 125.5824 11.165703 
L 104.7168 11.165703 
L 83.8512 11.165703 
L 62.9856 11.165703 
L 42.12 11.165703 
L 21.2544 11.165703 
L 0.3888 11.165703 
L -20.4768 11.165703 
L -41.3424 11.165703 
L -62.208 11.165703 
L -83.0736 11.165703 
L -103.9392 11.165703 
L -124.8048 299.736 
L -145.6704 11.165703 
L -166.536 11.165703 
L -187.4016 11.165703 
L -208.2672 299.736 
L -229.1328 11.165703 
L -249.9984 299.736 
L -270.864 11.165703 
L -291.7296 11.165703 
L -312.5952 299.736 
L -333.4608 11.165703 
L -354.3264 11.165703 
L -375.192 11.165703 
L -396.0576 299.736 
L -416.9232 299.736 
L -437.7888 11.165703 
L -458.6544 299.736 
L -479.52 11.165703 
L -500.3856 299.736 
L -521.2512 299.736 
L -542.1168 299.736 
L -562.9824 299.736 
L -583.848 299.736 
L -604.7136 299.736 
L -625.5792 299.736 
L -646.4448 299.736 
L -667.3104 11.165703 
L -688.176 299.736 
L -709.0416 299.736 
L -729.9072 299.736 
L -750.7728 11.165703 
z
" clip-path="url(#pccf424cf44)" style="fill: #f0e5e3; stroke: #f0e5e3"/>
   </g>
   <g id="line2d_1">
    <path d="M -1 11.165703 
L 0.3888 11.165703 
L 21.2544 11.165703 
L 42.12 11.165703 
L 62.9856 11.165703 
L 83.8512 11.165703 
L 104.7168 11.165703 
L 125.5824 11.165703 
L 146.448 11.165703 
L 167.3136 11.165703 
L 188.1792 11.165703 
L 209.0448 11.165703 
L 229.9104 11.165703 
L 250.776 11.165703 
L 271.6416 11.165703 
L 292.5072 11.165703 
L 313.3728 11.165703 
L 334.2384 11.165703 
L 355.104 11.165703 
L 375.9696 11.165703 
L 396.8352 11.165703 
L 417.7008 11.165703 
L 438.5664 11.165703 
L 459.432 11.165703 
L 480.2976 11.165703 
L 501.1632 11.165703 
L 522.0288 11.165703 
L 542.8944 11.165703 
L 563.76 11.165703 
" clip-path="url(#pccf424cf44)" style="fill: none; stroke: #8c564b; stroke-width: 1.5; stroke-linecap: square"/>
   </g>
   <g id="matplotlib.axis_1">
    <g id="xtick_1">
     <g id="line2d_2">
      <defs>
       <path id="m39c1009191" d="M 0 0 
L 0 3.5 
" style="stroke: #000000; stroke-width: 0.8"/>
      </defs>
      <g>
       <use xlink:href="#m39c1009191" x="42.12" y="299.736" style="stroke: #000000; stroke-width: 0.8"/>
      </g>
     </g>
     <g id="text_1">
      <!-- 2000 -->
      <g transform="translate(29.395 314.334437) scale(0.1 -0.1)">
       <defs>
        <path id="DejaVuSans-32" d="M 1228 531 
L 3431 531 
L 3431 0 
L 469 0 
L 469 531 
Q 828 903 1448 1529 
Q 2069 2156 2228 2338 
Q 2531 2678 2651 2914 
Q 2772 3150 2772 3378 
Q 2772 3750 2511 3984 
Q 2250 4219 1831 4219 
Q 1534 4219 1204 4116 
Q 875 4013 500 3803 
L 500 4441 
Q 881 4594 1212 4672 
Q 1544 4750 1819 4750 
Q 2544 4750 2975 4387 
Q 3406 4025 3406 3419 
Q 3406 3131 3298 2873 
Q 3191 2616 2906 2266 
Q 2828 2175 2409 1742 
Q 1991 1309 1228 531 
z
" transform="scale(0.015625)"/>
        <path id="DejaVuSans-30" d="M 2034 4250 
Q 1547 4250 1301 3770 
Q 1056 3291 1056 2328 
Q 1056 1369 1301 889 
Q 1547 409 2034 409 
Q 2525 409 2770 889 
Q 3016 1369 3016 2328 
Q 3016 3291 2770 3770 
Q 2525 4250 2034 4250 
z
M 2034 4750 
Q 2819 4750 3233 4129 
Q 3647 3509 3647 2328 
Q 3647 1150 3233 529 
Q 2819 -91 2034 -91 
Q 1250 -91 836 529 
Q 422 1150 422 2328 
Q 422 3509 836 4129 
Q 1250 4750 2034 4750 
z
" transform="scale(0.015625)"/>
       </defs>
       <use xlink:href="#DejaVuSans-32"/>
       <use xlink:href="#DejaVuSans-30" transform="translate(63.623047 0)"/>
       <use xlink:href="#DejaVuSans-30" transform="translate(127.246094 0)"/>
       <use xlink:href="#DejaVuSans-30" transform="translate(190.869141 0)"/>
      </g>
     </g>
    </g>
    <g id="xtick_2">
     <g id="line2d_3">
      <g>
       <use xlink:href="#m39c1009191" x="146.448" y="299.736" style="stroke: #000000; stroke-width: 0.8"/>
      </g>
     </g>
     <g id="text_2">
      <!-- 2005 -->
      <g transform="translate(133.723 314.334437) scale(0.1 -0.1)">
       <defs>
        <path id="DejaVuSans-35" d="M 691 4666 
L 3169 4666 
L 3169 4134 
L 1269 4134 
L 1269 2991 
Q 1406 3038 1543 3061 
Q 1681 3084 1819 3084 
Q 2600 3084 3056 2656 
Q 3513 2228 3513 1497 
Q 3513 744 3044 326 
Q 2575 -91 1722 -91 
Q 1428 -91 1123 -41 
Q 819 9 494 109 
L 494 744 
Q 775 591 1075 516 
Q 1375 441 1709 441 
Q 2250 441 2565 725 
Q 2881 1009 2881 1497 
Q 2881 1984 2565 2268 
Q 2250 2553 1709 2553 
Q 1456 2553 1204 2497 
Q 953 2441 691 2322 
L 691 4666 
z
" transform="scale(0.015625)"/>
       </defs>
       <use xlink:href="#DejaVuSans-32"/>
       <use xlink:href="#DejaVuSans-30" transform="translate(63.623047 0)"/>
       <use xlink:href="#DejaVuSans-30" transform="translate(127.246094 0)"/>
       <use xlink:href="#DejaVuSans-35" transform="translate(190.869141 0)"/>
      </g>
     </g>
    </g>
    <g id="xtick_3">
     <g id="line2d_4">
      <g>
       <use xlink:href="#m39c1009191" x="250.776" y="299.736" style="stroke: #000000; stroke-width: 0.8"/>
      </g>
     </g>
     <g id="text_3">
      <!-- 2010 -->
      <g transform="translate(238.051 314.334437) scale(0.1 -0.1)">
       <defs>
        <path id="DejaVuSans-31" d="M 794 531 
L 1825 531 
L 1825 4091 
L 703 3866 
L 703 4441 
L 1819 4666 
L 2450 4666 
L 2450 531 
L 3481 531 
L 3481 0 
L 794 0 
L 794 531 
z
" transform="scale(0.015625)"/>
       </defs>
       <use xlink:href="#DejaVuSans-32"/>
       <use xlink:href="#DejaVuSans-30" transform="translate(63.623047 0)"/>
       <use xlink:href="#DejaVuSans-31" transform="translate(127.246094 0)"/>
       <use xlink:href="#DejaVuSans-30" transform="translate(190.869141 0)"/>
      </g>
     </g>
    </g>
    <g id="xtick_4">
     <g id="line2d_5">
      <g>
       <use xlink:href="#m39c1009191" x="355.104" y="299.736" style="stroke: #000000; stroke-width: 0.8"/>
      </g>
     </g>
     <g id="text_4">
      <!-- 2015 -->
      <g transform="translate(342.379 314.334437) scale(0.1 -0.1)">
       <use xlink:href="#DejaVuSans-32"/>
       <use xlink:href="#DejaVuSans-30" transform="translate(63.623047 0)"/>
       <use xlink:href="#DejaVuSans-31" transform="translate(127.246094 0)"/>
       <use xlink:href="#DejaVuSans-35" transform="translate(190.869141 0)"/>
      </g>
     </g>
    </g>
    <g id="xtick_5">
     <g id="line2d_6">
      <g>
       <use xlink:href="#m39c1009191" x="459.432" y="299.736" style="stroke: #000000; stroke-width: 0.8"/>
      </g>
     </g>
     <g id="text_5">
      <!-- 2020 -->
      <g transform="translate(446.707 314.334437) scale(0.1 -0.1)">
       <use xlink:href="#DejaVuSans-32"/>
       <use xlink:href="#DejaVuSans-30" transform="translate(63.623047 0)"/>
       <use xlink:href="#DejaVuSans-32" transform="translate(127.246094 0)"/>
       <use xlink:href="#DejaVuSans-30" transform="translate(190.869141 0)"/>
      </g>
     </g>
    </g>
    <g id="xtick_6">
     <g id="line2d_7">
      <g>
       <use xlink:href="#m39c1009191" x="563.76" y="299.736" style="stroke: #000000; stroke-width: 0.8"/>
      </g>
     </g>
     <g id="text_6">
      <!-- 2025 -->
      <g transform="translate(551.035 314.334437) scale(0.1 -0.1)">
       <use xlink:href="#DejaVuSans-32"/>
       <use xlink:href="#DejaVuSans-30" transform="translate(63.623047 0)"/>
       <use xlink:href="#DejaVuSans-32" transform="translate(127.246094 0)"/>
       <use xlink:href="#DejaVuSans-35" transform="translate(190.869141 0)"/>
      </g>
     </g>
    </g>
    <g id="text_7">
     <!-- Models published to date -->
     <g transform="translate(239.940781 328.012563) scale(0.1 -0.1)">
      <defs>
       <path id="DejaVuSans-4d" d="M 628 4666 
L 1569 4666 
L 2759 1491 
L 3956 4666 
L 4897 4666 
L 4897 0 
L 4281 0 
L 4281 4097 
L 3078 897 
L 2444 897 
L 1241 4097 
L 1241 0 
L 628 0 
L 628 4666 
z
" transform="scale(0.015625)"/>
       <path id="DejaVuSans-6f" d="M 1959 3097 
Q 1497 3097 1228 2736 
Q 959 2375 959 1747 
Q 959 1119 1226 758 
Q 1494 397 1959 397 
Q 2419 397 2687 759 
Q 2956 1122 2956 1747 
Q 2956 2369 2687 2733 
Q 2419 3097 1959 3097 
z
M 1959 3584 
Q 2709 3584 3137 3096 
Q 3566 2609 3566 1747 
Q 3566 888 3137 398 
Q 2709 -91 1959 -91 
Q 1206 -91 779 398 
Q 353 888 353 1747 
Q 353 2609 779 3096 
Q 1206 3584 1959 3584 
z
" transform="scale(0.015625)"/>
       <path id="DejaVuSans-64" d="M 2906 2969 
L 2906 4863 
L 3481 4863 
L 3481 0 
L 2906 0 
L 2906 525 
Q 2725 213 2448 61 
Q 2172 -91 1784 -91 
Q 1150 -91 751 415 
Q 353 922 353 1747 
Q 353 2572 751 3078 
Q 1150 3584 1784 3584 
Q 2172 3584 2448 3432 
Q 2725 3281 2906 2969 
z
M 947 1747 
Q 947 1113 1208 752 
Q 1469 391 1925 391 
Q 2381 391 2643 752 
Q 2906 1113 2906 1747 
Q 2906 2381 2643 2742 
Q 2381 3103 1925 3103 
Q 1469 3103 1208 2742 
Q 947 2381 947 1747 
z
" transform="scale(0.015625)"/>
       <path id="DejaVuSans-65" d="M 3597 1894 
L 3597 1613 
L 953 1613 
Q 991 1019 1311 708 
Q 1631 397 2203 397 
Q 2534 397 2845 478 
Q 3156 559 3463 722 
L 3463 178 
Q 3153 47 2828 -22 
Q 2503 -91 2169 -91 
Q 1331 -91 842 396 
Q 353 884 353 1716 
Q 353 2575 817 3079 
Q 1281 3584 2069 3584 
Q 2775 3584 3186 3129 
Q 3597 2675 3597 1894 
z
M 3022 2063 
Q 3016 2534 2758 2815 
Q 2500 3097 2075 3097 
Q 1594 3097 1305 2825 
Q 1016 2553 972 2059 
L 3022 2063 
z
" transform="scale(0.015625)"/>
       <path id="DejaVuSans-6c" d="M 603 4863 
L 1178 4863 
L 1178 0 
L 603 0 
L 603 4863 
z
" transform="scale(0.015625)"/>
       <path id="DejaVuSans-73" d="M 2834 3397 
L 2834 2853 
Q 2591 2978 2328 3040 
Q 2066 3103 1784 3103 
Q 1356 3103 1142 2972 
Q 928 2841 928 2578 
Q 928 2378 1081 2264 
Q 1234 2150 1697 2047 
L 1894 2003 
Q 2506 1872 2764 1633 
Q 3022 1394 3022 966 
Q 3022 478 2636 193 
Q 2250 -91 1575 -91 
Q 1294 -91 989 -36 
Q 684 19 347 128 
L 347 722 
Q 666 556 975 473 
Q 1284 391 1588 391 
Q 1994 391 2212 530 
Q 2431 669 2431 922 
Q 2431 1156 2273 1281 
Q 2116 1406 1581 1522 
L 1381 1569 
Q 847 1681 609 1914 
Q 372 2147 372 2553 
Q 372 3047 722 3315 
Q 1072 3584 1716 3584 
Q 2034 3584 2315 3537 
Q 2597 3491 2834 3397 
z
" transform="scale(0.015625)"/>
       <path id="DejaVuSans-20" transform="scale(0.015625)"/>
       <path id="DejaVuSans-70" d="M 1159 525 
L 1159 -1331 
L 581 -1331 
L 581 3500 
L 1159 3500 
L 1159 2969 
Q 1341 3281 1617 3432 
Q 1894 3584 2278 3584 
Q 2916 3584 3314 3078 
Q 3713 2572 3713 1747 
Q 3713 922 3314 415 
Q 2916 -91 2278 -91 
Q 1894 -91 1617 61 
Q 1341 213 1159 525 
z
M 3116 1747 
Q 3116 2381 2855 2742 
Q 2594 3103 2138 3103 
Q 1681 3103 1420 2742 
Q 1159 2381 1159 1747 
Q 1159 1113 1420 752 
Q 1681 391 2138 391 
Q 2594 391 2855 752 
Q 3116 1113 3116 1747 
z
" transform="scale(0.015625)"/>
       <path id="DejaVuSans-75" d="M 544 1381 
L 544 3500 
L 1119 3500 
L 1119 1403 
Q 1119 906 1312 657 
Q 1506 409 1894 409 
Q 2359 409 2629 706 
Q 2900 1003 2900 1516 
L 2900 3500 
L 3475 3500 
L 3475 0 
L 2900 0 
L 2900 538 
Q 2691 219 2414 64 
Q 2138 -91 1772 -91 
Q 1169 -91 856 284 
Q 544 659 544 1381 
z
M 1991 3584 
L 1991 3584 
z
" transform="scale(0.015625)"/>
       <path id="DejaVuSans-62" d="M 3116 1747 
Q 3116 2381 2855 2742 
Q 2594 3103 2138 3103 
Q 1681 3103 1420 2742 
Q 1159 2381 1159 1747 
Q 1159 1113 1420 752 
Q 1681 391 2138 391 
Q 2594 391 2855 752 
Q 3116 1113 3116 1747 
z
M 1159 2969 
Q 1341 3281 1617 3432 
Q 1894 3584 2278 3584 
Q 2916 3584 3314 3078 
Q 3713 2572 3713 1747 
Q 3713 922 3314 415 
Q 2916 -91 2278 -91 
Q 1894 -91 1617 61 
Q 1341 213 1159 525 
L 1159 0 
L 581 0 
L 581 4863 
L 1159 4863 
L 1159 2969 
z
" transform="scale(0.015625)"/>
       <path id="DejaVuSans-69" d="M 603 3500 
L 1178 3500 
L 1178 0 
L 603 0 
L 603 3500 
z
M 603 4863 
L 1178 4863 
L 1178 4134 
L 603 4134 
L 603 4863 
z
" transform="scale(0.015625)"/>
       <path id="DejaVuSans-68" d="M 3513 2113 
L 3513 0 
L 2938 0 
L 2938 2094 
Q 2938 2591 2744 2837 
Q 2550 3084 2163 3084 
Q 1697 3084 1428 2787 
Q 1159 2491 1159 1978 
L 1159 0 
L 581 0 
L 581 4863 
L 1159 4863 
L 1159 2956 
Q 1366 3272 1645 3428 
Q 1925 3584 2291 3584 
Q 2894 3584 3203 3211 
Q 3513 2838 3513 2113 
z
" transform="scale(0.015625)"/>
       <path id="DejaVuSans-74" d="M 1172 4494 
L 1172 3500 
L 2356 3500 
L 2356 3053 
L 1172 3053 
L 1172 1153 
Q 1172 725 1289 603 
Q 1406 481 1766 481 
L 2356 481 
L 2356 0 
L 1766 0 
Q 1100 0 847 248 
Q 594 497 594 1153 
L 594 3053 
L 172 3053 
L 172 3500 
L 594 3500 
L 594 4494 
L 1172 4494 
z
" transform="scale(0.015625)"/>
       <path id="DejaVuSans-61" d="M 2194 1759 
Q 1497 1759 1228 1600 
Q 959 1441 959 1056 
Q 959 750 1161 570 
Q 1363 391 1709 391 
Q 2188 391 2477 730 
Q 2766 1069 2766 1631 
L 2766 1759 
L 2194 1759 
z
M 3341 1997 
L 3341 0 
L 2766 0 
L 2766 531 
Q 2569 213 2275 61 
Q 1981 -91 1556 -91 
Q 1019 -91 701 211 
Q 384 513 384 1019 
Q 384 1609 779 1909 
Q 1175 2209 1959 2209 
L 2766 2209 
L 2766 2266 
Q 2766 2663 2505 2880 
Q 2244 3097 1772 3097 
Q 1472 3097 1187 3025 
Q 903 2953 641 2809 
L 641 3341 
Q 956 3463 1253 3523 
Q 1550 3584 1831 3584 
Q 2591 3584 2966 3190 
Q 3341 2797 3341 1997 
z
" transform="scale(0.015625)"/>
      </defs>
      <use xlink:href="#DejaVuSans-4d"/>
      <use xlink:href="#DejaVuSans-6f" transform="translate(86.279297 0)"/>
      <use xlink:href="#DejaVuSans-64" transform="translate(147.460938 0)"/>
      <use xlink:href="#DejaVuSans-65" transform="translate(210.9375 0)"/>
      <use xlink:href="#DejaVuSans-6c" transform="translate(272.460938 0)"/>
      <use xlink:href="#DejaVuSans-73" transform="translate(300.244141 0)"/>
      <use xlink:href="#DejaVuSans-20" transform="translate(352.34375 0)"/>
      <use xlink:href="#DejaVuSans-70" transform="translate(384.130859 0)"/>
      <use xlink:href="#DejaVuSans-75" transform="translate(447.607422 0)"/>
      <use xlink:href="#DejaVuSans-62" transform="translate(510.986328 0)"/>
      <use xlink:href="#DejaVuSans-6c" transform="translate(574.462891 0)"/>
      <use xlink:href="#DejaVuSans-69" transform="translate(602.246094 0)"/>
      <use xlink:href="#DejaVuSans-73" transform="translate(630.029297 0)"/>
      <use xlink:href="#DejaVuSans-68" transform="translate(682.128906 0)"/>
      <use xlink:href="#DejaVuSans-65" transform="translate(745.507812 0)"/>
      <use xlink:href="#DejaVuSans-64" transform="translate(807.03125 0)"/>
      <use xlink:href="#DejaVuSans-20" transform="translate(870.507812 0)"/>
      <use xlink:href="#DejaVuSans-74" transform="translate(902.294922 0)"/>
      <use xlink:href="#DejaVuSans-6f" transform="translate(941.503906 0)"/>
      <use xlink:href="#DejaVuSans-20" transform="translate(1002.685547 0)"/>
      <use xlink:href="#DejaVuSans-64" transform="translate(1034.472656 0)"/>
      <use xlink:href="#DejaVuSans-61" transform="translate(1097.949219 0)"/>
      <use xlink:href="#DejaVuSans-74" transform="translate(1159.228516 0)"/>
      <use xlink:href="#DejaVuSans-65" transform="translate(1198.4375 0)"/>
     </g>
    </g>
   </g>
   <g id="matplotlib.axis_2">
    <g id="ytick_1">
     <g id="line2d_8">
      <defs>
       <path id="m7b0ba2ed4a" d="M 0 0 
L -3.5 0 
" style="stroke: #000000; stroke-width: 0.8"/>
      </defs>
      <g>
       <use xlink:href="#m7b0ba2ed4a" x="42.12" y="299.736" style="stroke: #000000; stroke-width: 0.8"/>
      </g>
     </g>
     <g id="text_8">
      <!-- 0 -->
      <g transform="translate(28.7575 303.535219) scale(0.1 -0.1)">
       <use xlink:href="#DejaVuSans-30"/>
      </g>
     </g>
    </g>
    <g id="ytick_2">
     <g id="line2d_9">
      <g>
       <use xlink:href="#m7b0ba2ed4a" x="42.12" y="242.021941" style="stroke: #000000; stroke-width: 0.8"/>
      </g>
     </g>
     <g id="text_9">
      <!-- 20 -->
      <g transform="translate(22.395 245.821159) scale(0.1 -0.1)">
       <use xlink:href="#DejaVuSans-32"/>
       <use xlink:href="#DejaVuSans-30" transform="translate(63.623047 0)"/>
      </g>
     </g>
    </g>
    <g id="ytick_3">
     <g id="line2d_10">
      <g>
       <use xlink:href="#m7b0ba2ed4a" x="42.12" y="184.307881" style="stroke: #000000; stroke-width: 0.8"/>
      </g>
     </g>
     <g id="text_10">
      <!-- 40 -->
      <g transform="translate(22.395 188.1071) scale(0.1 -0.1)">
       <defs>
        <path id="DejaVuSans-34" d="M 2419 4116 
L 825 1625 
L 2419 1625 
L 2419 4116 
z
M 2253 4666 
L 3047 4666 
L 3047 1625 
L 3713 1625 
L 3713 1100 
L 3047 1100 
L 3047 0 
L 2419 0 
L 2419 1100 
L 313 1100 
L 313 1709 
L 2253 4666 
z
" transform="scale(0.015625)"/>
       </defs>
       <use xlink:href="#DejaVuSans-34"/>
       <use xlink:href="#DejaVuSans-30" transform="translate(63.623047 0)"/>
      </g>
     </g>
    </g>
    <g id="ytick_4">
     <g id="line2d_11">
      <g>
       <use xlink:href="#m7b0ba2ed4a" x="42.12" y="126.593822" style="stroke: #000000; stroke-width: 0.8"/>
      </g>
     </g>
     <g id="text_11">
      <!-- 60 -->
      <g transform="translate(22.395 130.393041) scale(0.1 -0.1)">
       <defs>
        <path id="DejaVuSans-36" d="M 2113 2584 
Q 1688 2584 1439 2293 
Q 1191 2003 1191 1497 
Q 1191 994 1439 701 
Q 1688 409 2113 409 
Q 2538 409 2786 701 
Q 3034 994 3034 1497 
Q 3034 2003 2786 2293 
Q 2538 2584 2113 2584 
z
M 3366 4563 
L 3366 3988 
Q 3128 4100 2886 4159 
Q 2644 4219 2406 4219 
Q 1781 4219 1451 3797 
Q 1122 3375 1075 2522 
Q 1259 2794 1537 2939 
Q 1816 3084 2150 3084 
Q 2853 3084 3261 2657 
Q 3669 2231 3669 1497 
Q 3669 778 3244 343 
Q 2819 -91 2113 -91 
Q 1303 -91 875 529 
Q 447 1150 447 2328 
Q 447 3434 972 4092 
Q 1497 4750 2381 4750 
Q 2619 4750 2861 4703 
Q 3103 4656 3366 4563 
z
" transform="scale(0.015625)"/>
       </defs>
       <use xlink:href="#DejaVuSans-36"/>
       <use xlink:href="#DejaVuSans-30" transform="translate(63.623047 0)"/>
      </g>
     </g>
    </g>
    <g id="ytick_5">
     <g id="line2d_12">
      <g>
       <use xlink:href="#m7b0ba2ed4a" x="42.12" y="68.879762" style="stroke: #000000; stroke-width: 0.8"/>
      </g>
     </g>
     <g id="text_12">
      <!-- 80 -->
      <g transform="translate(22.395 72.678981) scale(0.1 -0.1)">
       <defs>
        <path id="DejaVuSans-38" d="M 2034 2216 
Q 1584 2216 1326 1975 
Q 1069 1734 1069 1313 
Q 1069 891 1326 650 
Q 1584 409 2034 409 
Q 2484 409 2743 651 
Q 3003 894 3003 1313 
Q 3003 1734 2745 1975 
Q 2488 2216 2034 2216 
z
M 1403 2484 
Q 997 2584 770 2862 
Q 544 3141 544 3541 
Q 544 4100 942 4425 
Q 1341 4750 2034 4750 
Q 2731 4750 3128 4425 
Q 3525 4100 3525 3541 
Q 3525 3141 3298 2862 
Q 3072 2584 2669 2484 
Q 3125 2378 3379 2068 
Q 3634 1759 3634 1313 
Q 3634 634 3220 271 
Q 2806 -91 2034 -91 
Q 1263 -91 848 271 
Q 434 634 434 1313 
Q 434 1759 690 2068 
Q 947 2378 1403 2484 
z
M 1172 3481 
Q 1172 3119 1398 2916 
Q 1625 2713 2034 2713 
Q 2441 2713 2670 2916 
Q 2900 3119 2900 3481 
Q 2900 3844 2670 4047 
Q 2441 4250 2034 4250 
Q 1625 4250 1398 4047 
Q 1172 3844 1172 3481 
z
" transform="scale(0.015625)"/>
       </defs>
       <use xlink:href="#DejaVuSans-38"/>
       <use xlink:href="#DejaVuSans-30" transform="translate(63.623047 0)"/>
      </g>
     </g>
    </g>
    <g id="ytick_6">
     <g id="line2d_13">
      <g>
       <use xlink:href="#m7b0ba2ed4a" x="42.12" y="11.165703" style="stroke: #000000; stroke-width: 0.8"/>
      </g>
     </g>
     <g id="text_13">
      <!-- 100 -->
      <g transform="translate(16.0325 14.964922) scale(0.1 -0.1)">
       <use xlink:href="#DejaVuSans-31"/>
       <use xlink:href="#DejaVuSans-30" transform="translate(63.623047 0)"/>
       <use xlink:href="#DejaVuSans-30" transform="translate(127.246094 0)"/>
      </g>
     </g>
    </g>
    <g id="text_14">
     <!-- Percentage split by code type -->
     <g transform="translate(9.952812 228.367375) rotate(-90) scale(0.1 -0.1)">
      <defs>
       <path id="DejaVuSans-50" d="M 1259 4147 
L 1259 2394 
L 2053 2394 
Q 2494 2394 2734 2622 
Q 2975 2850 2975 3272 
Q 2975 3691 2734 3919 
Q 2494 4147 2053 4147 
L 1259 4147 
z
M 628 4666 
L 2053 4666 
Q 2838 4666 3239 4311 
Q 3641 3956 3641 3272 
Q 3641 2581 3239 2228 
Q 2838 1875 2053 1875 
L 1259 1875 
L 1259 0 
L 628 0 
L 628 4666 
z
" transform="scale(0.015625)"/>
       <path id="DejaVuSans-72" d="M 2631 2963 
Q 2534 3019 2420 3045 
Q 2306 3072 2169 3072 
Q 1681 3072 1420 2755 
Q 1159 2438 1159 1844 
L 1159 0 
L 581 0 
L 581 3500 
L 1159 3500 
L 1159 2956 
Q 1341 3275 1631 3429 
Q 1922 3584 2338 3584 
Q 2397 3584 2469 3576 
Q 2541 3569 2628 3553 
L 2631 2963 
z
" transform="scale(0.015625)"/>
       <path id="DejaVuSans-63" d="M 3122 3366 
L 3122 2828 
Q 2878 2963 2633 3030 
Q 2388 3097 2138 3097 
Q 1578 3097 1268 2742 
Q 959 2388 959 1747 
Q 959 1106 1268 751 
Q 1578 397 2138 397 
Q 2388 397 2633 464 
Q 2878 531 3122 666 
L 3122 134 
Q 2881 22 2623 -34 
Q 2366 -91 2075 -91 
Q 1284 -91 818 406 
Q 353 903 353 1747 
Q 353 2603 823 3093 
Q 1294 3584 2113 3584 
Q 2378 3584 2631 3529 
Q 2884 3475 3122 3366 
z
" transform="scale(0.015625)"/>
       <path id="DejaVuSans-6e" d="M 3513 2113 
L 3513 0 
L 2938 0 
L 2938 2094 
Q 2938 2591 2744 2837 
Q 2550 3084 2163 3084 
Q 1697 3084 1428 2787 
Q 1159 2491 1159 1978 
L 1159 0 
L 581 0 
L 581 3500 
L 1159 3500 
L 1159 2956 
Q 1366 3272 1645 3428 
Q 1925 3584 2291 3584 
Q 2894 3584 3203 3211 
Q 3513 2838 3513 2113 
z
" transform="scale(0.015625)"/>
       <path id="DejaVuSans-67" d="M 2906 1791 
Q 2906 2416 2648 2759 
Q 2391 3103 1925 3103 
Q 1463 3103 1205 2759 
Q 947 2416 947 1791 
Q 947 1169 1205 825 
Q 1463 481 1925 481 
Q 2391 481 2648 825 
Q 2906 1169 2906 1791 
z
M 3481 434 
Q 3481 -459 3084 -895 
Q 2688 -1331 1869 -1331 
Q 1566 -1331 1297 -1286 
Q 1028 -1241 775 -1147 
L 775 -588 
Q 1028 -725 1275 -790 
Q 1522 -856 1778 -856 
Q 2344 -856 2625 -561 
Q 2906 -266 2906 331 
L 2906 616 
Q 2728 306 2450 153 
Q 2172 0 1784 0 
Q 1141 0 747 490 
Q 353 981 353 1791 
Q 353 2603 747 3093 
Q 1141 3584 1784 3584 
Q 2172 3584 2450 3431 
Q 2728 3278 2906 2969 
L 2906 3500 
L 3481 3500 
L 3481 434 
z
" transform="scale(0.015625)"/>
       <path id="DejaVuSans-79" d="M 2059 -325 
Q 1816 -950 1584 -1140 
Q 1353 -1331 966 -1331 
L 506 -1331 
L 506 -850 
L 844 -850 
Q 1081 -850 1212 -737 
Q 1344 -625 1503 -206 
L 1606 56 
L 191 3500 
L 800 3500 
L 1894 763 
L 2988 3500 
L 3597 3500 
L 2059 -325 
z
" transform="scale(0.015625)"/>
      </defs>
      <use xlink:href="#DejaVuSans-50"/>
      <use xlink:href="#DejaVuSans-65" transform="translate(56.677734 0)"/>
      <use xlink:href="#DejaVuSans-72" transform="translate(118.201172 0)"/>
      <use xlink:href="#DejaVuSans-63" transform="translate(157.064453 0)"/>
      <use xlink:href="#DejaVuSans-65" transform="translate(212.044922 0)"/>
      <use xlink:href="#DejaVuSans-6e" transform="translate(273.568359 0)"/>
      <use xlink:href="#DejaVuSans-74" transform="translate(336.947266 0)"/>
      <use xlink:href="#DejaVuSans-61" transform="translate(376.15625 0)"/>
      <use xlink:href="#DejaVuSans-67" transform="translate(437.435547 0)"/>
      <use xlink:href="#DejaVuSans-65" transform="translate(500.912109 0)"/>
      <use xlink:href="#DejaVuSans-20" transform="translate(562.435547 0)"/>
      <use xlink:href="#DejaVuSans-73" transform="translate(594.222656 0)"/>
      <use xlink:href="#DejaVuSans-70" transform="translate(646.322266 0)"/>
      <use xlink:href="#DejaVuSans-6c" transform="translate(709.798828 0)"/>
      <use xlink:href="#DejaVuSans-69" transform="translate(737.582031 0)"/>
      <use xlink:href="#DejaVuSans-74" transform="translate(765.365234 0)"/>
      <use xlink:href="#DejaVuSans-20" transform="translate(804.574219 0)"/>
      <use xlink:href="#DejaVuSans-62" transform="translate(836.361328 0)"/>
      <use xlink:href="#DejaVuSans-79" transform="translate(899.837891 0)"/>
      <use xlink:href="#DejaVuSans-20" transform="translate(959.017578 0)"/>
      <use xlink:href="#DejaVuSans-63" transform="translate(990.804688 0)"/>
      <use xlink:href="#DejaVuSans-6f" transform="translate(1045.785156 0)"/>
      <use xlink:href="#DejaVuSans-64" transform="translate(1106.966797 0)"/>
      <use xlink:href="#DejaVuSans-65" transform="translate(1170.443359 0)"/>
      <use xlink:href="#DejaVuSans-20" transform="translate(1231.966797 0)"/>
      <use xlink:href="#DejaVuSans-74" transform="translate(1263.753906 0)"/>
      <use xlink:href="#DejaVuSans-79" transform="translate(1302.962891 0)"/>
      <use xlink:href="#DejaVuSans-70" transform="translate(1362.142578 0)"/>
      <use xlink:href="#DejaVuSans-65" transform="translate(1425.619141 0)"/>
     </g>
    </g>
   </g>
   <g id="line2d_14">
    <path d="M -1 11.165703 
L 0.3888 11.165703 
L 21.2544 11.165703 
L 42.12 11.165703 
L 62.9856 11.165703 
L 83.8512 11.165703 
L 104.7168 126.593822 
L 125.5824 107.355802 
L 146.448 107.355802 
L 167.3136 107.355802 
L 188.1792 47.23699 
L 209.0448 33.363418 
L 229.9104 11.165703 
L 250.776 52.390031 
L 271.6416 11.165703 
L 292.5072 11.165703 
L 313.3728 11.165703 
L 334.2384 93.614359 
L 355.104 107.355802 
L 375.9696 11.165703 
L 396.8352 31.777867 
L 417.7008 11.165703 
L 438.5664 11.165703 
L 459.432 45.11515 
L 480.2976 37.399366 
L 501.1632 11.165703 
L 522.0288 11.165703 
L 542.8944 11.165703 
L 563.76 40.022733 
" clip-path="url(#pccf424cf44)" style="fill: none; stroke: #9467bd; stroke-width: 1.5; stroke-linecap: square"/>
   </g>
   <g id="patch_3">
    <path d="M 42.12 299.736 
L 42.12 8.28 
" style="fill: none; stroke: #000000; stroke-width: 0.8; stroke-linejoin: miter; stroke-linecap: square"/>
   </g>
   <g id="patch_4">
    <path d="M 42.12 299.736 
L 563.76 299.736 
" style="fill: none; stroke: #000000; stroke-width: 0.8; stroke-linejoin: miter; stroke-linecap: square"/>
   </g>
   <g id="line2d_15">
    <path d="M -1 11.165703 
L 0.3888 11.165703 
L 21.2544 11.165703 
L 42.12 59.260752 
L 62.9856 11.165703 
L 83.8512 11.165703 
L 104.7168 126.593822 
L 125.5824 107.355802 
L 146.448 107.355802 
L 167.3136 107.355802 
L 188.1792 83.308277 
L 209.0448 55.561133 
L 229.9104 31.777867 
L 250.776 52.390031 
L 271.6416 59.260752 
L 292.5072 11.165703 
L 313.3728 11.165703 
L 334.2384 93.614359 
L 355.104 107.355802 
L 375.9696 11.165703 
L 396.8352 31.777867 
L 417.7008 59.260752 
L 438.5664 11.165703 
L 459.432 45.11515 
L 480.2976 63.63303 
L 501.1632 11.165703 
L 522.0288 40.022733 
L 542.8944 11.165703 
L 563.76 40.022733 
" clip-path="url(#pccf424cf44)" style="fill: none; stroke: #d62728; stroke-width: 1.5; stroke-linecap: square"/>
   </g>
   <g id="text_15">
    <!-- matlab (40.0%) -->
    <g transform="translate(566.88984 187.067256) scale(0.1 -0.1)">
     <defs>
      <path id="DejaVuSans-6d" d="M 3328 2828 
Q 3544 3216 3844 3400 
Q 4144 3584 4550 3584 
Q 5097 3584 5394 3201 
Q 5691 2819 5691 2113 
L 5691 0 
L 5113 0 
L 5113 2094 
Q 5113 2597 4934 2840 
Q 4756 3084 4391 3084 
Q 3944 3084 3684 2787 
Q 3425 2491 3425 1978 
L 3425 0 
L 2847 0 
L 2847 2094 
Q 2847 2600 2669 2842 
Q 2491 3084 2119 3084 
Q 1678 3084 1418 2786 
Q 1159 2488 1159 1978 
L 1159 0 
L 581 0 
L 581 3500 
L 1159 3500 
L 1159 2956 
Q 1356 3278 1631 3431 
Q 1906 3584 2284 3584 
Q 2666 3584 2933 3390 
Q 3200 3197 3328 2828 
z
" transform="scale(0.015625)"/>
      <path id="DejaVuSans-28" d="M 1984 4856 
Q 1566 4138 1362 3434 
Q 1159 2731 1159 2009 
Q 1159 1288 1364 580 
Q 1569 -128 1984 -844 
L 1484 -844 
Q 1016 -109 783 600 
Q 550 1309 550 2009 
Q 550 2706 781 3412 
Q 1013 4119 1484 4856 
L 1984 4856 
z
" transform="scale(0.015625)"/>
      <path id="DejaVuSans-2e" d="M 684 794 
L 1344 794 
L 1344 0 
L 684 0 
L 684 794 
z
" transform="scale(0.015625)"/>
      <path id="DejaVuSans-25" d="M 4653 2053 
Q 4381 2053 4226 1822 
Q 4072 1591 4072 1178 
Q 4072 772 4226 539 
Q 4381 306 4653 306 
Q 4919 306 5073 539 
Q 5228 772 5228 1178 
Q 5228 1588 5073 1820 
Q 4919 2053 4653 2053 
z
M 4653 2450 
Q 5147 2450 5437 2106 
Q 5728 1763 5728 1178 
Q 5728 594 5436 251 
Q 5144 -91 4653 -91 
Q 4153 -91 3862 251 
Q 3572 594 3572 1178 
Q 3572 1766 3864 2108 
Q 4156 2450 4653 2450 
z
M 1428 4353 
Q 1159 4353 1004 4120 
Q 850 3888 850 3481 
Q 850 3069 1003 2837 
Q 1156 2606 1428 2606 
Q 1700 2606 1854 2837 
Q 2009 3069 2009 3481 
Q 2009 3884 1853 4118 
Q 1697 4353 1428 4353 
z
M 4250 4750 
L 4750 4750 
L 1831 -91 
L 1331 -91 
L 4250 4750 
z
M 1428 4750 
Q 1922 4750 2215 4408 
Q 2509 4066 2509 3481 
Q 2509 2891 2217 2550 
Q 1925 2209 1428 2209 
Q 931 2209 642 2551 
Q 353 2894 353 3481 
Q 353 4063 643 4406 
Q 934 4750 1428 4750 
z
" transform="scale(0.015625)"/>
      <path id="DejaVuSans-29" d="M 513 4856 
L 1013 4856 
Q 1481 4119 1714 3412 
Q 1947 2706 1947 2009 
Q 1947 1309 1714 600 
Q 1481 -109 1013 -844 
L 513 -844 
Q 928 -128 1133 580 
Q 1338 1288 1338 2009 
Q 1338 2731 1133 3434 
Q 928 4138 513 4856 
z
" transform="scale(0.015625)"/>
     </defs>
     <use xlink:href="#DejaVuSans-6d"/>
     <use xlink:href="#DejaVuSans-61" transform="translate(97.412109 0)"/>
     <use xlink:href="#DejaVuSans-74" transform="translate(158.691406 0)"/>
     <use xlink:href="#DejaVuSans-6c" transform="translate(197.900391 0)"/>
     <use xlink:href="#DejaVuSans-61" transform="translate(225.683594 0)"/>
     <use xlink:href="#DejaVuSans-62" transform="translate(286.962891 0)"/>
     <use xlink:href="#DejaVuSans-20" transform="translate(350.439453 0)"/>
     <use xlink:href="#DejaVuSans-28" transform="translate(382.226562 0)"/>
     <use xlink:href="#DejaVuSans-34" transform="translate(421.240234 0)"/>
     <use xlink:href="#DejaVuSans-30" transform="translate(484.863281 0)"/>
     <use xlink:href="#DejaVuSans-2e" transform="translate(548.486328 0)"/>
     <use xlink:href="#DejaVuSans-30" transform="translate(580.273438 0)"/>
     <use xlink:href="#DejaVuSans-25" transform="translate(643.896484 0)"/>
     <use xlink:href="#DejaVuSans-29" transform="translate(738.916016 0)"/>
    </g>
   </g>
   <g id="text_16">
    <!-- cellml (30.0%) -->
    <g transform="translate(566.88984 100.496167) scale(0.1 -0.1)">
     <defs>
      <path id="DejaVuSans-33" d="M 2597 2516 
Q 3050 2419 3304 2112 
Q 3559 1806 3559 1356 
Q 3559 666 3084 287 
Q 2609 -91 1734 -91 
Q 1441 -91 1130 -33 
Q 819 25 488 141 
L 488 750 
Q 750 597 1062 519 
Q 1375 441 1716 441 
Q 2309 441 2620 675 
Q 2931 909 2931 1356 
Q 2931 1769 2642 2001 
Q 2353 2234 1838 2234 
L 1294 2234 
L 1294 2753 
L 1863 2753 
Q 2328 2753 2575 2939 
Q 2822 3125 2822 3475 
Q 2822 3834 2567 4026 
Q 2313 4219 1838 4219 
Q 1578 4219 1281 4162 
Q 984 4106 628 3988 
L 628 4550 
Q 988 4650 1302 4700 
Q 1616 4750 1894 4750 
Q 2613 4750 3031 4423 
Q 3450 4097 3450 3541 
Q 3450 3153 3228 2886 
Q 3006 2619 2597 2516 
z
" transform="scale(0.015625)"/>
     </defs>
     <use xlink:href="#DejaVuSans-63"/>
     <use xlink:href="#DejaVuSans-65" transform="translate(54.980469 0)"/>
     <use xlink:href="#DejaVuSans-6c" transform="translate(116.503906 0)"/>
     <use xlink:href="#DejaVuSans-6c" transform="translate(144.287109 0)"/>
     <use xlink:href="#DejaVuSans-6d" transform="translate(172.070312 0)"/>
     <use xlink:href="#DejaVuSans-6c" transform="translate(269.482422 0)"/>
     <use xlink:href="#DejaVuSans-20" transform="translate(297.265625 0)"/>
     <use xlink:href="#DejaVuSans-28" transform="translate(329.052734 0)"/>
     <use xlink:href="#DejaVuSans-33" transform="translate(368.066406 0)"/>
     <use xlink:href="#DejaVuSans-30" transform="translate(431.689453 0)"/>
     <use xlink:href="#DejaVuSans-2e" transform="translate(495.3125 0)"/>
     <use xlink:href="#DejaVuSans-30" transform="translate(527.099609 0)"/>
     <use xlink:href="#DejaVuSans-25" transform="translate(590.722656 0)"/>
     <use xlink:href="#DejaVuSans-29" transform="translate(685.742188 0)"/>
    </g>
   </g>
   <g id="text_17">
    <!-- myokit (20.0%) -->
    <g transform="translate(566.88984 42.782108) scale(0.1 -0.1)">
     <defs>
      <path id="DejaVuSans-6b" d="M 581 4863 
L 1159 4863 
L 1159 1991 
L 2875 3500 
L 3609 3500 
L 1753 1863 
L 3688 0 
L 2938 0 
L 1159 1709 
L 1159 0 
L 581 0 
L 581 4863 
z
" transform="scale(0.015625)"/>
     </defs>
     <use xlink:href="#DejaVuSans-6d"/>
     <use xlink:href="#DejaVuSans-79" transform="translate(97.412109 0)"/>
     <use xlink:href="#DejaVuSans-6f" transform="translate(156.591797 0)"/>
     <use xlink:href="#DejaVuSans-6b" transform="translate(217.773438 0)"/>
     <use xlink:href="#DejaVuSans-69" transform="translate(275.683594 0)"/>
     <use xlink:href="#DejaVuSans-74" transform="translate(303.466797 0)"/>
     <use xlink:href="#DejaVuSans-20" transform="translate(342.675781 0)"/>
     <use xlink:href="#DejaVuSans-28" transform="translate(374.462891 0)"/>
     <use xlink:href="#DejaVuSans-32" transform="translate(413.476562 0)"/>
     <use xlink:href="#DejaVuSans-30" transform="translate(477.099609 0)"/>
     <use xlink:href="#DejaVuSans-2e" transform="translate(540.722656 0)"/>
     <use xlink:href="#DejaVuSans-30" transform="translate(572.509766 0)"/>
     <use xlink:href="#DejaVuSans-25" transform="translate(636.132812 0)"/>
     <use xlink:href="#DejaVuSans-29" transform="translate(731.152344 0)"/>
    </g>
   </g>
   <g id="text_18">
    <!-- other (10.0%) -->
    <g transform="translate(566.88984 13.925078) scale(0.1 -0.1)">
     <use xlink:href="#DejaVuSans-6f"/>
     <use xlink:href="#DejaVuSans-74" transform="translate(61.181641 0)"/>
     <use xlink:href="#DejaVuSans-68" transform="translate(100.390625 0)"/>
     <use xlink:href="#DejaVuSans-65" transform="translate(163.769531 0)"/>
     <use xlink:href="#DejaVuSans-72" transform="translate(225.292969 0)"/>
     <use xlink:href="#DejaVuSans-20" transform="translate(266.40625 0)"/>
     <use xlink:href="#DejaVuSans-28" transform="translate(298.193359 0)"/>
     <use xlink:href="#DejaVuSans-31" transform="translate(337.207031 0)"/>
     <use xlink:href="#DejaVuSans-30" transform="translate(400.830078 0)"/>
     <use xlink:href="#DejaVuSans-2e" transform="translate(464.453125 0)"/>
     <use xlink:href="#DejaVuSans-30" transform="translate(496.240234 0)"/>
     <use xlink:href="#DejaVuSans-25" transform="translate(559.863281 0)"/>
     <use xlink:href="#DejaVuSans-29" transform="translate(654.882812 0)"/>
    </g>
   </g>
   <g id="line2d_16">
    <path d="M -1 11.165703 
L 0.3888 11.165703 
L 21.2544 11.165703 
L 42.12 59.260752 
L 62.9856 11.165703 
L 83.8512 11.165703 
L 104.7168 126.593822 
L 125.5824 107.355802 
L 146.448 107.355802 
L 167.3136 107.355802 
L 188.1792 83.308277 
L 209.0448 55.561133 
L 229.9104 31.777867 
L 250.776 52.390031 
L 271.6416 59.260752 
L 292.5072 11.165703 
L 313.3728 11.165703 
L 334.2384 93.614359 
L 355.104 107.355802 
L 375.9696 11.165703 
L 396.8352 52.390031 
L 417.7008 59.260752 
L 438.5664 11.165703 
L 459.432 113.014043 
L 480.2976 63.63303 
L 501.1632 52.390031 
L 522.0288 155.450851 
L 542.8944 52.390031 
L 563.76 97.736792 
" clip-path="url(#pccf424cf44)" style="fill: none; stroke: #2ca02c; stroke-width: 1.5; stroke-linecap: square"/>
   </g>
   <g id="line2d_17">
    <path d="M -1 56.059579 
L 0.3888 59.260752 
L 21.2544 11.165703 
L 42.12 59.260752 
L 62.9856 11.165703 
L 83.8512 11.165703 
L 104.7168 184.307881 
L 125.5824 107.355802 
L 146.448 107.355802 
L 167.3136 107.355802 
L 188.1792 83.308277 
L 209.0448 99.956564 
L 229.9104 52.390031 
L 250.776 93.614359 
L 271.6416 107.355802 
L 292.5072 47.23699 
L 313.3728 68.879762 
L 334.2384 134.838687 
L 355.104 107.355802 
L 375.9696 83.308277 
L 396.8352 93.614359 
L 417.7008 107.355802 
L 438.5664 155.450851 
L 459.432 163.938213 
L 480.2976 63.63303 
L 501.1632 52.390031 
L 522.0288 155.450851 
L 542.8944 52.390031 
L 563.76 184.307881 
" clip-path="url(#pccf424cf44)" style="fill: none; stroke: #ff7f0e; stroke-width: 1.5; stroke-linecap: square"/>
   </g>
   <g id="line2d_18">
    <path d="M -1 56.059579 
L 0.3888 59.260752 
L 21.2544 11.165703 
L 42.12 59.260752 
L 62.9856 11.165703 
L 83.8512 11.165703 
L 104.7168 213.164911 
L 125.5824 171.482535 
L 146.448 107.355802 
L 167.3136 107.355802 
L 188.1792 155.450851 
L 209.0448 122.154279 
L 229.9104 114.226523 
L 250.776 176.063016 
L 271.6416 179.498376 
L 292.5072 155.450851 
L 313.3728 68.879762 
L 334.2384 217.287344 
L 355.104 155.450851 
L 375.9696 119.379564 
L 396.8352 155.450851 
L 417.7008 155.450851 
L 438.5664 227.593426 
L 459.432 214.862383 
L 480.2976 194.801347 
L 501.1632 217.287344 
L 522.0288 242.021941 
L 542.8944 134.838687 
L 563.76 299.736 
" clip-path="url(#pccf424cf44)" style="fill: none; stroke: #1f77b4; stroke-width: 1.5; stroke-linecap: square"/>
   </g>
  </g>
 </g>
 <defs>
  <clipPath id="pccf424cf44">
   <rect x="42.12" y="8.28" width="521.64" height="291.456"/>
  </clipPath>
 </defs>
</svg>
