<?xml version="1.0" encoding="utf-8" standalone="no"?>
<!DOCTYPE svg PUBLIC "-//W3C//DTD SVG 1.1//EN"
  "http://www.w3.org/Graphics/SVG/1.1/DTD/svg11.dtd">
<svg xmlns:xlink="http://www.w3.org/1999/xlink" width="648pt" height="295.2pt" viewBox="0 0 648 295.2" xmlns="http://www.w3.org/2000/svg" version="1.1">
 <metadata>
  <rdf:RDF xmlns:dc="http://purl.org/dc/elements/1.1/" xmlns:cc="http://creativecommons.org/ns#" xmlns:rdf="http://www.w3.org/1999/02/22-rdf-syntax-ns#">
   <cc:Work>
    <dc:type rdf:resource="http://purl.org/dc/dcmitype/StillImage"/>
    <dc:date>2026-02-24T16:03:24.908444</dc:date>
    <dc:format>image/svg+xml</dc:format>
    <dc:creator>
     <cc:Agent>
      <dc:title>Matplotlib v3.10.8, https://matplotlib.org/</dc:title>
     </cc:Agent>
    </dc:creator>
   </cc:Work>
  </rdf:RDF>
 </metadata>
 <defs>
  <style type="text/css">*{stroke-linejoin: round; stroke-linecap: butt}</style>
 </defs>
 <g id="figure_1">
  <g id="patch_1">
   <path d="M 0 295.2 
L 648 295.2 
L 648 0 
L 0 0 
z
" style="fill: #ffffff"/>
  </g>
  <g id="axes_1">
   <g id="patch_2">
    <path d="M 45.36 264.204 
L 618.84 264.204 
L 618.84 4.428 
L 45.36 4.428 
z
" style="fill: #ffffff"/>
   </g>
   <g id="axes_2">
    <g id="patch_3">
     <path d="M 618.84 264.204 
L 618.84 264.204 
L 618.84 4.428 
L 618.84 4.428 
z
" style="fill: #ffffff"/>
    </g>
    <g id="matplotlib.axis_1"/>
    <g id="matplotlib.axis_2">
     <g id="ytick_1">
      <g id="line2d_1">
       <defs>
        <path id="m571ddcf94e" d="M 0 0 
L 3.5 0 
" style="stroke: #000000; stroke-width: 0.8"/>
       </defs>
       <g>
        <use xlink:href="#m571ddcf94e" x="618.84" y="264.204" style="stroke: #000000; stroke-width: 0.8"/>
       </g>
      </g>
      <g id="text_1">
       <!-- 0 -->
       <g transform="translate(625.84 268.003219) scale(0.1 -0.1)">
        <defs>
         <path id="DejaVuSans-30" d="M 2034 4250 
Q 1547 4250 1301 3770 
Q 1056 3291 1056 2328 
Q 1056 1369 1301 889 
Q 1547 409 2034 409 
Q 2525 409 2770 889 
Q 3016 1369 3016 2328 
Q 3016 3291 2770 3770 
Q 2525 4250 2034 4250 
z
M 2034 4750 
Q 2819 4750 3233 4129 
Q 3647 3509 3647 2328 
Q 3647 1150 3233 529 
Q 2819 -91 2034 -91 
Q 1250 -91 836 529 
Q 422 1150 422 2328 
Q 422 3509 836 4129 
Q 1250 4750 2034 4750 
z
" transform="scale(0.015625)"/>
        </defs>
        <use xlink:href="#DejaVuSans-30"/>
       </g>
      </g>
     </g>
     <g id="ytick_2">
      <g id="line2d_2">
       <g>
        <use xlink:href="#m571ddcf94e" x="618.84" y="212.763208" style="stroke: #000000; stroke-width: 0.8"/>
       </g>
      </g>
      <g id="text_2">
       <!-- 20 -->
       <g transform="translate(625.84 216.562427) scale(0.1 -0.1)">
        <defs>
         <path id="DejaVuSans-32" d="M 1228 531 
L 3431 531 
L 3431 0 
L 469 0 
L 469 531 
Q 828 903 1448 1529 
Q 2069 2156 2228 2338 
Q 2531 2678 2651 2914 
Q 2772 3150 2772 3378 
Q 2772 3750 2511 3984 
Q 2250 4219 1831 4219 
Q 1534 4219 1204 4116 
Q 875 4013 500 3803 
L 500 4441 
Q 881 4594 1212 4672 
Q 1544 4750 1819 4750 
Q 2544 4750 2975 4387 
Q 3406 4025 3406 3419 
Q 3406 3131 3298 2873 
Q 3191 2616 2906 2266 
Q 2828 2175 2409 1742 
Q 1991 1309 1228 531 
z
" transform="scale(0.015625)"/>
        </defs>
        <use xlink:href="#DejaVuSans-32"/>
        <use xlink:href="#DejaVuSans-30" transform="translate(63.623047 0)"/>
       </g>
      </g>
     </g>
     <g id="ytick_3">
      <g id="line2d_3">
       <g>
        <use xlink:href="#m571ddcf94e" x="618.84" y="161.322416" style="stroke: #000000; stroke-width: 0.8"/>
       </g>
      </g>
      <g id="text_3">
       <!-- 40 -->
       <g transform="translate(625.84 165.121635) scale(0.1 -0.1)">
        <defs>
         <path id="DejaVuSans-34" d="M 2419 4116 
L 825 1625 
L 2419 1625 
L 2419 4116 
z
M 2253 4666 
L 3047 4666 
L 3047 1625 
L 3713 1625 
L 3713 1100 
L 3047 1100 
L 3047 0 
L 2419 0 
L 2419 1100 
L 313 1100 
L 313 1709 
L 2253 4666 
z
" transform="scale(0.015625)"/>
        </defs>
        <use xlink:href="#DejaVuSans-34"/>
        <use xlink:href="#DejaVuSans-30" transform="translate(63.623047 0)"/>
       </g>
      </g>
     </g>
     <g id="ytick_4">
      <g id="line2d_4">
       <g>
        <use xlink:href="#m571ddcf94e" x="618.84" y="109.881624" style="stroke: #000000; stroke-width: 0.8"/>
       </g>
      </g>
      <g id="text_4">
       <!-- 60 -->
       <g transform="translate(625.84 113.680843) scale(0.1 -0.1)">
        <defs>
         <path id="DejaVuSans-36" d="M 2113 2584 
Q 1688 2584 1439 2293 
Q 1191 2003 1191 1497 
Q 1191 994 1439 701 
Q 1688 409 2113 409 
Q 2538 409 2786 701 
Q 3034 994 3034 1497 
Q 3034 2003 2786 2293 
Q 2538 2584 2113 2584 
z
M 3366 4563 
L 3366 3988 
Q 3128 4100 2886 4159 
Q 2644 4219 2406 4219 
Q 1781 4219 1451 3797 
Q 1122 3375 1075 2522 
Q 1259 2794 1537 2939 
Q 1816 3084 2150 3084 
Q 2853 3084 3261 2657 
Q 3669 2231 3669 1497 
Q 3669 778 3244 343 
Q 2819 -91 2113 -91 
Q 1303 -91 875 529 
Q 447 1150 447 2328 
Q 447 3434 972 4092 
Q 1497 4750 2381 4750 
Q 2619 4750 2861 4703 
Q 3103 4656 3366 4563 
z
" transform="scale(0.015625)"/>
        </defs>
        <use xlink:href="#DejaVuSans-36"/>
        <use xlink:href="#DejaVuSans-30" transform="translate(63.623047 0)"/>
       </g>
      </g>
     </g>
     <g id="ytick_5">
      <g id="line2d_5">
       <g>
        <use xlink:href="#m571ddcf94e" x="618.84" y="58.440832" style="stroke: #000000; stroke-width: 0.8"/>
       </g>
      </g>
      <g id="text_5">
       <!-- 80 -->
       <g transform="translate(625.84 62.24005) scale(0.1 -0.1)">
        <defs>
         <path id="DejaVuSans-38" d="M 2034 2216 
Q 1584 2216 1326 1975 
Q 1069 1734 1069 1313 
Q 1069 891 1326 650 
Q 1584 409 2034 409 
Q 2484 409 2743 651 
Q 3003 894 3003 1313 
Q 3003 1734 2745 1975 
Q 2488 2216 2034 2216 
z
M 1403 2484 
Q 997 2584 770 2862 
Q 544 3141 544 3541 
Q 544 4100 942 4425 
Q 1341 4750 2034 4750 
Q 2731 4750 3128 4425 
Q 3525 4100 3525 3541 
Q 3525 3141 3298 2862 
Q 3072 2584 2669 2484 
Q 3125 2378 3379 2068 
Q 3634 1759 3634 1313 
Q 3634 634 3220 271 
Q 2806 -91 2034 -91 
Q 1263 -91 848 271 
Q 434 634 434 1313 
Q 434 1759 690 2068 
Q 947 2378 1403 2484 
z
M 1172 3481 
Q 1172 3119 1398 2916 
Q 1625 2713 2034 2713 
Q 2441 2713 2670 2916 
Q 2900 3119 2900 3481 
Q 2900 3844 2670 4047 
Q 2441 4250 2034 4250 
Q 1625 4250 1398 4047 
Q 1172 3844 1172 3481 
z
" transform="scale(0.015625)"/>
        </defs>
        <use xlink:href="#DejaVuSans-38"/>
        <use xlink:href="#DejaVuSans-30" transform="translate(63.623047 0)"/>
       </g>
      </g>
     </g>
     <g id="ytick_6">
      <g id="line2d_6">
       <g>
        <use xlink:href="#m571ddcf94e" x="618.84" y="7.00004" style="stroke: #000000; stroke-width: 0.8"/>
       </g>
      </g>
      <g id="text_6">
       <!-- 100 -->
       <g transform="translate(625.84 10.799258) scale(0.1 -0.1)">
        <defs>
         <path id="DejaVuSans-31" d="M 794 531 
L 1825 531 
L 1825 4091 
L 703 3866 
L 703 4441 
L 1819 4666 
L 2450 4666 
L 2450 531 
L 3481 531 
L 3481 0 
L 794 0 
L 794 531 
z
" transform="scale(0.015625)"/>
        </defs>
        <use xlink:href="#DejaVuSans-31"/>
        <use xlink:href="#DejaVuSans-30" transform="translate(63.623047 0)"/>
        <use xlink:href="#DejaVuSans-30" transform="translate(127.246094 0)"/>
       </g>
      </g>
     </g>
    </g>
    <g id="patch_4">
     <path d="M 618.84 264.204 
L 618.84 4.428 
" style="fill: none; stroke: #000000; stroke-width: 0.8; stroke-linejoin: miter; stroke-linecap: square"/>
    </g>
   </g>
   <g id="FillBetweenPolyCollection_1">
    <defs>
     <path id="m69977d80e8" d="M 45.36 -288.19996 
L 45.36 -30.996 
L 54.462857 -30.996 
L 63.565714 -30.996 
L 72.668571 -30.996 
L 81.771429 -30.996 
L 90.874286 -30.996 
L 99.977143 -30.996 
L 109.08 -30.996 
L 118.182857 -30.996 
L 127.285714 -30.996 
L 136.388571 -30.996 
L 145.491429 -30.996 
L 154.594286 -30.996 
L 163.697143 -30.996 
L 172.8 -30.996 
L 181.902857 -30.996 
L 191.005714 -30.996 
L 200.108571 -30.996 
L 209.211429 -30.996 
L 218.314286 -30.996 
L 227.417143 -30.996 
L 236.52 -30.996 
L 245.622857 -30.996 
L 254.725714 -30.996 
L 263.828571 -30.996 
L 272.931429 -30.996 
L 282.034286 -30.996 
L 291.137143 -30.996 
L 300.24 -30.996 
L 309.342857 -30.996 
L 318.445714 -30.996 
L 327.548571 -30.996 
L 336.651429 -30.996 
L 345.754286 -30.996 
L 354.857143 -30.996 
L 363.96 -30.996 
L 373.062857 -30.996 
L 382.165714 -30.996 
L 391.268571 -30.996 
L 400.371429 -30.996 
L 409.474286 -30.996 
L 418.577143 -30.996 
L 427.68 -30.996 
L 436.782857 -30.996 
L 445.885714 -30.996 
L 454.988571 -30.996 
L 464.091429 -30.996 
L 473.194286 -30.996 
L 482.297143 -30.996 
L 491.4 -30.996 
L 500.502857 -30.996 
L 509.605714 -30.996 
L 518.708571 -30.996 
L 527.811429 -30.996 
L 536.914286 -30.996 
L 546.017143 -30.996 
L 555.12 -30.996 
L 564.222857 -30.996 
L 573.325714 -30.996 
L 582.428571 -30.996 
L 591.531429 -30.996 
L 600.634286 -30.996 
L 609.737143 -30.996 
L 618.84 -30.996 
L 618.84 -139.021663 
L 618.84 -139.021663 
L 609.737143 -140.921344 
L 600.634286 -144.209709 
L 591.531429 -149.263893 
L 582.428571 -153.078986 
L 573.325714 -159.59798 
L 564.222857 -166.296 
L 555.12 -164.361017 
L 546.017143 -167.328154 
L 536.914286 -173.21466 
L 527.811429 -177.062447 
L 518.708571 -181.714244 
L 509.605714 -187.033069 
L 500.502857 -188.866017 
L 491.4 -194.329902 
L 482.297143 -196.341403 
L 473.194286 -199.58347 
L 464.091429 -203.274124 
L 454.988571 -205.230941 
L 445.885714 -210.440624 
L 436.782857 -218.053426 
L 427.68 -222.161106 
L 418.577143 -220.931232 
L 409.474286 -222.809123 
L 400.371429 -218.053426 
L 391.268571 -213.182139 
L 382.165714 -208.589211 
L 373.062857 -214.713115 
L 363.96 -199.50894 
L 354.857143 -196.341403 
L 345.754286 -185.318376 
L 336.651429 -181.031644 
L 327.548571 -171.289069 
L 318.445714 -177.969692 
L 309.342857 -177.969692 
L 300.24 -173.887089 
L 291.137143 -185.318376 
L 282.034286 -177.969692 
L 272.931429 -177.969692 
L 263.828571 -171.289069 
L 254.725714 -171.289069 
L 245.622857 -173.887089 
L 236.52 -159.59798 
L 227.417143 -159.59798 
L 218.314286 -202.465307 
L 209.211429 -236.759168 
L 200.108571 -223.89897 
L 191.005714 -223.89897 
L 181.902857 -223.89897 
L 172.8 -202.465307 
L 163.697143 -202.465307 
L 154.594286 -159.59798 
L 145.491429 -159.59798 
L 136.388571 -159.59798 
L 127.285714 -159.59798 
L 118.182857 -159.59798 
L 109.08 -159.59798 
L 99.977143 -159.59798 
L 90.874286 -159.59798 
L 81.771429 -159.59798 
L 72.668571 -288.19996 
L 63.565714 -288.19996 
L 54.462857 -288.19996 
L 45.36 -288.19996 
z
" style="stroke: #f7d4d4"/>
    </defs>
    <g clip-path="url(#p22d814369d)">
     <use xlink:href="#m69977d80e8" x="0" y="295.2" style="fill: #f7d4d4; stroke: #f7d4d4"/>
    </g>
   </g>
   <g id="FillBetweenPolyCollection_2">
    <defs>
     <path id="m5705314b62" d="M 45.36 -288.19996 
L 45.36 -288.19996 
L 54.462857 -288.19996 
L 63.565714 -288.19996 
L 72.668571 -288.19996 
L 81.771429 -288.19996 
L 90.874286 -288.19996 
L 99.977143 -288.19996 
L 109.08 -288.19996 
L 118.182857 -288.19996 
L 127.285714 -288.19996 
L 136.388571 -288.19996 
L 145.491429 -288.19996 
L 154.594286 -288.19996 
L 163.697143 -288.19996 
L 172.8 -288.19996 
L 181.902857 -288.19996 
L 191.005714 -288.19996 
L 200.108571 -288.19996 
L 209.211429 -288.19996 
L 218.314286 -288.19996 
L 227.417143 -288.19996 
L 236.52 -288.19996 
L 245.622857 -288.19996 
L 254.725714 -288.19996 
L 263.828571 -288.19996 
L 272.931429 -288.19996 
L 282.034286 -288.19996 
L 291.137143 -288.19996 
L 300.24 -288.19996 
L 309.342857 -288.19996 
L 318.445714 -288.19996 
L 327.548571 -288.19996 
L 336.651429 -288.19996 
L 345.754286 -288.19996 
L 354.857143 -288.19996 
L 363.96 -288.19996 
L 373.062857 -288.19996 
L 382.165714 -288.19996 
L 391.268571 -288.19996 
L 400.371429 -288.19996 
L 409.474286 -288.19996 
L 418.577143 -288.19996 
L 427.68 -288.19996 
L 436.782857 -288.19996 
L 445.885714 -288.19996 
L 454.988571 -288.19996 
L 464.091429 -288.19996 
L 473.194286 -288.19996 
L 482.297143 -288.19996 
L 491.4 -288.19996 
L 500.502857 -288.19996 
L 509.605714 -288.19996 
L 518.708571 -288.19996 
L 527.811429 -288.19996 
L 536.914286 -288.19996 
L 546.017143 -288.19996 
L 555.12 -288.19996 
L 564.222857 -288.19996 
L 573.325714 -288.19996 
L 582.428571 -288.19996 
L 591.531429 -288.19996 
L 600.634286 -288.19996 
L 609.737143 -288.19996 
L 618.84 -288.19996 
L 618.84 -139.021663 
L 618.84 -139.021663 
L 609.737143 -140.921344 
L 600.634286 -144.209709 
L 591.531429 -149.263893 
L 582.428571 -153.078986 
L 573.325714 -159.59798 
L 564.222857 -166.296 
L 555.12 -164.361017 
L 546.017143 -167.328154 
L 536.914286 -173.21466 
L 527.811429 -177.062447 
L 518.708571 -181.714244 
L 509.605714 -187.033069 
L 500.502857 -188.866017 
L 491.4 -194.329902 
L 482.297143 -196.341403 
L 473.194286 -199.58347 
L 464.091429 -203.274124 
L 454.988571 -205.230941 
L 445.885714 -210.440624 
L 436.782857 -218.053426 
L 427.68 -222.161106 
L 418.577143 -220.931232 
L 409.474286 -222.809123 
L 400.371429 -218.053426 
L 391.268571 -213.182139 
L 382.165714 -208.589211 
L 373.062857 -214.713115 
L 363.96 -199.50894 
L 354.857143 -196.341403 
L 345.754286 -185.318376 
L 336.651429 -181.031644 
L 327.548571 -171.289069 
L 318.445714 -177.969692 
L 309.342857 -177.969692 
L 300.24 -173.887089 
L 291.137143 -185.318376 
L 282.034286 -177.969692 
L 272.931429 -177.969692 
L 263.828571 -171.289069 
L 254.725714 -171.289069 
L 245.622857 -173.887089 
L 236.52 -159.59798 
L 227.417143 -159.59798 
L 218.314286 -202.465307 
L 209.211429 -236.759168 
L 200.108571 -223.89897 
L 191.005714 -223.89897 
L 181.902857 -223.89897 
L 172.8 -202.465307 
L 163.697143 -202.465307 
L 154.594286 -159.59798 
L 145.491429 -159.59798 
L 136.388571 -159.59798 
L 127.285714 -159.59798 
L 118.182857 -159.59798 
L 109.08 -159.59798 
L 99.977143 -159.59798 
L 90.874286 -159.59798 
L 81.771429 -159.59798 
L 72.668571 -288.19996 
L 63.565714 -288.19996 
L 54.462857 -288.19996 
L 45.36 -288.19996 
z
" style="stroke: #eeeeee"/>
    </defs>
    <g clip-path="url(#p22d814369d)">
     <use xlink:href="#m5705314b62" x="0" y="295.2" style="fill: #eeeeee; stroke: #eeeeee"/>
    </g>
   </g>
   <g id="matplotlib.axis_3">
    <g id="xtick_1">
     <g id="line2d_7">
      <defs>
       <path id="mb2f2666f34" d="M 0 0 
L 0 3.5 
" style="stroke: #000000; stroke-width: 0.8"/>
      </defs>
      <g>
       <use xlink:href="#mb2f2666f34" x="118.182857" y="264.204" style="stroke: #000000; stroke-width: 0.8"/>
      </g>
     </g>
     <g id="text_7">
      <!-- 1970 -->
      <g transform="translate(105.457857 278.802437) scale(0.1 -0.1)">
       <defs>
        <path id="DejaVuSans-39" d="M 703 97 
L 703 672 
Q 941 559 1184 500 
Q 1428 441 1663 441 
Q 2288 441 2617 861 
Q 2947 1281 2994 2138 
Q 2813 1869 2534 1725 
Q 2256 1581 1919 1581 
Q 1219 1581 811 2004 
Q 403 2428 403 3163 
Q 403 3881 828 4315 
Q 1253 4750 1959 4750 
Q 2769 4750 3195 4129 
Q 3622 3509 3622 2328 
Q 3622 1225 3098 567 
Q 2575 -91 1691 -91 
Q 1453 -91 1209 -44 
Q 966 3 703 97 
z
M 1959 2075 
Q 2384 2075 2632 2365 
Q 2881 2656 2881 3163 
Q 2881 3666 2632 3958 
Q 2384 4250 1959 4250 
Q 1534 4250 1286 3958 
Q 1038 3666 1038 3163 
Q 1038 2656 1286 2365 
Q 1534 2075 1959 2075 
z
" transform="scale(0.015625)"/>
        <path id="DejaVuSans-37" d="M 525 4666 
L 3525 4666 
L 3525 4397 
L 1831 0 
L 1172 0 
L 2766 4134 
L 525 4134 
L 525 4666 
z
" transform="scale(0.015625)"/>
       </defs>
       <use xlink:href="#DejaVuSans-31"/>
       <use xlink:href="#DejaVuSans-39" transform="translate(63.623047 0)"/>
       <use xlink:href="#DejaVuSans-37" transform="translate(127.246094 0)"/>
       <use xlink:href="#DejaVuSans-30" transform="translate(190.869141 0)"/>
      </g>
     </g>
    </g>
    <g id="xtick_2">
     <g id="line2d_8">
      <g>
       <use xlink:href="#mb2f2666f34" x="209.211429" y="264.204" style="stroke: #000000; stroke-width: 0.8"/>
      </g>
     </g>
     <g id="text_8">
      <!-- 1980 -->
      <g transform="translate(196.486429 278.802437) scale(0.1 -0.1)">
       <use xlink:href="#DejaVuSans-31"/>
       <use xlink:href="#DejaVuSans-39" transform="translate(63.623047 0)"/>
       <use xlink:href="#DejaVuSans-38" transform="translate(127.246094 0)"/>
       <use xlink:href="#DejaVuSans-30" transform="translate(190.869141 0)"/>
      </g>
     </g>
    </g>
    <g id="xtick_3">
     <g id="line2d_9">
      <g>
       <use xlink:href="#mb2f2666f34" x="300.24" y="264.204" style="stroke: #000000; stroke-width: 0.8"/>
      </g>
     </g>
     <g id="text_9">
      <!-- 1990 -->
      <g transform="translate(287.515 278.802437) scale(0.1 -0.1)">
       <use xlink:href="#DejaVuSans-31"/>
       <use xlink:href="#DejaVuSans-39" transform="translate(63.623047 0)"/>
       <use xlink:href="#DejaVuSans-39" transform="translate(127.246094 0)"/>
       <use xlink:href="#DejaVuSans-30" transform="translate(190.869141 0)"/>
      </g>
     </g>
    </g>
    <g id="xtick_4">
     <g id="line2d_10">
      <g>
       <use xlink:href="#mb2f2666f34" x="391.268571" y="264.204" style="stroke: #000000; stroke-width: 0.8"/>
      </g>
     </g>
     <g id="text_10">
      <!-- 2000 -->
      <g transform="translate(378.543571 278.802437) scale(0.1 -0.1)">
       <use xlink:href="#DejaVuSans-32"/>
       <use xlink:href="#DejaVuSans-30" transform="translate(63.623047 0)"/>
       <use xlink:href="#DejaVuSans-30" transform="translate(127.246094 0)"/>
       <use xlink:href="#DejaVuSans-30" transform="translate(190.869141 0)"/>
      </g>
     </g>
    </g>
    <g id="xtick_5">
     <g id="line2d_11">
      <g>
       <use xlink:href="#mb2f2666f34" x="482.297143" y="264.204" style="stroke: #000000; stroke-width: 0.8"/>
      </g>
     </g>
     <g id="text_11">
      <!-- 2010 -->
      <g transform="translate(469.572143 278.802437) scale(0.1 -0.1)">
       <use xlink:href="#DejaVuSans-32"/>
       <use xlink:href="#DejaVuSans-30" transform="translate(63.623047 0)"/>
       <use xlink:href="#DejaVuSans-31" transform="translate(127.246094 0)"/>
       <use xlink:href="#DejaVuSans-30" transform="translate(190.869141 0)"/>
      </g>
     </g>
    </g>
    <g id="xtick_6">
     <g id="line2d_12">
      <g>
       <use xlink:href="#mb2f2666f34" x="573.325714" y="264.204" style="stroke: #000000; stroke-width: 0.8"/>
      </g>
     </g>
     <g id="text_12">
      <!-- 2020 -->
      <g transform="translate(560.600714 278.802437) scale(0.1 -0.1)">
       <use xlink:href="#DejaVuSans-32"/>
       <use xlink:href="#DejaVuSans-30" transform="translate(63.623047 0)"/>
       <use xlink:href="#DejaVuSans-32" transform="translate(127.246094 0)"/>
       <use xlink:href="#DejaVuSans-30" transform="translate(190.869141 0)"/>
      </g>
     </g>
    </g>
    <g id="text_13">
     <!-- Models published to date -->
     <g transform="translate(269.100781 292.480563) scale(0.1 -0.1)">
      <defs>
       <path id="DejaVuSans-4d" d="M 628 4666 
L 1569 4666 
L 2759 1491 
L 3956 4666 
L 4897 4666 
L 4897 0 
L 4281 0 
L 4281 4097 
L 3078 897 
L 2444 897 
L 1241 4097 
L 1241 0 
L 628 0 
L 628 4666 
z
" transform="scale(0.015625)"/>
       <path id="DejaVuSans-6f" d="M 1959 3097 
Q 1497 3097 1228 2736 
Q 959 2375 959 1747 
Q 959 1119 1226 758 
Q 1494 397 1959 397 
Q 2419 397 2687 759 
Q 2956 1122 2956 1747 
Q 2956 2369 2687 2733 
Q 2419 3097 1959 3097 
z
M 1959 3584 
Q 2709 3584 3137 3096 
Q 3566 2609 3566 1747 
Q 3566 888 3137 398 
Q 2709 -91 1959 -91 
Q 1206 -91 779 398 
Q 353 888 353 1747 
Q 353 2609 779 3096 
Q 1206 3584 1959 3584 
z
" transform="scale(0.015625)"/>
       <path id="DejaVuSans-64" d="M 2906 2969 
L 2906 4863 
L 3481 4863 
L 3481 0 
L 2906 0 
L 2906 525 
Q 2725 213 2448 61 
Q 2172 -91 1784 -91 
Q 1150 -91 751 415 
Q 353 922 353 1747 
Q 353 2572 751 3078 
Q 1150 3584 1784 3584 
Q 2172 3584 2448 3432 
Q 2725 3281 2906 2969 
z
M 947 1747 
Q 947 1113 1208 752 
Q 1469 391 1925 391 
Q 2381 391 2643 752 
Q 2906 1113 2906 1747 
Q 2906 2381 2643 2742 
Q 2381 3103 1925 3103 
Q 1469 3103 1208 2742 
Q 947 2381 947 1747 
z
" transform="scale(0.015625)"/>
       <path id="DejaVuSans-65" d="M 3597 1894 
L 3597 1613 
L 953 1613 
Q 991 1019 1311 708 
Q 1631 397 2203 397 
Q 2534 397 2845 478 
Q 3156 559 3463 722 
L 3463 178 
Q 3153 47 2828 -22 
Q 2503 -91 2169 -91 
Q 1331 -91 842 396 
Q 353 884 353 1716 
Q 353 2575 817 3079 
Q 1281 3584 2069 3584 
Q 2775 3584 3186 3129 
Q 3597 2675 3597 1894 
z
M 3022 2063 
Q 3016 2534 2758 2815 
Q 2500 3097 2075 3097 
Q 1594 3097 1305 2825 
Q 1016 2553 972 2059 
L 3022 2063 
z
" transform="scale(0.015625)"/>
       <path id="DejaVuSans-6c" d="M 603 4863 
L 1178 4863 
L 1178 0 
L 603 0 
L 603 4863 
z
" transform="scale(0.015625)"/>
       <path id="DejaVuSans-73" d="M 2834 3397 
L 2834 2853 
Q 2591 2978 2328 3040 
Q 2066 3103 1784 3103 
Q 1356 3103 1142 2972 
Q 928 2841 928 2578 
Q 928 2378 1081 2264 
Q 1234 2150 1697 2047 
L 1894 2003 
Q 2506 1872 2764 1633 
Q 3022 1394 3022 966 
Q 3022 478 2636 193 
Q 2250 -91 1575 -91 
Q 1294 -91 989 -36 
Q 684 19 347 128 
L 347 722 
Q 666 556 975 473 
Q 1284 391 1588 391 
Q 1994 391 2212 530 
Q 2431 669 2431 922 
Q 2431 1156 2273 1281 
Q 2116 1406 1581 1522 
L 1381 1569 
Q 847 1681 609 1914 
Q 372 2147 372 2553 
Q 372 3047 722 3315 
Q 1072 3584 1716 3584 
Q 2034 3584 2315 3537 
Q 2597 3491 2834 3397 
z
" transform="scale(0.015625)"/>
       <path id="DejaVuSans-20" transform="scale(0.015625)"/>
       <path id="DejaVuSans-70" d="M 1159 525 
L 1159 -1331 
L 581 -1331 
L 581 3500 
L 1159 3500 
L 1159 2969 
Q 1341 3281 1617 3432 
Q 1894 3584 2278 3584 
Q 2916 3584 3314 3078 
Q 3713 2572 3713 1747 
Q 3713 922 3314 415 
Q 2916 -91 2278 -91 
Q 1894 -91 1617 61 
Q 1341 213 1159 525 
z
M 3116 1747 
Q 3116 2381 2855 2742 
Q 2594 3103 2138 3103 
Q 1681 3103 1420 2742 
Q 1159 2381 1159 1747 
Q 1159 1113 1420 752 
Q 1681 391 2138 391 
Q 2594 391 2855 752 
Q 3116 1113 3116 1747 
z
" transform="scale(0.015625)"/>
       <path id="DejaVuSans-75" d="M 544 1381 
L 544 3500 
L 1119 3500 
L 1119 1403 
Q 1119 906 1312 657 
Q 1506 409 1894 409 
Q 2359 409 2629 706 
Q 2900 1003 2900 1516 
L 2900 3500 
L 3475 3500 
L 3475 0 
L 2900 0 
L 2900 538 
Q 2691 219 2414 64 
Q 2138 -91 1772 -91 
Q 1169 -91 856 284 
Q 544 659 544 1381 
z
M 1991 3584 
L 1991 3584 
z
" transform="scale(0.015625)"/>
       <path id="DejaVuSans-62" d="M 3116 1747 
Q 3116 2381 2855 2742 
Q 2594 3103 2138 3103 
Q 1681 3103 1420 2742 
Q 1159 2381 1159 1747 
Q 1159 1113 1420 752 
Q 1681 391 2138 391 
Q 2594 391 2855 752 
Q 3116 1113 3116 1747 
z
M 1159 2969 
Q 1341 3281 1617 3432 
Q 1894 3584 2278 3584 
Q 2916 3584 3314 3078 
Q 3713 2572 3713 1747 
Q 3713 922 3314 415 
Q 2916 -91 2278 -91 
Q 1894 -91 1617 61 
Q 1341 213 1159 525 
L 1159 0 
L 581 0 
L 581 4863 
L 1159 4863 
L 1159 2969 
z
" transform="scale(0.015625)"/>
       <path id="DejaVuSans-69" d="M 603 3500 
L 1178 3500 
L 1178 0 
L 603 0 
L 603 3500 
z
M 603 4863 
L 1178 4863 
L 1178 4134 
L 603 4134 
L 603 4863 
z
" transform="scale(0.015625)"/>
       <path id="DejaVuSans-68" d="M 3513 2113 
L 3513 0 
L 2938 0 
L 2938 2094 
Q 2938 2591 2744 2837 
Q 2550 3084 2163 3084 
Q 1697 3084 1428 2787 
Q 1159 2491 1159 1978 
L 1159 0 
L 581 0 
L 581 4863 
L 1159 4863 
L 1159 2956 
Q 1366 3272 1645 3428 
Q 1925 3584 2291 3584 
Q 2894 3584 3203 3211 
Q 3513 2838 3513 2113 
z
" transform="scale(0.015625)"/>
       <path id="DejaVuSans-74" d="M 1172 4494 
L 1172 3500 
L 2356 3500 
L 2356 3053 
L 1172 3053 
L 1172 1153 
Q 1172 725 1289 603 
Q 1406 481 1766 481 
L 2356 481 
L 2356 0 
L 1766 0 
Q 1100 0 847 248 
Q 594 497 594 1153 
L 594 3053 
L 172 3053 
L 172 3500 
L 594 3500 
L 594 4494 
L 1172 4494 
z
" transform="scale(0.015625)"/>
       <path id="DejaVuSans-61" d="M 2194 1759 
Q 1497 1759 1228 1600 
Q 959 1441 959 1056 
Q 959 750 1161 570 
Q 1363 391 1709 391 
Q 2188 391 2477 730 
Q 2766 1069 2766 1631 
L 2766 1759 
L 2194 1759 
z
M 3341 1997 
L 3341 0 
L 2766 0 
L 2766 531 
Q 2569 213 2275 61 
Q 1981 -91 1556 -91 
Q 1019 -91 701 211 
Q 384 513 384 1019 
Q 384 1609 779 1909 
Q 1175 2209 1959 2209 
L 2766 2209 
L 2766 2266 
Q 2766 2663 2505 2880 
Q 2244 3097 1772 3097 
Q 1472 3097 1187 3025 
Q 903 2953 641 2809 
L 641 3341 
Q 956 3463 1253 3523 
Q 1550 3584 1831 3584 
Q 2591 3584 2966 3190 
Q 3341 2797 3341 1997 
z
" transform="scale(0.015625)"/>
      </defs>
      <use xlink:href="#DejaVuSans-4d"/>
      <use xlink:href="#DejaVuSans-6f" transform="translate(86.279297 0)"/>
      <use xlink:href="#DejaVuSans-64" transform="translate(147.460938 0)"/>
      <use xlink:href="#DejaVuSans-65" transform="translate(210.9375 0)"/>
      <use xlink:href="#DejaVuSans-6c" transform="translate(272.460938 0)"/>
      <use xlink:href="#DejaVuSans-73" transform="translate(300.244141 0)"/>
      <use xlink:href="#DejaVuSans-20" transform="translate(352.34375 0)"/>
      <use xlink:href="#DejaVuSans-70" transform="translate(384.130859 0)"/>
      <use xlink:href="#DejaVuSans-75" transform="translate(447.607422 0)"/>
      <use xlink:href="#DejaVuSans-62" transform="translate(510.986328 0)"/>
      <use xlink:href="#DejaVuSans-6c" transform="translate(574.462891 0)"/>
      <use xlink:href="#DejaVuSans-69" transform="translate(602.246094 0)"/>
      <use xlink:href="#DejaVuSans-73" transform="translate(630.029297 0)"/>
      <use xlink:href="#DejaVuSans-68" transform="translate(682.128906 0)"/>
      <use xlink:href="#DejaVuSans-65" transform="translate(745.507812 0)"/>
      <use xlink:href="#DejaVuSans-64" transform="translate(807.03125 0)"/>
      <use xlink:href="#DejaVuSans-20" transform="translate(870.507812 0)"/>
      <use xlink:href="#DejaVuSans-74" transform="translate(902.294922 0)"/>
      <use xlink:href="#DejaVuSans-6f" transform="translate(941.503906 0)"/>
      <use xlink:href="#DejaVuSans-20" transform="translate(1002.685547 0)"/>
      <use xlink:href="#DejaVuSans-64" transform="translate(1034.472656 0)"/>
      <use xlink:href="#DejaVuSans-61" transform="translate(1097.949219 0)"/>
      <use xlink:href="#DejaVuSans-74" transform="translate(1159.228516 0)"/>
      <use xlink:href="#DejaVuSans-65" transform="translate(1198.4375 0)"/>
     </g>
    </g>
   </g>
   <g id="matplotlib.axis_4">
    <g id="ytick_7">
     <g id="line2d_13">
      <defs>
       <path id="m4f153870d1" d="M 0 0 
L -3.5 0 
" style="stroke: #000000; stroke-width: 0.8"/>
      </defs>
      <g>
       <use xlink:href="#m4f153870d1" x="45.36" y="264.204" style="stroke: #000000; stroke-width: 0.8"/>
      </g>
     </g>
     <g id="text_14">
      <!-- 0 -->
      <g transform="translate(31.9975 268.003219) scale(0.1 -0.1)">
       <use xlink:href="#DejaVuSans-30"/>
      </g>
     </g>
    </g>
    <g id="ytick_8">
     <g id="line2d_14">
      <g>
       <use xlink:href="#m4f153870d1" x="45.36" y="212.763208" style="stroke: #000000; stroke-width: 0.8"/>
      </g>
     </g>
     <g id="text_15">
      <!-- 20 -->
      <g transform="translate(25.635 216.562427) scale(0.1 -0.1)">
       <use xlink:href="#DejaVuSans-32"/>
       <use xlink:href="#DejaVuSans-30" transform="translate(63.623047 0)"/>
      </g>
     </g>
    </g>
    <g id="ytick_9">
     <g id="line2d_15">
      <g>
       <use xlink:href="#m4f153870d1" x="45.36" y="161.322416" style="stroke: #000000; stroke-width: 0.8"/>
      </g>
     </g>
     <g id="text_16">
      <!-- 40 -->
      <g transform="translate(25.635 165.121635) scale(0.1 -0.1)">
       <use xlink:href="#DejaVuSans-34"/>
       <use xlink:href="#DejaVuSans-30" transform="translate(63.623047 0)"/>
      </g>
     </g>
    </g>
    <g id="ytick_10">
     <g id="line2d_16">
      <g>
       <use xlink:href="#m4f153870d1" x="45.36" y="109.881624" style="stroke: #000000; stroke-width: 0.8"/>
      </g>
     </g>
     <g id="text_17">
      <!-- 60 -->
      <g transform="translate(25.635 113.680843) scale(0.1 -0.1)">
       <use xlink:href="#DejaVuSans-36"/>
       <use xlink:href="#DejaVuSans-30" transform="translate(63.623047 0)"/>
      </g>
     </g>
    </g>
    <g id="ytick_11">
     <g id="line2d_17">
      <g>
       <use xlink:href="#m4f153870d1" x="45.36" y="58.440832" style="stroke: #000000; stroke-width: 0.8"/>
      </g>
     </g>
     <g id="text_18">
      <!-- 80 -->
      <g transform="translate(25.635 62.24005) scale(0.1 -0.1)">
       <use xlink:href="#DejaVuSans-38"/>
       <use xlink:href="#DejaVuSans-30" transform="translate(63.623047 0)"/>
      </g>
     </g>
    </g>
    <g id="ytick_12">
     <g id="line2d_18">
      <g>
       <use xlink:href="#m4f153870d1" x="45.36" y="7.00004" style="stroke: #000000; stroke-width: 0.8"/>
      </g>
     </g>
     <g id="text_19">
      <!-- 100 -->
      <g transform="translate(19.2725 10.799258) scale(0.1 -0.1)">
       <use xlink:href="#DejaVuSans-31"/>
       <use xlink:href="#DejaVuSans-30" transform="translate(63.623047 0)"/>
       <use xlink:href="#DejaVuSans-30" transform="translate(127.246094 0)"/>
      </g>
     </g>
    </g>
    <g id="text_20">
     <!-- Percentage in PMR (upper bound) -->
     <g transform="translate(13.192812 218.451937) rotate(-90) scale(0.1 -0.1)">
      <defs>
       <path id="DejaVuSans-50" d="M 1259 4147 
L 1259 2394 
L 2053 2394 
Q 2494 2394 2734 2622 
Q 2975 2850 2975 3272 
Q 2975 3691 2734 3919 
Q 2494 4147 2053 4147 
L 1259 4147 
z
M 628 4666 
L 2053 4666 
Q 2838 4666 3239 4311 
Q 3641 3956 3641 3272 
Q 3641 2581 3239 2228 
Q 2838 1875 2053 1875 
L 1259 1875 
L 1259 0 
L 628 0 
L 628 4666 
z
" transform="scale(0.015625)"/>
       <path id="DejaVuSans-72" d="M 2631 2963 
Q 2534 3019 2420 3045 
Q 2306 3072 2169 3072 
Q 1681 3072 1420 2755 
Q 1159 2438 1159 1844 
L 1159 0 
L 581 0 
L 581 3500 
L 1159 3500 
L 1159 2956 
Q 1341 3275 1631 3429 
Q 1922 3584 2338 3584 
Q 2397 3584 2469 3576 
Q 2541 3569 2628 3553 
L 2631 2963 
z
" transform="scale(0.015625)"/>
       <path id="DejaVuSans-63" d="M 3122 3366 
L 3122 2828 
Q 2878 2963 2633 3030 
Q 2388 3097 2138 3097 
Q 1578 3097 1268 2742 
Q 959 2388 959 1747 
Q 959 1106 1268 751 
Q 1578 397 2138 397 
Q 2388 397 2633 464 
Q 2878 531 3122 666 
L 3122 134 
Q 2881 22 2623 -34 
Q 2366 -91 2075 -91 
Q 1284 -91 818 406 
Q 353 903 353 1747 
Q 353 2603 823 3093 
Q 1294 3584 2113 3584 
Q 2378 3584 2631 3529 
Q 2884 3475 3122 3366 
z
" transform="scale(0.015625)"/>
       <path id="DejaVuSans-6e" d="M 3513 2113 
L 3513 0 
L 2938 0 
L 2938 2094 
Q 2938 2591 2744 2837 
Q 2550 3084 2163 3084 
Q 1697 3084 1428 2787 
Q 1159 2491 1159 1978 
L 1159 0 
L 581 0 
L 581 3500 
L 1159 3500 
L 1159 2956 
Q 1366 3272 1645 3428 
Q 1925 3584 2291 3584 
Q 2894 3584 3203 3211 
Q 3513 2838 3513 2113 
z
" transform="scale(0.015625)"/>
       <path id="DejaVuSans-67" d="M 2906 1791 
Q 2906 2416 2648 2759 
Q 2391 3103 1925 3103 
Q 1463 3103 1205 2759 
Q 947 2416 947 1791 
Q 947 1169 1205 825 
Q 1463 481 1925 481 
Q 2391 481 2648 825 
Q 2906 1169 2906 1791 
z
M 3481 434 
Q 3481 -459 3084 -895 
Q 2688 -1331 1869 -1331 
Q 1566 -1331 1297 -1286 
Q 1028 -1241 775 -1147 
L 775 -588 
Q 1028 -725 1275 -790 
Q 1522 -856 1778 -856 
Q 2344 -856 2625 -561 
Q 2906 -266 2906 331 
L 2906 616 
Q 2728 306 2450 153 
Q 2172 0 1784 0 
Q 1141 0 747 490 
Q 353 981 353 1791 
Q 353 2603 747 3093 
Q 1141 3584 1784 3584 
Q 2172 3584 2450 3431 
Q 2728 3278 2906 2969 
L 2906 3500 
L 3481 3500 
L 3481 434 
z
" transform="scale(0.015625)"/>
       <path id="DejaVuSans-52" d="M 2841 2188 
Q 3044 2119 3236 1894 
Q 3428 1669 3622 1275 
L 4263 0 
L 3584 0 
L 2988 1197 
Q 2756 1666 2539 1819 
Q 2322 1972 1947 1972 
L 1259 1972 
L 1259 0 
L 628 0 
L 628 4666 
L 2053 4666 
Q 2853 4666 3247 4331 
Q 3641 3997 3641 3322 
Q 3641 2881 3436 2590 
Q 3231 2300 2841 2188 
z
M 1259 4147 
L 1259 2491 
L 2053 2491 
Q 2509 2491 2742 2702 
Q 2975 2913 2975 3322 
Q 2975 3731 2742 3939 
Q 2509 4147 2053 4147 
L 1259 4147 
z
" transform="scale(0.015625)"/>
       <path id="DejaVuSans-28" d="M 1984 4856 
Q 1566 4138 1362 3434 
Q 1159 2731 1159 2009 
Q 1159 1288 1364 580 
Q 1569 -128 1984 -844 
L 1484 -844 
Q 1016 -109 783 600 
Q 550 1309 550 2009 
Q 550 2706 781 3412 
Q 1013 4119 1484 4856 
L 1984 4856 
z
" transform="scale(0.015625)"/>
       <path id="DejaVuSans-29" d="M 513 4856 
L 1013 4856 
Q 1481 4119 1714 3412 
Q 1947 2706 1947 2009 
Q 1947 1309 1714 600 
Q 1481 -109 1013 -844 
L 513 -844 
Q 928 -128 1133 580 
Q 1338 1288 1338 2009 
Q 1338 2731 1133 3434 
Q 928 4138 513 4856 
z
" transform="scale(0.015625)"/>
      </defs>
      <use xlink:href="#DejaVuSans-50"/>
      <use xlink:href="#DejaVuSans-65" transform="translate(56.677734 0)"/>
      <use xlink:href="#DejaVuSans-72" transform="translate(118.201172 0)"/>
      <use xlink:href="#DejaVuSans-63" transform="translate(157.064453 0)"/>
      <use xlink:href="#DejaVuSans-65" transform="translate(212.044922 0)"/>
      <use xlink:href="#DejaVuSans-6e" transform="translate(273.568359 0)"/>
      <use xlink:href="#DejaVuSans-74" transform="translate(336.947266 0)"/>
      <use xlink:href="#DejaVuSans-61" transform="translate(376.15625 0)"/>
      <use xlink:href="#DejaVuSans-67" transform="translate(437.435547 0)"/>
      <use xlink:href="#DejaVuSans-65" transform="translate(500.912109 0)"/>
      <use xlink:href="#DejaVuSans-20" transform="translate(562.435547 0)"/>
      <use xlink:href="#DejaVuSans-69" transform="translate(594.222656 0)"/>
      <use xlink:href="#DejaVuSans-6e" transform="translate(622.005859 0)"/>
      <use xlink:href="#DejaVuSans-20" transform="translate(685.384766 0)"/>
      <use xlink:href="#DejaVuSans-50" transform="translate(717.171875 0)"/>
      <use xlink:href="#DejaVuSans-4d" transform="translate(777.474609 0)"/>
      <use xlink:href="#DejaVuSans-52" transform="translate(863.753906 0)"/>
      <use xlink:href="#DejaVuSans-20" transform="translate(933.236328 0)"/>
      <use xlink:href="#DejaVuSans-28" transform="translate(965.023438 0)"/>
      <use xlink:href="#DejaVuSans-75" transform="translate(1004.037109 0)"/>
      <use xlink:href="#DejaVuSans-70" transform="translate(1067.416016 0)"/>
      <use xlink:href="#DejaVuSans-70" transform="translate(1130.892578 0)"/>
      <use xlink:href="#DejaVuSans-65" transform="translate(1194.369141 0)"/>
      <use xlink:href="#DejaVuSans-72" transform="translate(1255.892578 0)"/>
      <use xlink:href="#DejaVuSans-20" transform="translate(1297.005859 0)"/>
      <use xlink:href="#DejaVuSans-62" transform="translate(1328.792969 0)"/>
      <use xlink:href="#DejaVuSans-6f" transform="translate(1392.269531 0)"/>
      <use xlink:href="#DejaVuSans-75" transform="translate(1453.451172 0)"/>
      <use xlink:href="#DejaVuSans-6e" transform="translate(1516.830078 0)"/>
      <use xlink:href="#DejaVuSans-64" transform="translate(1580.208984 0)"/>
      <use xlink:href="#DejaVuSans-29" transform="translate(1643.685547 0)"/>
     </g>
    </g>
   </g>
   <g id="line2d_19">
    <path d="M 45.36 7.00004 
L 54.462857 7.00004 
L 63.565714 7.00004 
L 72.668571 7.00004 
L 81.771429 135.60202 
L 90.874286 135.60202 
L 99.977143 135.60202 
L 109.08 135.60202 
L 118.182857 135.60202 
L 127.285714 135.60202 
L 136.388571 135.60202 
L 145.491429 135.60202 
L 154.594286 135.60202 
L 163.697143 92.734693 
L 172.8 92.734693 
L 181.902857 71.30103 
L 191.005714 71.30103 
L 200.108571 71.30103 
L 209.211429 58.440832 
L 218.314286 92.734693 
L 227.417143 135.60202 
L 236.52 135.60202 
L 245.622857 121.312911 
L 254.725714 123.910931 
L 263.828571 123.910931 
L 272.931429 117.230308 
L 282.034286 117.230308 
L 291.137143 109.881624 
L 300.24 121.312911 
L 309.342857 117.230308 
L 318.445714 117.230308 
L 327.548571 123.910931 
L 336.651429 114.168356 
L 345.754286 109.881624 
L 354.857143 98.858597 
L 363.96 95.69106 
L 373.062857 80.486885 
L 382.165714 86.610789 
L 391.268571 82.017861 
L 400.371429 77.146574 
L 409.474286 72.390877 
L 418.577143 74.268768 
L 427.68 73.038894 
L 436.782857 77.146574 
L 445.885714 84.759376 
L 454.988571 89.969059 
L 464.091429 91.925876 
L 473.194286 95.61653 
L 482.297143 98.858597 
L 491.4 100.870098 
L 500.502857 106.333983 
L 509.605714 108.166931 
L 518.708571 113.485756 
L 527.811429 118.137553 
L 536.914286 121.98534 
L 546.017143 127.871846 
L 555.12 130.838983 
L 564.222857 128.904 
L 573.325714 135.60202 
L 582.428571 142.121014 
L 591.531429 145.936107 
L 600.634286 150.990291 
L 609.737143 154.278656 
L 618.84 156.178337 
" clip-path="url(#p22d814369d)" style="fill: none; stroke: #d62728; stroke-width: 1.5; stroke-linecap: square"/>
   </g>
   <g id="patch_5">
    <path d="M 45.36 264.204 
L 45.36 4.428 
" style="fill: none; stroke: #000000; stroke-width: 0.8; stroke-linejoin: miter; stroke-linecap: square"/>
   </g>
   <g id="patch_6">
    <path d="M 618.84 264.204 
L 618.84 4.428 
" style="fill: none; stroke: #000000; stroke-width: 0.8; stroke-linejoin: miter; stroke-linecap: square"/>
   </g>
   <g id="patch_7">
    <path d="M 45.36 264.204 
L 618.84 264.204 
" style="fill: none; stroke: #000000; stroke-width: 0.8; stroke-linejoin: miter; stroke-linecap: square"/>
   </g>
  </g>
 </g>
 <defs>
  <clipPath id="p22d814369d">
   <rect x="45.36" y="4.428" width="573.48" height="259.776"/>
  </clipPath>
 </defs>
</svg>
